<svg width="24" height="24" viewBox="0 0 24 24" fill="none" xmlns="http://www.w3.org/2000/svg">
<path d="M14 10V12.5M10 12.5V10" stroke="#141B34" stroke-width="1.5" stroke-linecap="round" stroke-linejoin="round"/>
<path d="M8.5026 13.38C8.46336 12.9051 8.87308 12.5 9.39258 12.5H14.6074C15.1269 12.5 15.5366 12.9051 15.4974 13.38L15.3902 14.6774C15.3131 15.6101 14.9757 16.509 14.4103 17.2876L14.0599 17.7703C13.7289 18.2261 13.1712 18.5 12.5739 18.5H11.4261C10.8288 18.5 10.2711 18.2261 9.94014 17.7703L9.58969 17.2876C9.02433 16.509 8.6869 15.6101 8.60983 14.6774L8.5026 13.38Z" stroke="#141B34" stroke-width="1.5"/>
<path d="M12.75 18.5C12.75 18.0858 12.4142 17.75 12 17.75C11.5858 17.75 11.25 18.0858 11.25 18.5H12.75ZM21.6486 13.2135L22.3899 13.3274V13.3274L21.6486 13.2135ZM21.3476 15.1724L20.6063 15.0585V15.0585L21.3476 15.1724ZM2.65243 15.1724L3.39373 15.0585L2.65243 15.1724ZM2.35139 13.2135L3.09269 13.0995L2.35139 13.2135ZM5.58114 5.64106L6.02058 6.24884L5.58114 5.64106ZM7.02099 4.6L7.46043 5.20777L7.02099 4.6ZM16.979 4.6L17.4185 3.99223V3.99223L16.979 4.6ZM18.4189 5.64106L17.9794 6.24884V6.24884L18.4189 5.64106ZM19.429 21.0286L19.9086 21.6052L19.429 21.0286ZM14.9894 21.2422C14.5752 21.248 14.2442 21.5885 14.2501 22.0027C14.2559 22.4169 14.5964 22.7479 15.0106 22.742L14.9894 21.2422ZM12.75 20.8612V18.5H11.25V20.8612H12.75ZM20.9073 13.0995L20.6063 15.0585L22.0889 15.2863L22.3899 13.3274L20.9073 13.0995ZM3.39373 15.0585L3.09269 13.0995L1.61009 13.3274L1.91113 15.2863L3.39373 15.0585ZM6.02058 6.24884L7.46043 5.20777L6.58155 3.99223L5.1417 5.03329L6.02058 6.24884ZM16.5396 5.20777L17.9794 6.24884L18.8583 5.03329L17.4185 3.99223L16.5396 5.20777ZM7.46043 5.20777C8.67317 4.33092 9.53197 3.7114 10.2579 3.30406C10.9664 2.90645 11.483 2.75 12 2.75V1.25C11.1339 1.25 10.3597 1.52688 9.5238 1.99594C8.70528 2.45527 7.7661 3.13575 6.58155 3.99223L7.46043 5.20777ZM17.4185 3.99223C16.2339 3.13575 15.2947 2.45527 14.4762 1.99594C13.6403 1.52688 12.8661 1.25 12 1.25V2.75C12.517 2.75 13.0336 2.90645 13.7421 3.30406C14.468 3.7114 15.3268 4.33092 16.5396 5.20777L17.4185 3.99223ZM10.8612 21.25C9.13496 21.25 7.90793 21.2487 6.96392 21.134C6.03867 21.0217 5.48034 20.8094 5.0506 20.452L4.0914 21.6052C4.82957 22.2192 5.7089 22.4926 6.78306 22.6231C7.83845 22.7513 9.17256 22.75 10.8612 22.75V21.25ZM1.91113 15.2863C2.1583 16.8947 2.35321 18.1728 2.64105 19.1662C2.93544 20.1821 3.35015 20.9887 4.0914 21.6052L5.0506 20.452C4.62394 20.0971 4.32959 19.6038 4.08178 18.7487C3.82742 17.8709 3.647 16.7066 3.39373 15.0585L1.91113 15.2863ZM20.6063 15.0585C20.353 16.7066 20.1726 17.8709 19.9182 18.7487C19.6704 19.6038 19.3761 20.0971 18.9494 20.452L19.9086 21.6052C20.6498 20.9887 21.0646 20.1821 21.359 19.1661C21.6468 18.1728 21.8417 16.8947 22.0889 15.2863L20.6063 15.0585ZM22.3899 13.3274C22.5641 12.1941 22.7043 11.2878 22.7406 10.5381C22.7778 9.77045 22.7108 9.10469 22.4337 8.45514L21.054 9.04362C21.2112 9.41232 21.2731 9.83 21.2423 10.4655C21.2107 11.119 21.0862 11.9356 20.9073 13.0995L22.3899 13.3274ZM17.9794 6.24884C18.9551 6.95427 19.6418 7.45189 20.1434 7.8969C20.633 8.33129 20.8961 8.6735 21.054 9.04362L22.4337 8.45514C22.1573 7.807 21.7215 7.29173 21.1389 6.77487C20.5683 6.26863 19.8098 5.72122 18.8583 5.03329L17.9794 6.24884ZM3.09269 13.0995C2.91382 11.9356 2.78929 11.119 2.75765 10.4655C2.72688 9.83 2.78878 9.41233 2.94604 9.04362L1.56629 8.45513C1.28925 9.10469 1.22224 9.77045 1.25941 10.5381C1.2957 11.2878 1.43594 12.1941 1.61009 13.3274L3.09269 13.0995ZM5.1417 5.03329C4.19024 5.72122 3.43166 6.26863 2.86109 6.77487C2.27855 7.29173 1.84274 7.807 1.56629 8.45513L2.94604 9.04362C3.1039 8.6735 3.36702 8.33129 3.85661 7.8969C4.35817 7.45189 5.04492 6.95427 6.02058 6.24884L5.1417 5.03329ZM15.0106 22.742C17.1925 22.7112 18.7429 22.5748 19.9086 21.6052L18.9494 20.452C18.2486 21.0348 17.2436 21.2103 14.9894 21.2422L15.0106 22.742ZM11.25 20.8612C11.25 21.0759 11.0759 21.25 10.8612 21.25V22.75C11.9043 22.75 12.75 21.9043 12.75 20.8612H11.25Z" fill="#141B34"/>
</svg>
