<svg width="24" height="24" viewBox="0 0 24 24" fill="none" xmlns="http://www.w3.org/2000/svg">
<path d="M20 8.58489V13.5004C20 17.2716 20 19.1572 18.8284 20.3288C18.0203 21.137 16.8723 21.3876 15 21.4654M4 8.58489L4 13.5004C4 17.2716 4 19.1572 5.17157 20.3288C6.23465 21.3919 7.88563 21.4903 10.9998 21.4994C11.5521 21.501 12 21.0526 12 20.5004V17.5004" stroke="#141B34" stroke-width="1.5" stroke-linecap="round" stroke-linejoin="round"/>
<path d="M22 10.5005L17.6569 6.33597C14.9902 3.77898 13.6569 2.50049 12 2.50049C10.3431 2.50049 9.00981 3.77898 6.34315 6.33597L2 10.5005" stroke="#141B34" stroke-width="1.5" stroke-linecap="round"/>
<path d="M14.752 9.00049C14.752 8.58627 14.4162 8.25049 14.002 8.25049C13.5877 8.25049 13.252 8.58627 13.252 9.00049H14.752ZM13.252 11.5005C13.252 11.9147 13.5877 12.2505 14.002 12.2505C14.4162 12.2505 14.752 11.9147 14.752 11.5005H13.252ZM9.25195 11.5005C9.25195 11.9147 9.58774 12.2505 10.002 12.2505C10.4162 12.2505 10.752 11.9147 10.752 11.5005H9.25195ZM10.752 9.00049C10.752 8.58627 10.4162 8.25049 10.002 8.25049C9.58774 8.25049 9.25195 8.58627 9.25195 9.00049H10.752ZM15.3941 13.6779L16.1415 13.7397V13.7397L15.3941 13.6779ZM14.4142 16.2881L15.0211 16.7288L15.0211 16.7288L14.4142 16.2881ZM9.59359 16.2881L10.2005 15.8475L10.2005 15.8475L9.59359 16.2881ZM8.61373 13.6779L9.36118 13.6162L8.61373 13.6779ZM9.94405 16.7708L9.33715 17.2114H9.33715L9.94405 16.7708ZM14.0638 16.7708L13.4569 16.3301L13.4569 16.3301L14.0638 16.7708ZM15.5013 12.3805L14.7539 12.3187V12.3187L15.5013 12.3805ZM8.50651 12.3805L7.75906 12.4422L8.50651 12.3805ZM13.252 9.00049V11.5005H14.752V9.00049H13.252ZM10.752 11.5005V9.00049H9.25195V11.5005H10.752ZM9.39649 12.2505H14.6113V10.7505H9.39649V12.2505ZM12.5778 16.7505H11.4301V18.2505H12.5778V16.7505ZM10.5509 16.3301L10.2005 15.8475L8.98669 16.7288L9.33715 17.2114L10.5509 16.3301ZM9.36118 13.6162L9.25396 12.3187L7.75906 12.4422L7.86628 13.7397L9.36118 13.6162ZM14.7539 12.3187L14.6466 13.6162L16.1415 13.7397L16.2488 12.4422L14.7539 12.3187ZM13.8073 15.8475L13.4569 16.3301L14.6707 17.2114L15.0211 16.7288L13.8073 15.8475ZM14.6466 13.6162C14.5812 14.4081 14.2944 15.1766 13.8073 15.8475L15.0211 16.7288C15.6647 15.8423 16.0528 14.8132 16.1415 13.7397L14.6466 13.6162ZM10.2005 15.8475C9.71338 15.1766 9.42663 14.4081 9.36118 13.6162L7.86628 13.7397C7.95499 14.8132 8.34309 15.8423 8.98669 16.7288L10.2005 15.8475ZM11.4301 16.7505C11.0559 16.7505 10.7311 16.5783 10.5509 16.3301L9.33715 17.2114C9.81892 17.875 10.6096 18.2505 11.4301 18.2505V16.7505ZM12.5778 18.2505C13.3982 18.2505 14.1889 17.875 14.6707 17.2114L13.4569 16.3301C13.2767 16.5783 12.9519 16.7505 12.5778 16.7505V18.2505ZM14.6113 12.2505C14.6749 12.2505 14.7173 12.2748 14.7385 12.2957C14.7489 12.306 14.7525 12.3137 14.7535 12.316C14.754 12.3174 14.754 12.3173 14.7539 12.3187L16.2488 12.4422C16.3297 11.4629 15.4987 10.7505 14.6113 10.7505V12.2505ZM9.39649 10.7505C8.50908 10.7505 7.67812 11.4628 7.75906 12.4422L9.25396 12.3187C9.25384 12.3173 9.25381 12.3174 9.25435 12.3161C9.25528 12.3137 9.25893 12.306 9.2693 12.2957C9.29047 12.2748 9.33293 12.2505 9.39649 12.2505V10.7505Z" fill="#141B34"/>
</svg>
