<svg width="24" height="24" viewBox="0 0 24 24" fill="none" xmlns="http://www.w3.org/2000/svg">
<path d="M18 7.26318C20.412 8.60862 22 10.8999 22 13.5002C22 15.5588 21.0047 17.4237 19.3933 18.779C19.1517 18.9822 19 19.2765 19 19.5922V22.0002H17L16.2062 20.8676C16.083 20.6918 15.8616 20.6155 15.6537 20.6689C13.9248 21.1135 12.0752 21.1135 10.3463 20.6689C10.1384 20.6155 9.91703 20.6918 9.79384 20.8676L9 22.0002H7V19.6157C7 19.2868 6.83835 18.979 6.56764 18.7924C5.49285 18.0513 2 16.6016 2 15.0585V13.5002C2 12.9085 2.44771 12.4288 3 12.4288C3.60665 12.4288 4.10188 12.1931 4.30205 11.5663C4.87123 9.78401 6.20828 8.26263 8 7.26318" stroke="#141B34" stroke-width="1.5" stroke-linecap="round" stroke-linejoin="round"/>
<path d="M13.5 2L11 6H15L12.5 10" stroke="#141B34" stroke-width="1.5" stroke-linecap="round" stroke-linejoin="round"/>
<path d="M7.49981 12H7.50879" stroke="#141B34" stroke-width="2" stroke-linecap="round" stroke-linejoin="round"/>
</svg>
