<svg width="24" height="24" viewBox="0 0 24 24" fill="none" xmlns="http://www.w3.org/2000/svg">
<path d="M14 10.5C14 11.6046 13.1046 12.5 12 12.5C10.8954 12.5 10 11.6046 10 10.5C10 9.39543 10.8954 8.5 12 8.5C13.1046 8.5 14 9.39543 14 10.5Z" stroke="#141B34" stroke-width="1.5"/>
<path d="M13.5 2H14.25C14.25 1.58579 13.9142 1.25 13.5 1.25V2ZM13.5 9.17662L12.9378 9.6731C13.1443 9.90682 13.4738 9.98844 13.7654 9.87809C14.0571 9.76774 14.25 9.48845 14.25 9.17662H13.5ZM10.5 9.17755H9.75C9.75 9.48946 9.94305 9.76881 10.2348 9.8791C10.5266 9.98939 10.8561 9.90759 11.0625 9.67368L10.5 9.17755ZM11.25 5C11.25 3.75736 12.2574 2.75 13.5 2.75V1.25C11.4289 1.25 9.75 2.92893 9.75 5H11.25ZM12.75 2V9.17662H14.25V2H12.75ZM12.0004 9.25C12.3735 9.25 12.7077 9.41252 12.9378 9.6731L14.0622 8.68015C13.5594 8.11085 12.8216 7.75 12.0004 7.75V9.25ZM11.25 9.17755V5H9.75V9.17755H11.25ZM11.0625 9.67368C11.2926 9.41276 11.627 9.25 12.0004 9.25V7.75C11.1786 7.75 10.4404 8.11139 9.93754 8.68143L11.0625 9.67368Z" fill="#141B34"/>
<path d="M13.9917 10.3187L20.001 14C19.1725 15.4349 17.3378 15.9265 15.9029 15.0981L11.7383 12.4818" stroke="#141B34" stroke-width="1.5" stroke-linecap="round" stroke-linejoin="round"/>
<path d="M10.007 10.3206L4 14C4.82843 15.4349 6.6632 15.9265 8.09808 15.0981L12.2617 12.4829" stroke="#141B34" stroke-width="1.5" stroke-linecap="round" stroke-linejoin="round"/>
<path d="M13.4502 16.5L13.7702 18.521C13.9962 20.1248 14.1092 20.9267 13.8547 21.4633C13.6001 21.9999 13.1067 21.9999 12.1199 21.9999H11.8801C10.8933 21.9999 10.3999 21.9999 10.1453 21.4633C9.89078 20.9267 10.0038 20.1248 10.2298 18.521L10.5498 16.5" stroke="#141B34" stroke-width="1.5" stroke-linecap="round" stroke-linejoin="round"/>
</svg>
