<svg width="24" height="24" viewBox="0 0 24 24" fill="none" xmlns="http://www.w3.org/2000/svg">
<path d="M4.75 6C4.75 5.58579 4.41421 5.25 4 5.25C3.58579 5.25 3.25 5.58579 3.25 6L4.75 6ZM3.25 18C3.25 18.4142 3.58579 18.75 4 18.75C4.41421 18.75 4.75 18.4142 4.75 18L3.25 18ZM3.25 6L3.25 18L4.75 18L4.75 6L3.25 6Z" fill="#141B34"/>
<path d="M12.1274 12.0001V8.94447C12.1274 8.57032 11.6451 8.36429 11.3238 8.60121L7.18046 11.6569C6.93985 11.8343 6.93985 12.1659 7.18046 12.3434L11.3238 15.399C11.6451 15.636 12.1274 15.4299 12.1274 15.0558V12.0001ZM12.1274 12.0001H20" stroke="#141B34" stroke-width="1.5" stroke-linecap="round" stroke-linejoin="round"/>
</svg>
