<svg width="24" height="24" viewBox="0 0 24 24" fill="none" xmlns="http://www.w3.org/2000/svg">
<path d="M14 10L20.5 3.50004M20.9011 8L20.9949 4.02348C21.0062 3.54199 21.0119 3.30124 20.8642 3.15062C20.7165 3 20.4748 3 19.9914 3H16" stroke="#141B34" stroke-width="1.5" stroke-linecap="round" stroke-linejoin="round"/>
<path d="M9.99996 10.0001L3.49996 3.50007M8 3H4C3.5286 3 3.29289 3 3.14645 3.14645C3 3.29289 3 3.5286 3 4V8" stroke="#141B34" stroke-width="1.5" stroke-linecap="round" stroke-linejoin="round"/>
<path d="M9.99998 14L3.49998 20.5M3 16V20C3 20.4714 3 20.7071 3.14645 20.8535C3.29289 21 3.5286 21 4 21H8" stroke="#141B34" stroke-width="1.5" stroke-linecap="round" stroke-linejoin="round"/>
<path d="M14 14L20.5 20.5M16 20.9999H20C20.4714 20.9999 20.7071 20.9999 20.8536 20.8535C21 20.707 21 20.4713 21 19.9999V15.9999" stroke="#141B34" stroke-width="1.5" stroke-linecap="round" stroke-linejoin="round"/>
</svg>
