<svg width="24" height="24" viewBox="0 0 24 24" fill="none" xmlns="http://www.w3.org/2000/svg">
<path d="M15.5 6L12.6508 3.42156C12.3402 3.14052 12.185 3 12 3C11.815 3 11.6598 3.14052 11.3492 3.42156L8.5 6" stroke="#141B34" stroke-width="1.5" stroke-linecap="round" stroke-linejoin="round"/>
<path d="M14 12C14 13.1046 13.1046 14 12 14C10.8954 14 10 13.1046 10 12C10 10.8954 10.8954 10 12 10C13.1046 10 14 10.8954 14 12Z" stroke="#141B34" stroke-width="1.5" stroke-linecap="round" stroke-linejoin="round"/>
<path d="M8.5 18.0002L11.3492 20.5787C11.6598 20.8597 11.815 21.0002 12 21.0002C12.185 21.0002 12.3402 20.8597 12.6508 20.5787L15.5 18.0002" stroke="#141B34" stroke-width="1.5" stroke-linecap="round" stroke-linejoin="round"/>
</svg>
