<svg width="24" height="24" viewBox="0 0 24 24" fill="none" xmlns="http://www.w3.org/2000/svg">
<path d="M4.93308 21.2942L4.54043 21.9332L4.54043 21.9332L4.93308 21.2942ZM6.87527 21.0734L6.50226 20.4227L6.50225 20.4227L6.87527 21.0734ZM7.11292 20.9102L7.57025 21.5046L7.57026 21.5046L7.11292 20.9102ZM9.21481 20.486L9.60146 19.8434H9.60146L9.21481 20.486ZM19.0669 21.2942L19.4596 21.9332L19.4596 21.9332L19.0669 21.2942ZM17.1247 21.0734L17.4977 20.4227L17.4977 20.4227L17.1247 21.0734ZM16.8871 20.9102L16.4297 21.5046L16.4298 21.5046L16.8871 20.9102ZM14.7852 20.486L15.1719 21.1287L14.7852 20.486ZM19.5 10.5H18.75C18.75 10.9142 19.0858 11.25 19.5 11.25V10.5ZM4.5 10.5V11.25C4.91421 11.25 5.25 10.9142 5.25 10.5H4.5ZM17.0256 21.0139L17.4417 20.3899L17.4417 20.3899L17.0256 21.0139ZM6.9744 21.0139L6.55827 20.3899L6.55825 20.3899L6.9744 21.0139ZM19.5 13.5V12.75C19.0858 12.75 18.75 13.0858 18.75 13.5H19.5ZM4.5 13.5H5.25C5.25 13.0858 4.91421 12.75 4.5 12.75V13.5ZM3.75 19C3.75 19.6513 3.74807 20.2242 3.81198 20.6625C3.87687 21.1075 4.037 21.6238 4.54043 21.9332L5.32573 20.6552C5.39608 20.6984 5.33967 20.7437 5.29629 20.4461C5.25193 20.1419 5.25 19.7008 5.25 19H3.75ZM6.50225 20.4227C6.25554 20.5641 6.01727 20.673 5.80034 20.7161C5.59872 20.7561 5.45309 20.7334 5.32573 20.6552L4.54043 21.9332C5.60095 22.5848 6.71623 22.029 7.24829 21.724L6.50225 20.4227ZM7.57026 21.5046C7.73692 21.3764 7.98741 21.2083 8.25138 21.1183C8.50962 21.0302 8.6883 21.0445 8.82815 21.1287L9.60146 19.8434C8.9465 19.4493 8.26553 19.5286 7.76718 19.6986C7.27456 19.8666 6.87152 20.1496 6.65558 20.3158L7.57026 21.5046ZM8.82815 21.1287C9.03682 21.2542 9.24918 21.4041 9.48011 21.5717C9.70267 21.7333 9.95138 21.9181 10.1975 22.0822C10.6742 22.4002 11.293 22.75 12 22.75V21.25C11.7695 21.25 11.4728 21.1298 11.0298 20.8344C10.8161 20.6918 10.6039 20.534 10.3613 20.3578C10.127 20.1878 9.86987 20.0049 9.60146 19.8434L8.82815 21.1287ZM18.75 19C18.75 19.7008 18.7481 20.1419 18.7037 20.4461C18.6603 20.7437 18.6039 20.6984 18.6743 20.6552L19.4596 21.9332C19.963 21.6238 20.1231 21.1075 20.188 20.6625C20.2519 20.2242 20.25 19.6513 20.25 19H18.75ZM16.7517 21.724C17.2838 22.029 18.3991 22.5848 19.4596 21.9332L18.6743 20.6552C18.5469 20.7334 18.4013 20.7561 18.1997 20.7161C17.9827 20.673 17.7445 20.5641 17.4977 20.4227L16.7517 21.724ZM17.3444 20.3158C17.1285 20.1496 16.7254 19.8666 16.2328 19.6986C15.7345 19.5286 15.0535 19.4493 14.3985 19.8434L15.1719 21.1287C15.3117 21.0445 15.4904 21.0302 15.7486 21.1183C16.0126 21.2083 16.2631 21.3764 16.4297 21.5046L17.3444 20.3158ZM14.3985 19.8434C14.1301 20.0049 13.873 20.1878 13.6387 20.3578C13.3961 20.534 13.1839 20.6918 12.9702 20.8344C12.5272 21.1298 12.2305 21.25 12 21.25V22.75C12.707 22.75 13.3258 22.4002 13.8025 22.0822C14.0486 21.9181 14.2973 21.7333 14.5199 21.5717C14.7508 21.4041 14.9632 21.2542 15.1719 21.1287L14.3985 19.8434ZM12 2.25C7.44365 2.25 3.75 5.94365 3.75 10.5H5.25C5.25 6.77208 8.27208 3.75 12 3.75V2.25ZM20.25 10.5C20.25 5.94365 16.5563 2.25 12 2.25V3.75C15.7279 3.75 18.75 6.77208 18.75 10.5H20.25ZM17.4977 20.4227C17.4723 20.4081 17.4604 20.4013 17.4513 20.3959C17.4449 20.3921 17.4432 20.3909 17.4417 20.3899L16.6095 21.6378C16.6626 21.6733 16.7093 21.6997 16.7517 21.724L17.4977 20.4227ZM16.4298 21.5046C16.4916 21.5523 16.5545 21.6012 16.6095 21.6379L17.4417 20.3899C17.4456 20.3925 17.4429 20.3909 17.4245 20.3771C17.4064 20.3635 17.3824 20.345 17.3444 20.3158L16.4298 21.5046ZM7.24828 21.724C7.29074 21.6997 7.3374 21.6733 7.39055 21.6378L6.55825 20.3899C6.55685 20.3909 6.55508 20.3921 6.54865 20.3959C6.53959 20.4013 6.5277 20.4081 6.50226 20.4227L7.24828 21.724ZM6.65559 20.3158C6.61755 20.345 6.59358 20.3635 6.57551 20.3771C6.55713 20.3909 6.55437 20.3925 6.55827 20.3899L7.39053 21.6379C7.44546 21.6012 7.5083 21.5523 7.57025 21.5046L6.65559 20.3158ZM19.5 11.25H20.5V9.75H19.5V11.25ZM20.5 12.75H19.5V14.25H20.5V12.75ZM21.25 12C21.25 12.4142 20.9142 12.75 20.5 12.75V14.25C21.7426 14.25 22.75 13.2426 22.75 12H21.25ZM20.5 11.25C20.9142 11.25 21.25 11.5858 21.25 12H22.75C22.75 10.7574 21.7426 9.75 20.5 9.75V11.25ZM4.5 9.75H3.5V11.25H4.5V9.75ZM3.5 14.25H4.5V12.75H3.5V14.25ZM1.25 12C1.25 13.2426 2.25736 14.25 3.5 14.25V12.75C3.08579 12.75 2.75 12.4142 2.75 12H1.25ZM3.5 9.75C2.25736 9.75 1.25 10.7574 1.25 12H2.75C2.75 11.5858 3.08579 11.25 3.5 11.25V9.75ZM3.75 13.5V19H5.25V13.5H3.75ZM18.75 13.5V19H20.25V13.5H18.75Z" fill="#141B34"/>
<path d="M15 10C15 11.6569 13.6569 13 12 13C10.3431 13 9 11.6569 9 10C9 8.34315 10.3431 7 12 7C13.6569 7 15 8.34315 15 10Z" stroke="#141B34" stroke-width="1.5" stroke-linecap="round"/>
<path d="M11.9902 17H11.9992" stroke="#141B34" stroke-width="2" stroke-linecap="round" stroke-linejoin="round"/>
<path d="M20.5 2C20.3333 2.9 19.5 4.76 17.5 5" stroke="#141B34" stroke-width="1.5" stroke-linecap="round"/>
<path d="M3.5 2C3.66667 2.9 4.5 4.76 6.5 5" stroke="#141B34" stroke-width="1.5" stroke-linecap="round"/>
</svg>
