<svg width="24" height="24" viewBox="0 0 24 24" fill="none" xmlns="http://www.w3.org/2000/svg">
<path d="M15 2L13.999 3.00098M9 8L12 5" stroke="#141B34" stroke-width="1.5" stroke-linecap="round"/>
<path d="M21.4142 10.5858C22.1953 11.3668 22.1953 12.6332 21.4142 13.4142C20.6332 14.1953 19.3668 14.1953 18.5858 13.4142C17.8047 12.6332 17.8047 11.3668 18.5858 10.5858C19.3668 9.80474 20.6332 9.80474 21.4142 10.5858Z" stroke="#141B34" stroke-width="1.5" stroke-linecap="round"/>
<path d="M2.12137 16.1641L3.0226 13.3179C3.24284 12.6223 3.74644 12.0446 4.41629 11.7192L5.50816 11.1887C6.36203 10.7738 7.40065 11.0677 7.89181 11.8632L8.91348 13.5178C9.16562 13.9262 9.29169 14.1303 9.45347 14.2355C9.68102 14.3833 9.96665 14.4176 10.2241 14.3282C10.4072 14.2646 10.5803 14.0964 10.9264 13.76C11.7417 12.9679 13.0989 13.0985 13.7384 14.0306L14.5397 15.1986C14.9857 15.8486 15.1154 16.6561 14.8945 17.4073L14.6604 18.2037C14.4494 18.9214 13.938 19.5201 13.251 19.8539L9.41063 21.7198C8.50271 22.161 7.41823 22.0783 6.59222 21.5049L3.14778 19.1142C2.18792 18.4479 1.77447 17.2596 2.12137 16.1641Z" stroke="#141B34" stroke-width="1.5" stroke-linecap="round" stroke-linejoin="round"/>
<path d="M22 2.00098L14 10.001" stroke="#141B34" stroke-width="1.5" stroke-linecap="round"/>
</svg>
