<svg width="24" height="24" viewBox="0 0 24 24" fill="none" xmlns="http://www.w3.org/2000/svg">
<path d="M17 10.5C17 10.5 18 13 18 16.25C18 17.4212 17.8701 18.4949 17.704 19.3894C17.4952 20.5137 17.3908 21.0758 16.835 21.5379C16.2792 22 15.6168 22 14.2919 22H9.70813C8.38323 22 7.72079 22 7.16499 21.5379C6.60919 21.0758 6.50478 20.5137 6.29598 19.3894C6.12986 18.4949 6 17.4212 6 16.25C6 13 7 10.5 7 10.5" stroke="#141B34" stroke-width="1.5" stroke-linecap="round" stroke-linejoin="round"/>
<path d="M9.42595 7.30687L9.21991 6.58573H9.21991L9.42595 7.30687ZM8.75 7.5L8.95604 8.22114H8.95604L8.75 7.5ZM7 10.5H6.25C6.25 10.9142 6.58579 11.25 7 11.25V10.5ZM17 10.5V11.25C17.4142 11.25 17.75 10.9142 17.75 10.5H17ZM15.25 7.5L15.456 6.77886L15.25 7.5ZM14.5741 7.30687L14.368 8.02802L14.5741 7.30687ZM13.8076 4.85705L13.1301 4.53527V4.53527L13.8076 4.85705ZM10.1924 4.85705L9.51496 5.17884L10.1924 4.85705ZM10.75 4C10.75 3.30964 11.3096 2.75 12 2.75V1.25C10.4812 1.25 9.25 2.48122 9.25 4H10.75ZM12 2.75C12.6904 2.75 13.25 3.30964 13.25 4H14.75C14.75 2.48122 13.5188 1.25 12 1.25V2.75ZM9.21991 6.58573L8.54396 6.77886L8.95604 8.22114L9.63199 8.02802L9.21991 6.58573ZM6.25 9.82003V10.5H7.75V9.82003H6.25ZM7 11.25H17V9.75H7V11.25ZM17.75 10.5V9.82003H16.25V10.5H17.75ZM15.456 6.77886L14.7801 6.58573L14.368 8.02802L15.044 8.22114L15.456 6.77886ZM13.25 4C13.25 4.19306 13.2067 4.37393 13.1301 4.53527L14.485 5.17884C14.6552 4.82065 14.75 4.42035 14.75 4H13.25ZM10.8699 4.53527C10.7933 4.37393 10.75 4.19306 10.75 4H9.25C9.25 4.42035 9.34483 4.82065 9.51496 5.17884L10.8699 4.53527ZM11.25 5.88297C11.25 5.32916 11.0166 4.84411 10.8699 4.53527L9.51496 5.17884C9.67795 5.52198 9.75 5.71498 9.75 5.88297H11.25ZM17.75 9.82003C17.75 8.40787 16.8139 7.16681 15.456 6.77886L15.044 8.22114C15.7578 8.42511 16.25 9.07759 16.25 9.82003H17.75ZM14.25 5.88297C14.25 5.71498 14.322 5.52198 14.485 5.17884L13.1301 4.53527C12.9834 4.84411 12.75 5.32916 12.75 5.88297H14.25ZM8.54396 6.77886C7.18614 7.16681 6.25 8.40787 6.25 9.82003H7.75C7.75 9.07759 8.24217 8.42511 8.95604 8.22114L8.54396 6.77886ZM14.7801 6.58573C14.4663 6.49608 14.25 6.20929 14.25 5.88297H12.75C12.75 6.87901 13.4103 7.75438 14.368 8.02802L14.7801 6.58573ZM9.63199 8.02802C10.5897 7.75438 11.25 6.87901 11.25 5.88297H9.75C9.75 6.20929 9.53367 6.49608 9.21991 6.58573L9.63199 8.02802Z" fill="#141B34"/>
<path d="M15 14H17.5M15 18H17.5" stroke="#141B34" stroke-width="1.5" stroke-linecap="round" stroke-linejoin="round"/>
</svg>
