<svg width="24" height="24" viewBox="0 0 24 24" fill="none" xmlns="http://www.w3.org/2000/svg">
<circle cx="17" cy="18.9999" r="2" stroke="#141B34" stroke-width="1.5"/>
<circle cx="7" cy="18.9999" r="2" stroke="#141B34" stroke-width="1.5"/>
<path d="M2 9.00012V13.9471C2 16.3291 2 17.5201 2.73223 18.2601C3.2191 18.7522 3.90328 18.917 5 18.9723M12.4271 5.00012C13.3404 5.30002 14.0564 6.02366 14.3532 6.94666C14.5 7.40334 14.5 7.96765 14.5 9.09625C14.5 9.84865 14.5 10.2249 14.5979 10.5293C14.7957 11.1446 15.2731 11.6271 15.882 11.827C16.1832 11.9259 16.5555 11.9259 17.3 11.9259H22V13.9471C22 16.3291 22 17.5201 21.2678 18.2601C20.7809 18.7522 20.0967 18.917 19 18.9723M9 19.0001H15" stroke="#141B34" stroke-width="1.5" stroke-linecap="round" stroke-linejoin="round"/>
<path d="M14.5 6.99988H16.3212C17.7766 6.99988 18.5042 6.99988 19.0964 7.35359C19.6886 7.7073 20.0336 8.34799 20.7236 9.62938L22 11.9999" stroke="#141B34" stroke-width="1.5" stroke-linecap="round" stroke-linejoin="round"/>
<path d="M7.32653 8.00012L8.81309 6.82595C9.60436 6.20095 10 5.88845 10 5.50012M7.32653 3.00012L8.81309 4.1743C9.60436 4.7993 10 5.1118 10 5.50012M10 5.50012L2 5.50012" stroke="#141B34" stroke-width="1.5" stroke-linecap="round" stroke-linejoin="round"/>
</svg>
