<svg width="24" height="24" viewBox="0 0 24 24" fill="none" xmlns="http://www.w3.org/2000/svg">
<path d="M8 12.9999L8 13.9999C8 15.1045 8.89543 15.9999 10 15.9999M10 15.9999L11 15.9999M10 15.9999C9.44771 15.9999 9 16.4476 9 16.9999C9 18.1045 9.89543 18.9999 11 18.9999M11 18.9999L12 18.9999M11 18.9999C10.4765 18.9999 10.0783 19.47 10.1644 19.9863L10.2215 20.3287C10.3822 21.2931 11.2166 21.9999 12.1943 21.9999L13.6668 21.9995C15.8402 21.9995 16.9269 21.9995 17.792 21.6685C18.2939 21.4764 18.9339 20.9698 19.3964 20.5647C19.7964 20.2143 20.3038 19.9995 20.8356 19.9995L22.0002 19.9995M10 12.9997L3.5 12.9997C2.67157 12.9997 2 12.3281 2 11.4997C2 10.6713 2.67157 9.99972 3.5 9.99972L13.4624 9.99951L11.837 8.37921C11.1239 7.66828 11.1889 6.49723 11.9765 5.86916C12.5791 5.38859 13.4315 5.37531 14.0489 5.83689L18.6471 9.43658C19.5269 10.1253 20.8829 10.4995 22.0002 10.4995" stroke="#141B34" stroke-width="1.5" stroke-linecap="round" stroke-linejoin="round"/>
<path d="M2 4.5L8 4.5M2 4.5C2 3.79977 3.9943 2.49153 4.5 2M2 4.5C2 5.20023 3.9943 6.50847 4.5 7" stroke="#141B34" stroke-width="1.5" stroke-linecap="round" stroke-linejoin="round"/>
</svg>
