<svg width="24" height="24" viewBox="0 0 24 24" fill="none" xmlns="http://www.w3.org/2000/svg">
<path d="M16 12.9999L16 13.9999C16 15.1045 15.1046 15.9999 14 15.9999M14 15.9999L13 15.9999M14 15.9999C14.5523 15.9999 15 16.4476 15 16.9999C15 18.1045 14.1046 18.9999 13 18.9999M13 18.9999L12 18.9999M13 18.9999C13.5235 18.9999 13.9217 19.47 13.8356 19.9863L13.7785 20.3287C13.6178 21.2931 12.7834 21.9999 11.8057 21.9999L10.3332 21.9995C8.15984 21.9995 7.07314 21.9995 6.208 21.6685C5.70614 21.4764 5.06612 20.9698 4.60362 20.5647C4.20359 20.2143 3.69618 19.9995 3.1644 19.9995L1.99983 19.9995M14 12.9997L20.5 12.9997C21.3284 12.9997 22 12.3281 22 11.4997C22 10.6713 21.3284 9.99972 20.5 9.99972L10.5376 9.99951L12.163 8.37921C12.8761 7.66828 12.8111 6.49723 12.0235 5.86916C11.4209 5.38859 10.5685 5.37531 9.95109 5.83689L5.35288 9.43658C4.47312 10.1253 3.11711 10.4995 1.99983 10.4995" stroke="#141B34" stroke-width="1.5" stroke-linecap="round" stroke-linejoin="round"/>
<path d="M22 4.5L16 4.5M22 4.5C22 3.79977 20.0057 2.49153 19.5 2M22 4.5C22 5.20023 20.0057 6.50847 19.5 7" stroke="#141B34" stroke-width="1.5" stroke-linecap="round" stroke-linejoin="round"/>
</svg>
