<svg width="24" height="24" viewBox="0 0 24 24" fill="none" xmlns="http://www.w3.org/2000/svg">
<path d="M14.001 3.49988C17.7722 3.49988 19.6578 3.49988 20.8294 4.74467C22.001 5.98947 22.001 7.99294 22.001 11.9999C22.001 16.0068 22.001 18.0103 20.8294 19.2551C19.6578 20.4999 17.7722 20.4999 14.001 20.4999L10.001 20.4999C6.22974 20.4999 4.34412 20.4999 3.17255 19.2551C2.00098 18.0103 2.00098 16.0068 2.00098 11.9999C2.00098 7.99294 2.00098 5.98947 3.17255 4.74467C4.34412 3.49988 6.22974 3.49988 10.001 3.49988L14.001 3.49988Z" stroke="#141B34" stroke-width="1.5" stroke-linejoin="round"/>
<path d="M5.00098 15.4999C6.60963 13.3625 10.3549 13.2458 12.001 15.4999M10.25 10.25C10.25 11.2165 9.4665 12 8.5 12C7.5335 12 6.75 11.2165 6.75 10.25C6.75 9.2835 7.5335 8.5 8.5 8.5C9.4665 8.5 10.25 9.2835 10.25 10.25Z" stroke="#141B34" stroke-width="1.5" stroke-linecap="round"/>
<path d="M15.001 9.49988L19.001 9.49988" stroke="#141B34" stroke-width="1.5" stroke-linecap="round"/>
<path d="M15.001 13.4999H17.001" stroke="#141B34" stroke-width="1.5" stroke-linecap="round"/>
</svg>
