<svg width="24" height="24" viewBox="0 0 24 24" fill="none" xmlns="http://www.w3.org/2000/svg">
<path d="M20 12.1817V7.81806C20 6.12482 20 5.2782 19.732 4.60202C19.3012 3.51498 18.3902 2.65753 17.2352 2.25208C16.5168 1.99988 15.6173 1.99988 13.8182 1.99988C10.6698 1.99988 9.09563 1.99988 7.83836 2.44123C5.81714 3.15076 4.22281 4.6513 3.46894 6.55363C3 7.73694 3 9.21853 3 12.1817V14.7272C3 17.7965 3 19.3312 3.8477 20.397C4.09058 20.7024 4.37862 20.9735 4.70307 21.202C5.74797 21.9382 7.21706 21.9951 10 21.9995" stroke="#141B34" stroke-width="1.5" stroke-linecap="round" stroke-linejoin="round"/>
<path d="M3 12C3 10.1591 4.49238 8.66667 6.33333 8.66667C6.99912 8.66667 7.78404 8.78333 8.43137 8.60988C9.00652 8.45576 9.45576 8.00652 9.60988 7.43136C9.78333 6.78404 9.66667 5.99912 9.66667 5.33333C9.66667 3.49238 11.1591 2 13 2" stroke="#141B34" stroke-width="1.5" stroke-linecap="round" stroke-linejoin="round"/>
<path d="M12 17L13.0228 17.5944C13.5374 15.7277 15.5114 14.6199 17.4318 15.1201C18.4149 15.3761 19.1934 16.0039 19.6501 16.806M21 20L19.9774 19.4056C19.4628 21.2723 17.4888 22.3801 15.5684 21.8799C14.6081 21.6298 13.8431 21.0251 13.3824 20.2496" stroke="#141B34" stroke-width="1.5" stroke-linecap="round" stroke-linejoin="round"/>
</svg>
