<svg width="24" height="24" viewBox="0 0 24 24" fill="none" xmlns="http://www.w3.org/2000/svg">
<path d="M3.5 13V12.1963C3.5 9.22892 3.5 7.74523 3.96894 6.56024C4.72281 4.65521 6.31714 3.15255 8.33836 2.44201C9.59563 2.00003 11.1698 2.00003 14.3182 2.00003C16.1173 2.00003 17.0168 2.00003 17.7352 2.25259C18.8902 2.65861 19.8012 3.51728 20.232 4.60587C20.5 5.283 20.5 6.13082 20.5 7.82646V12.0142V13" stroke="#141B34" stroke-width="1.5" stroke-linecap="round" stroke-linejoin="round"/>
<path d="M3.5 12C3.5 10.1591 4.99238 8.66667 6.83333 8.66667C7.49912 8.66667 8.28404 8.78333 8.93137 8.60988C9.50652 8.45576 9.95576 8.00652 10.1099 7.43136C10.2833 6.78404 10.1667 5.99912 10.1667 5.33333C10.1667 3.49238 11.6591 2 13.5 2" stroke="#141B34" stroke-width="1.5" stroke-linecap="round" stroke-linejoin="round"/>
<path d="M2.75 21.9998C2.75 22.414 3.08579 22.7498 3.5 22.7498C3.91421 22.7498 4.25 22.414 4.25 21.9998H2.75ZM17.0163 21.7069L17.5611 21.1914L17.5611 21.1914L17.0163 21.7069ZM20.2469 21.7069L19.7021 21.1914L20.2469 21.7069ZM17.0163 16.2927L17.5611 16.8081V16.8081L17.0163 16.2927ZM19.7532 17.0693C19.7916 17.4817 20.1571 17.7849 20.5695 17.7465C20.9819 17.7081 21.2852 17.3427 21.2468 16.9303L19.7532 17.0693ZM18.9982 18.7574C18.5881 18.8162 18.3035 19.1963 18.3623 19.6063C18.4211 20.0163 18.8012 20.301 19.2112 20.2422L18.9982 18.7574ZM14.4714 15.9998C14.4714 15.5856 14.1357 15.2498 13.7214 15.2498C13.3072 15.2498 12.9714 15.5856 12.9714 15.9998H14.4714ZM8.98156 21.9998C8.98156 22.414 9.31735 22.7498 9.73156 22.7498C10.1458 22.7498 10.4816 22.414 10.4816 21.9998H8.98156ZM12.625 20.6212L11.969 20.9847L12.625 20.6212ZM10.828 17.3784L10.172 17.7419L10.828 17.3784ZM13.5089 21.7553L13.7656 22.46H13.7656L13.5089 21.7553ZM9.94409 16.2442L10.2008 16.9489L9.94409 16.2442ZM4.65169 16.7498H5.41948V15.2498H4.65169V16.7498ZM4.25 21.9998V18.9998H2.75V21.9998H4.25ZM4.25 18.9998V17.1998H2.75V18.9998H4.25ZM5.41948 18.2498H3.5V19.7498H5.41948V18.2498ZM6.10909 17.4998C6.10909 17.9433 5.77159 18.2498 5.41948 18.2498V19.7498C6.65752 19.7498 7.60909 18.7131 7.60909 17.4998H6.10909ZM5.41948 16.7498C5.77159 16.7498 6.10909 17.0562 6.10909 17.4998H7.60909C7.60909 16.2865 6.65752 15.2498 5.41948 15.2498V16.7498ZM4.65169 15.2498C4.4023 15.2498 4.13669 15.2481 3.91578 15.279C3.67003 15.3134 3.37304 15.4004 3.12755 15.6562L4.20977 16.6948C4.17796 16.728 4.14142 16.7509 4.11256 16.7633C4.08983 16.773 4.08684 16.7697 4.12388 16.7645C4.16159 16.7592 4.21955 16.7547 4.31248 16.7523C4.40503 16.7498 4.51305 16.7498 4.65169 16.7498V15.2498ZM4.25 17.1998C4.25 17.0557 4.25005 16.9418 4.25242 16.844C4.25479 16.7457 4.25923 16.6815 4.26492 16.6374C4.27597 16.5517 4.28245 16.6191 4.20977 16.6948L3.12755 15.6562C2.88621 15.9077 2.80836 16.2044 2.77725 16.4454C2.74853 16.668 2.75 16.9373 2.75 17.1998H4.25ZM17.4891 19.9998V17.9998H15.9891V19.9998H17.4891ZM18.6316 21.2498C18.1631 21.2498 17.8915 21.248 17.6988 21.2206C17.612 21.2083 17.5728 21.1943 17.5592 21.1884C17.5534 21.1859 17.5531 21.1852 17.5558 21.187C17.5569 21.1878 17.5582 21.1888 17.5593 21.1898C17.5605 21.1908 17.5611 21.1914 17.5611 21.1914L16.4715 22.2223C16.7706 22.5385 17.1391 22.6561 17.4878 22.7057C17.8105 22.7515 18.2079 22.7498 18.6316 22.7498V21.2498ZM15.9891 19.9998C15.9891 20.4511 15.9877 20.861 16.0298 21.1917C16.0741 21.5399 16.1779 21.912 16.4715 22.2223L17.5611 21.1914C17.561 21.1914 17.5611 21.1914 17.5613 21.1916C17.5614 21.1918 17.5616 21.192 17.5618 21.1922C17.5622 21.1927 17.5623 21.193 17.5622 21.1928C17.562 21.1926 17.5593 21.1882 17.555 21.1771C17.5454 21.1525 17.5304 21.1012 17.5178 21.0024C17.4906 20.7884 17.4891 20.4913 17.4891 19.9998H15.9891ZM19.774 19.9998C19.774 20.4913 19.7726 20.7884 19.7454 21.0024C19.7328 21.1012 19.7177 21.1525 19.7082 21.1771C19.7038 21.1882 19.7011 21.1926 19.701 21.1928C19.7008 21.193 19.701 21.1927 19.7014 21.1922C19.7016 21.192 19.7017 21.1918 19.7019 21.1916C19.702 21.1914 19.7021 21.1914 19.7021 21.1914L20.7916 22.2223C21.0853 21.9121 21.1891 21.5399 21.2334 21.1917C21.2754 20.861 21.274 20.4511 21.274 19.9998H19.774ZM18.6316 22.7498C19.0553 22.7498 19.4527 22.7515 19.7753 22.7057C20.124 22.6561 20.4925 22.5385 20.7916 22.2223L19.7021 21.1914C19.7021 21.1914 19.7027 21.1908 19.7038 21.1898C19.705 21.1888 19.7062 21.1878 19.7074 21.187C19.7101 21.1852 19.7097 21.1859 19.704 21.1884C19.6903 21.1943 19.6512 21.2083 19.5643 21.2206C19.3716 21.248 19.1 21.2498 18.6316 21.2498V22.7498ZM18.6316 15.2498C18.2079 15.2498 17.8105 15.248 17.4878 15.2938C17.1391 15.3434 16.7706 15.461 16.4715 15.7772L17.5611 16.8081C17.5611 16.8081 17.5605 16.8088 17.5593 16.8097C17.5582 16.8107 17.5569 16.8117 17.5558 16.8125C17.5531 16.8143 17.5534 16.8136 17.5592 16.8111C17.5728 16.8052 17.612 16.7913 17.6988 16.7789C17.8915 16.7515 18.1631 16.7498 18.6316 16.7498V15.2498ZM17.4891 17.9998C17.4891 17.5083 17.4906 17.2111 17.5178 16.9971C17.5304 16.8983 17.5454 16.847 17.555 16.8224C17.5593 16.8113 17.562 16.807 17.5622 16.8067C17.5623 16.8065 17.5622 16.8068 17.5618 16.8073C17.5616 16.8075 17.5614 16.8077 17.5613 16.8079C17.5611 16.8081 17.561 16.8082 17.5611 16.8081L16.4715 15.7772C16.1779 16.0875 16.0741 16.4596 16.0298 16.8078C15.9877 17.1385 15.9891 17.5484 15.9891 17.9998H17.4891ZM21.274 19.9998C21.274 19.5099 21.0002 19.1689 20.6882 18.9817C20.4164 18.8186 20.1107 18.7627 19.8922 18.7399C19.6591 18.7156 19.4371 18.7208 19.2809 18.7303C19.2009 18.7352 19.1336 18.7415 19.0851 18.7467C19.0607 18.7494 19.0408 18.7518 19.0262 18.7536C19.0188 18.7546 19.0127 18.7554 19.0081 18.756C19.0057 18.7563 19.0037 18.7566 19.0021 18.7568C19.0012 18.7569 19.0005 18.757 18.9998 18.7571C18.9995 18.7572 18.9992 18.7572 18.9989 18.7573C18.9988 18.7573 18.9986 18.7573 18.9985 18.7573C18.9983 18.7573 18.9982 18.7574 19.1047 19.4998C19.2112 20.2422 19.211 20.2422 19.2109 20.2422C19.2108 20.2422 19.2107 20.2422 19.2106 20.2422C19.2104 20.2423 19.2102 20.2423 19.21 20.2423C19.2097 20.2424 19.2095 20.2424 19.2094 20.2424C19.2091 20.2425 19.2091 20.2425 19.2095 20.2424C19.2101 20.2423 19.212 20.2421 19.2151 20.2417C19.2212 20.2409 19.2318 20.2396 19.2463 20.238C19.2753 20.2349 19.319 20.2308 19.372 20.2275C19.482 20.2209 19.6148 20.2191 19.7365 20.2318C19.8728 20.2461 19.922 20.2713 19.9163 20.2679C19.9056 20.2614 19.8651 20.2344 19.828 20.1752C19.7875 20.1108 19.774 20.0448 19.774 19.9998H21.274ZM12.9714 15.9998V20.2218H14.4714V15.9998H12.9714ZM10.4816 21.9998V17.7778H8.98156V21.9998H10.4816ZM13.281 20.2576L11.484 17.0149L10.172 17.7419L11.969 20.9847L13.281 20.2576ZM12.9714 20.2218C12.9714 20.7265 12.9704 21.0418 12.949 21.2451C12.9382 21.348 12.9273 21.3602 12.9397 21.3305C12.9562 21.2911 13.0381 21.1286 13.2522 21.0506L13.7656 22.46C14.086 22.3433 14.2476 22.0912 14.3239 21.9086C14.396 21.7358 14.425 21.5515 14.4408 21.4021C14.4725 21.1006 14.4714 20.6878 14.4714 20.2218H12.9714ZM11.969 20.9847C12.182 21.369 12.3755 21.721 12.5465 21.9585C12.6298 22.0742 12.753 22.2287 12.9205 22.3433C13.116 22.4771 13.4227 22.5849 13.7656 22.46L13.2522 21.0506C13.3517 21.0144 13.4621 21.0049 13.5688 21.0252C13.6678 21.0441 13.7351 21.0831 13.7677 21.1054C13.8195 21.1409 13.8188 21.1584 13.7637 21.0819C13.6578 20.9348 13.5156 20.6811 13.281 20.2576L11.969 20.9847ZM10.4816 17.7778C10.4816 17.273 10.4826 16.9578 10.504 16.7545C10.5148 16.6516 10.5257 16.6394 10.5133 16.669C10.4968 16.7085 10.4149 16.8709 10.2008 16.9489L9.6874 15.5395C9.36698 15.6562 9.20542 15.9084 9.12916 16.091C9.057 16.2637 9.02798 16.4481 9.01225 16.5975C8.98052 16.8989 8.98156 17.3118 8.98156 17.7778H10.4816ZM11.484 17.0149C11.2711 16.6306 11.0775 16.2785 10.9065 16.0411C10.8232 15.9254 10.7 15.7709 10.5325 15.6563C10.337 15.5225 10.0303 15.4146 9.6874 15.5395L10.2008 16.9489C10.1014 16.9852 9.99091 16.9947 9.88425 16.9743C9.78521 16.9555 9.71791 16.9164 9.68536 16.8941C9.63353 16.8587 9.63417 16.8411 9.68931 16.9177C9.79522 17.0648 9.93737 17.3185 10.172 17.7419L11.484 17.0149ZM18.6316 16.7498C18.8645 16.7498 19.054 16.7474 19.2343 16.758C19.413 16.7686 19.5323 16.79 19.6117 16.8174C19.6821 16.8418 19.6964 16.8621 19.699 16.8654C19.7025 16.8699 19.739 16.9163 19.7532 17.0693L21.2468 16.9303C21.2125 16.5617 21.1003 16.2224 20.8808 15.9416C20.6604 15.6596 20.3775 15.4951 20.1021 15.3998C19.6074 15.2287 19.0076 15.2498 18.6316 15.2498V16.7498Z" fill="#141B34"/>
</svg>
