<svg width="24" height="24" viewBox="0 0 24 24" fill="none" xmlns="http://www.w3.org/2000/svg">
<path d="M9.54297 14.4569L14.456 9.54395" stroke="#141B34" stroke-width="1.5" stroke-linecap="round"/>
<path d="M2.03177 16.9042L1.291 17.0215L1.291 17.0215L2.03177 16.9042ZM2.03177 16.0968L1.291 15.9795L2.03177 16.0968ZM7.90368 21.9687L8.021 22.7095H8.02101L7.90368 21.9687ZM7.09632 21.9687L7.21365 21.228H7.21365L7.09632 21.9687ZM12.9682 16.9042L13.709 17.0215V17.0215L12.9682 16.9042ZM12.9682 16.0968L13.709 15.9795L13.709 15.9795L12.9682 16.0968ZM7.09632 11.0323L7.21365 11.773L7.21365 11.773L7.09632 11.0323ZM7.90368 11.0323L8.02101 10.2915L8.021 10.2915L7.90368 11.0323ZM8.45293 12.0791C8.79149 12.3178 9.2594 12.2367 9.49804 11.8982C9.73668 11.5596 9.65568 11.0917 9.31711 10.8531L8.45293 12.0791ZM13.1474 14.6834C12.9088 14.3448 12.4409 14.2638 12.1023 14.5024C11.7637 14.7411 11.6827 15.209 11.9214 15.5476L13.1474 14.6834ZM4.74589 19.2546C4.04987 18.5586 3.57118 18.0784 3.24406 17.6718C2.9258 17.2762 2.80928 17.0188 2.77254 16.7868L1.291 17.0215C1.38543 17.6177 1.67659 18.1164 2.07533 18.6121C2.46521 19.0967 3.01284 19.6429 3.68523 20.3153L4.74589 19.2546ZM3.68523 12.6857C3.01284 13.3581 2.46521 13.9043 2.07533 14.3889C1.67659 14.8845 1.38543 15.3833 1.291 15.9795L2.77254 16.2141C2.80928 15.9822 2.9258 15.7248 3.24406 15.3292C3.57118 14.9225 4.04987 14.4424 4.74589 13.7464L3.68523 12.6857ZM2.77254 16.7868C2.74249 16.5971 2.74249 16.4039 2.77254 16.2141L1.291 15.9795C1.23633 16.3247 1.23633 16.6763 1.291 17.0215L2.77254 16.7868ZM10.2541 19.2546C9.55809 19.9506 9.07794 20.4293 8.67133 20.7564C8.27572 21.0747 8.01832 21.1912 7.78635 21.228L8.02101 22.7095C8.61717 22.6151 9.11594 22.3239 9.61157 21.9252C10.0962 21.5353 10.6424 20.9877 11.3148 20.3153L10.2541 19.2546ZM3.68523 20.3153C4.35763 20.9877 4.9038 21.5353 5.38843 21.9252C5.88406 22.3239 6.38283 22.6151 6.979 22.7095L7.21365 21.228C6.98168 21.1912 6.72428 21.0747 6.32867 20.7564C5.92206 20.4293 5.44191 19.9506 4.74589 19.2546L3.68523 20.3153ZM7.78635 21.228C7.59664 21.258 7.40337 21.258 7.21365 21.228L6.97899 22.7095C7.32418 22.7642 7.67582 22.7642 8.021 22.7095L7.78635 21.228ZM11.3148 20.3153C11.9872 19.6429 12.5348 19.0967 12.9247 18.6121C13.3234 18.1164 13.6146 17.6177 13.709 17.0215L12.2275 16.7868C12.1907 17.0188 12.0742 17.2762 11.7559 17.6718C11.4288 18.0784 10.9501 18.5586 10.2541 19.2546L11.3148 20.3153ZM12.2275 16.2141C12.2575 16.4039 12.2575 16.5971 12.2275 16.7868L13.709 17.0215C13.7637 16.6763 13.7637 16.3247 13.709 15.9795L12.2275 16.2141ZM4.74589 13.7464C5.44191 13.0504 5.92206 12.5717 6.32867 12.2446C6.72428 11.9263 6.98168 11.8098 7.21365 11.773L6.979 10.2915C6.38283 10.3859 5.88406 10.6771 5.38843 11.0758C4.9038 11.4657 4.35763 12.0133 3.68523 12.6857L4.74589 13.7464ZM8.021 10.2915C7.67582 10.2368 7.32418 10.2368 6.97899 10.2915L7.21365 11.773C7.40337 11.743 7.59663 11.743 7.78636 11.773L8.021 10.2915ZM9.31711 10.8531C8.91432 10.5692 8.49872 10.3672 8.02101 10.2915L7.78635 11.773C7.97354 11.8027 8.17645 11.8842 8.45293 12.0791L9.31711 10.8531ZM11.9214 15.5476C12.1163 15.824 12.1978 16.0269 12.2275 16.2141L13.709 15.9795C13.6333 15.5018 13.4313 15.0862 13.1474 14.6834L11.9214 15.5476Z" fill="#141B34"/>
<path d="M11.0318 7.09681L10.291 6.97948V6.97948L11.0318 7.09681ZM11.0318 7.90417L10.291 8.02149L10.291 8.02149L11.0318 7.90417ZM16.9037 12.9687L17.021 13.7095H17.021L16.9037 12.9687ZM16.0963 12.9687L16.2136 12.228H16.2136L16.0963 12.9687ZM21.9682 7.09681L22.709 6.97949V6.97948L21.9682 7.09681ZM21.9682 7.90417L22.709 8.02149V8.02149L21.9682 7.90417ZM16.9037 2.03226L17.021 1.29149L17.021 1.29149L16.9037 2.03226ZM16.0963 2.03226L16.2136 2.77302V2.77302L16.0963 2.03226ZM10.8526 9.3176C11.0912 9.65616 11.5591 9.73717 11.8977 9.49853C12.2363 9.25989 12.3173 8.79198 12.0786 8.45342L10.8526 9.3176ZM15.5471 11.9219C15.2085 11.6832 14.7406 11.7642 14.502 12.1028C14.2633 12.4414 14.3443 12.9093 14.6829 13.1479L15.5471 11.9219ZM12.6852 3.68572C12.0128 4.35812 11.4652 4.90428 11.0753 5.38892C10.6766 5.88455 10.3854 6.38332 10.291 6.97948L11.7725 7.21414C11.8093 6.98217 11.9258 6.72477 12.2441 6.32916C12.5712 5.92255 13.0499 5.4424 13.7459 4.74638L12.6852 3.68572ZM11.7725 7.78684C11.7425 7.59712 11.7425 7.40385 11.7725 7.21414L10.291 6.97948C10.2363 7.32467 10.2363 7.67631 10.291 8.02149L11.7725 7.78684ZM19.2541 10.2546C18.5581 10.9506 18.0779 11.4293 17.6713 11.7564C17.2757 12.0747 17.0183 12.1912 16.7864 12.228L17.021 13.7095C17.6172 13.6151 18.1159 13.3239 18.6116 12.9252C19.0962 12.5353 19.6424 11.9877 20.3148 11.3153L19.2541 10.2546ZM16.7864 12.228C16.5966 12.258 16.4034 12.258 16.2136 12.228L15.979 13.7095C16.3242 13.7642 16.6758 13.7642 17.021 13.7095L16.7864 12.228ZM19.2541 4.74638C19.9501 5.4424 20.4288 5.92255 20.7559 6.32916C21.0742 6.72477 21.1907 6.98217 21.2275 7.21414L22.709 6.97948C22.6146 6.38332 22.3234 5.88455 21.9247 5.38892C21.5348 4.90428 20.9872 4.35812 20.3148 3.68572L19.2541 4.74638ZM20.3148 11.3153C20.9872 10.6429 21.5348 10.0967 21.9247 9.61206C22.3234 9.11643 22.6146 8.61766 22.709 8.02149L21.2275 7.78684C21.1907 8.01881 21.0742 8.27621 20.7559 8.67182C20.4288 9.07843 19.9501 9.55858 19.2541 10.2546L20.3148 11.3153ZM21.2275 7.21413C21.2575 7.40386 21.2575 7.59712 21.2275 7.78684L22.709 8.02149C22.7637 7.67631 22.7637 7.32467 22.709 6.97949L21.2275 7.21413ZM20.3148 3.68572C19.6424 3.01332 19.0962 2.4657 18.6116 2.07582C18.1159 1.67708 17.6172 1.38592 17.021 1.29149L16.7864 2.77302C17.0183 2.80976 17.2757 2.92629 17.6713 3.24455C18.0779 3.57167 18.5581 4.05036 19.2541 4.74638L20.3148 3.68572ZM13.7459 4.74638C14.4419 4.05036 14.9221 3.57167 15.3287 3.24455C15.7243 2.92628 15.9817 2.80976 16.2136 2.77302L15.979 1.29149C15.3828 1.38592 14.8841 1.67708 14.3884 2.07582C13.9038 2.4657 13.3576 3.01332 12.6852 3.68572L13.7459 4.74638ZM17.021 1.29149C16.6758 1.23682 16.3242 1.23682 15.979 1.29149L16.2136 2.77302C16.4034 2.74298 16.5966 2.74298 16.7864 2.77303L17.021 1.29149ZM12.0786 8.45342C11.8837 8.17694 11.8022 7.97403 11.7725 7.78684L10.291 8.02149C10.3667 8.4992 10.5687 8.9148 10.8526 9.3176L12.0786 8.45342ZM14.6829 13.1479C15.0857 13.4318 15.5013 13.6338 15.979 13.7095L16.2136 12.228C16.0265 12.1983 15.8236 12.1167 15.5471 11.9219L14.6829 13.1479Z" fill="#141B34"/>
<path d="M21 16H19M16 21V19" stroke="#141B34" stroke-width="1.5" stroke-linecap="round" stroke-linejoin="round"/>
<path d="M3 8H5M8 3V5" stroke="#141B34" stroke-width="1.5" stroke-linecap="round" stroke-linejoin="round"/>
</svg>
