<svg width="24" height="24" viewBox="0 0 24 24" fill="none" xmlns="http://www.w3.org/2000/svg">
<path d="M17.2624 10.2457L19.0165 8.49161C19.4244 8.08379 19.6283 7.87988 19.7507 7.66775C20.0831 7.0921 20.0831 6.38287 19.7507 5.80721C19.6283 5.59508 19.4244 5.39117 19.0165 4.98335C18.6087 4.57553 18.4048 4.37162 18.1927 4.24914C17.617 3.91679 16.9078 3.91679 16.3321 4.24914C16.12 4.37162 15.9161 4.57553 15.5083 4.98335L13.7541 6.73748C12.9272 7.56439 12.5138 7.97784 12 7.97784C11.4862 7.97784 11.0728 7.56439 10.2459 6.73748L8.49174 4.98335C8.08391 4.57553 7.88 4.37161 7.66787 4.24914C7.09222 3.91679 6.38299 3.91679 5.80734 4.24914C5.59521 4.37161 5.3913 4.57553 4.98347 4.98335C4.57565 5.39117 4.37174 5.59509 4.24927 5.80721C3.91691 6.38287 3.91691 7.0921 4.24926 7.66775C4.37174 7.87988 4.57565 8.08379 4.98347 8.49161L6.7376 10.2457C7.56451 11.0727 7.97796 11.4861 7.97796 11.9999C7.97796 12.5137 7.56451 12.9271 6.7376 13.754L4.98347 15.5081C4.57565 15.916 4.37174 16.1199 4.24926 16.332C3.91691 16.9077 3.91691 17.6169 4.24926 18.1925C4.37174 18.4047 4.57565 18.6086 4.98347 19.0164C5.3913 19.4242 5.59521 19.6281 5.80733 19.7506C6.38299 20.083 7.09222 20.083 7.66787 19.7506C7.88 19.6281 8.08391 19.4242 8.49174 19.0164L10.2459 17.2623C11.0728 16.4354 11.4862 16.0219 12 16.0219C12.5138 16.0219 12.9272 16.4354 13.7541 17.2623L15.5083 19.0164C15.9161 19.4242 16.12 19.6281 16.3321 19.7506C16.9078 20.083 17.617 20.083 18.1927 19.7506C18.4048 19.6281 18.6087 19.4242 19.0165 19.0164C19.4244 18.6086 19.6283 18.4047 19.7507 18.1925C20.0831 17.6169 20.0831 16.9077 19.7507 16.332C19.6283 16.1199 19.4244 15.916 19.0165 15.5081L17.2624 13.754C16.4355 12.9271 16.022 12.5137 16.022 11.9999C16.022 11.4861 16.4355 11.0727 17.2624 10.2457Z" stroke="#141B34" stroke-width="1.5" stroke-linecap="round" stroke-linejoin="round"/>
</svg>
