<svg width="24" height="24" viewBox="0 0 24 24" fill="none" xmlns="http://www.w3.org/2000/svg">
<path d="M2 20.2499C1.58579 20.2499 1.25 20.5857 1.25 20.9999C1.25 21.4141 1.58579 21.7499 2 21.7499V20.2499ZM22 21.7499C22.4142 21.7499 22.75 21.4141 22.75 20.9999C22.75 20.5857 22.4142 20.2499 22 20.2499V21.7499ZM15.1464 20.8534L14.6161 21.3838L14.6161 21.3838L15.1464 20.8534ZM2 21.7499H8V20.2499H2V21.7499ZM16 21.7499H22V20.2499H16V21.7499ZM9.75 19.9999V17.9999H8.25V19.9999H9.75ZM14.25 17.9999V19.9999H15.75V17.9999H14.25ZM12 15.7499C13.2426 15.7499 14.25 16.7572 14.25 17.9999H15.75C15.75 15.9288 14.0711 14.2499 12 14.2499V15.7499ZM9.75 17.9999C9.75 16.7572 10.7574 15.7499 12 15.7499V14.2499C9.92893 14.2499 8.25 15.9288 8.25 17.9999H9.75ZM16 20.2499C15.8794 20.2499 15.7865 20.2498 15.7073 20.2478C15.6276 20.2458 15.5803 20.2422 15.5513 20.2383C15.5228 20.2344 15.5324 20.2329 15.5607 20.2445C15.5949 20.2586 15.6379 20.2843 15.6768 20.3231L14.6161 21.3838C14.8519 21.6196 15.1321 21.6954 15.3514 21.7249C15.5492 21.7515 15.7855 21.7499 16 21.7499V20.2499ZM14.25 19.9999C14.25 20.2144 14.2484 20.4507 14.275 20.6484C14.3045 20.8678 14.3803 21.148 14.6161 21.3838L15.6768 20.3231C15.7156 20.3619 15.7413 20.405 15.7554 20.4392C15.767 20.4675 15.7654 20.4771 15.7616 20.4486C15.7577 20.4196 15.7541 20.3723 15.752 20.2926C15.75 20.2133 15.75 20.1205 15.75 19.9999H14.25ZM8 21.7499C8.2145 21.7499 8.45082 21.7515 8.64857 21.7249C8.8679 21.6954 9.14808 21.6196 9.38388 21.3838L8.32322 20.3231C8.36207 20.2843 8.40508 20.2586 8.43934 20.2445C8.46762 20.2329 8.47718 20.2344 8.4487 20.2383C8.41974 20.2422 8.37238 20.2458 8.29273 20.2478C8.21346 20.2498 8.12064 20.2499 8 20.2499V21.7499ZM8.25 19.9999C8.25 20.1205 8.24995 20.2133 8.24795 20.2926C8.24594 20.3723 8.24228 20.4196 8.23838 20.4486C8.23455 20.4771 8.23299 20.4675 8.24462 20.4392C8.25872 20.405 8.28438 20.3619 8.32322 20.3231L9.38388 21.3838C9.61968 21.148 9.69552 20.8678 9.72501 20.6484C9.75159 20.4507 9.75 20.2144 9.75 19.9999H8.25Z" fill="#141B34"/>
<path d="M3 21V3.99991C3 3.52853 3 3.29283 3.14644 3.14639C3.29288 2.99994 3.52857 2.99993 3.99995 2.99991L4.68767 2.99988C4.98767 2.99986 5.00299 3.01183 5.07575 3.30286L5.42425 4.69688C5.49701 4.9879 5.51233 4.99986 5.81231 4.99986H7.18769C7.48767 4.99986 7.50299 4.9879 7.57575 4.69688L7.92425 3.30294C7.99701 3.01192 8.01233 2.99996 8.31231 2.99996L9 2.99996C9.4714 2.99996 9.70711 2.99996 9.85355 3.1464C10 3.29285 10 3.52855 10 3.99996V7.99996C10 8.47136 10 8.70706 10.1464 8.85351C10.2929 8.99996 10.5286 8.99996 11 8.99996H13C13.4714 8.99996 13.7071 8.99996 13.8536 8.85351C14 8.70706 14 8.47136 14 7.99996V3.99996C14 3.52855 14 3.29285 14.1464 3.1464C14.2929 2.99996 14.5286 2.99996 15 2.99996L15.6877 2.99996C15.9877 2.99996 16.003 3.01192 16.0757 3.30294L16.4243 4.69688C16.497 4.9879 16.5123 4.99986 16.8123 4.99986H18.1877C18.4877 4.99986 18.503 4.9879 18.5757 4.69688L18.9242 3.30286C18.997 3.01183 19.0123 2.99986 19.3123 2.99988L20 2.99991C20.4714 2.99993 20.7071 2.99994 20.8536 3.14639C21 3.29283 21 3.52853 21 3.99991V21" stroke="#141B34" stroke-width="1.5" stroke-linecap="round" stroke-linejoin="round"/>
<path d="M7 8.99988H6" stroke="#141B34" stroke-width="1.5" stroke-linecap="round" stroke-linejoin="round"/>
<path d="M12.5 11.9999H11.5" stroke="#141B34" stroke-width="1.5" stroke-linecap="round" stroke-linejoin="round"/>
<path d="M18 8.99988H17" stroke="#141B34" stroke-width="1.5" stroke-linecap="round" stroke-linejoin="round"/>
</svg>
