<svg width="24" height="24" viewBox="0 0 24 24" fill="none" xmlns="http://www.w3.org/2000/svg">
<path d="M11.7145 9.26032C11.4206 8.96839 10.9457 8.96996 10.6538 9.26381C10.3619 9.55767 10.3635 10.0325 10.6573 10.3245L11.7145 9.26032ZM13.634 13.2816C13.9279 13.5735 14.4027 13.572 14.6947 13.2781C14.9866 12.9843 14.985 12.5094 14.6912 12.2175L13.634 13.2816ZM3 20.8817L2.31135 20.5846C2.22163 20.7926 2.2307 21.03 2.33604 21.2305C2.44137 21.431 2.63168 21.5732 2.85384 21.6173L3 20.8817ZM9.40235 16.0319C9.07875 16.2905 9.02603 16.7624 9.28459 17.086C9.54315 17.4096 10.0151 17.4623 10.3387 17.2038L9.40235 16.0319ZM6.70915 13.5844C6.44851 13.9063 6.4982 14.3786 6.82013 14.6392C7.14207 14.8998 7.61433 14.8501 7.87497 14.5282L6.70915 13.5844ZM10.6573 10.3245L13.634 13.2816L14.6912 12.2175L11.7145 9.26032L10.6573 10.3245ZM8.4248 18.8711C7.4879 19.8018 6.20582 20.1405 5.08235 20.2263C4.52855 20.2686 4.03652 20.2475 3.68373 20.2156C3.50797 20.1997 3.36851 20.1814 3.27528 20.1674C3.2287 20.1604 3.19381 20.1546 3.17184 20.1507C3.16086 20.1488 3.15312 20.1474 3.14879 20.1466C3.14662 20.1462 3.1453 20.1459 3.14486 20.1458C3.14464 20.1458 3.14463 20.1458 3.14485 20.1458C3.14496 20.1459 3.14512 20.1459 3.14534 20.1459C3.14545 20.146 3.14565 20.146 3.14571 20.146C3.14593 20.146 3.14616 20.1461 3 20.8817C2.85384 21.6173 2.8541 21.6174 2.85438 21.6174C2.85449 21.6175 2.85478 21.6175 2.855 21.6176C2.85545 21.6177 2.85595 21.6178 2.85651 21.6179C2.85763 21.6181 2.85898 21.6183 2.86055 21.6186C2.8637 21.6193 2.86775 21.62 2.8727 21.621C2.88258 21.6228 2.89601 21.6253 2.91282 21.6282C2.94645 21.6341 2.99367 21.642 3.05321 21.6509C3.17218 21.6687 3.34085 21.6908 3.54881 21.7095C3.96344 21.747 4.54116 21.772 5.19664 21.7219C6.49173 21.623 8.18634 21.2223 9.48196 19.9352L8.4248 18.8711ZM3.68865 21.1788C4.32096 19.7131 4.21511 18.5217 4.21511 17.6473C4.21511 17.2041 4.23926 16.8598 4.34265 16.5346C4.44189 16.2224 4.62842 15.8854 5.01693 15.4995L3.95976 14.4353C3.41805 14.9735 3.09297 15.5144 2.91314 16.0802C2.73746 16.6328 2.71511 17.1665 2.71511 17.6473C2.71511 18.6212 2.7953 19.4628 2.31135 20.5846L3.68865 21.1788ZM5.01693 15.4995C5.95742 14.5652 7.4843 14.5652 8.4248 15.4995L9.48196 14.4353C7.95649 12.9199 5.48524 12.9199 3.95976 14.4353L5.01693 15.4995ZM8.4248 15.4995C9.36256 16.4311 9.36256 17.9395 8.4248 18.8711L9.48196 19.9352C11.0102 18.417 11.0102 15.9535 9.48196 14.4353L8.4248 15.4995ZM11.9625 10.078C14.1319 7.92287 16.2473 6.14964 17.9044 5.02327C18.7381 4.45659 19.4245 4.0753 19.9254 3.88337C20.1785 3.7864 20.3425 3.75424 20.4315 3.75038C20.5229 3.74642 20.435 3.77361 20.3316 3.67095L21.3888 2.6068C21.0799 2.29997 20.6804 2.23818 20.3665 2.25179C20.0501 2.26551 19.7154 2.35749 19.3887 2.48267C18.7301 2.73501 17.9333 3.18993 17.0612 3.78271C15.3067 4.97525 13.1199 6.81388 10.9054 9.01389L11.9625 10.078ZM20.3316 3.67095C20.2272 3.56719 20.2535 3.47666 20.2496 3.56415C20.2458 3.65027 20.214 3.81174 20.1166 4.06269C19.9238 4.55925 19.5405 5.24052 18.9701 6.06871C17.8365 7.71466 16.0516 9.81599 13.8822 11.9712L14.9394 13.0353C17.1539 10.8354 19.0048 8.66281 20.2054 6.91952C20.8021 6.05309 21.2605 5.2609 21.5149 4.60557C21.6411 4.28058 21.7343 3.9465 21.7482 3.63001C21.762 3.3149 21.6987 2.91472 21.3888 2.6068L20.3316 3.67095ZM13.8822 11.9712C12.4484 13.3956 10.6689 15.0199 9.40235 16.0319L10.3387 17.2038C11.6606 16.1476 13.4815 14.4836 14.9394 13.0353L13.8822 11.9712ZM7.87497 14.5282C8.8935 13.2702 10.5287 11.5025 11.9625 10.078L10.9054 9.01389C9.44756 10.4621 7.77244 12.271 6.70915 13.5844L7.87497 14.5282Z" fill="#141B34"/>
</svg>
