<svg width="24" height="24" viewBox="0 0 24 24" fill="none" xmlns="http://www.w3.org/2000/svg">
<path d="M15 9V15H9V9H15Z" stroke="#141B34" stroke-width="1.5" stroke-linejoin="round"/>
<path d="M15 15H18C19.6569 15 21 16.3431 21 18C21 19.6569 19.6569 21 18 21C16.3431 21 15 19.6569 15 18V15Z" stroke="#141B34" stroke-width="1.5" stroke-linejoin="round"/>
<path d="M9 15.002H6C4.34315 15.002 3 16.3451 3 18.002C3 19.6588 4.34315 21.002 6 21.002C7.65685 21.002 9 19.6588 9 18.002V15.002Z" stroke="#141B34" stroke-width="1.5" stroke-linejoin="round"/>
<path d="M15 9.00024L15 6.00024C15 4.34339 16.3431 3.00024 18 3.00024C19.6569 3.00024 21 4.34339 21 6.00024C21 7.6571 19.6569 9.00024 18 9.00024H15Z" stroke="#141B34" stroke-width="1.5" stroke-linejoin="round"/>
<path d="M9 9.00024V6.00024C9 4.34339 7.65685 3.00024 6 3.00024C4.34315 3.00024 3 4.34339 3 6.00024C3 7.6571 4.34315 9.00024 6 9.00024H9Z" stroke="#141B34" stroke-width="1.5" stroke-linejoin="round"/>
</svg>
