<svg width="24" height="24" viewBox="0 0 24 24" fill="none" xmlns="http://www.w3.org/2000/svg">
<path d="M11.0303 9.96991C11.3232 10.2628 11.3232 10.7377 11.0303 11.0306C10.7374 11.3235 10.2626 11.3235 9.96967 11.0306L11.0303 9.96991ZM2.46967 3.53057C2.17678 3.23768 2.17678 2.76281 2.46967 2.46991C2.76256 2.17702 3.23744 2.17702 3.53033 2.46991L2.46967 3.53057ZM3.53033 2.46991L11.0303 9.96991L9.96967 11.0306L2.46967 3.53057L3.53033 2.46991Z" fill="#141B34"/>
<path d="M12.9697 14.0306C12.6768 13.7377 12.6768 13.2628 12.9697 12.9699C13.2626 12.677 13.7374 12.677 14.0303 12.9699L12.9697 14.0306ZM21.5303 20.4699C21.8232 20.7628 21.8232 21.2377 21.5303 21.5306C21.2374 21.8235 20.7626 21.8235 20.4697 21.5306L21.5303 20.4699ZM14.0303 12.9699L21.5303 20.4699L20.4697 21.5306L12.9697 14.0306L14.0303 12.9699Z" fill="#141B34"/>
<path d="M6.5 10.734C7.34441 10.746 10.1409 11.327 10.7338 10.734C11.3267 10.1411 10.7458 7.34466 10.7338 6.50024" stroke="#141B34" stroke-width="1.5" stroke-linecap="round" stroke-linejoin="round"/>
<path d="M13.2662 17.5002C13.2542 16.6558 12.6733 13.8594 13.2662 13.2665C13.8591 12.6735 16.6556 13.2545 17.5 13.2665" stroke="#141B34" stroke-width="1.5" stroke-linecap="round" stroke-linejoin="round"/>
</svg>
