<svg width="24" height="24" viewBox="0 0 24 24" fill="none" xmlns="http://www.w3.org/2000/svg">
<path d="M11.2499 8.99976C11.2499 9.41397 11.5857 9.74976 11.9999 9.74976C12.4142 9.74976 12.7499 9.41397 12.7499 8.99976H11.2499ZM14.3961 6.44461C14.6417 6.77813 15.1112 6.84938 15.4448 6.60375C15.7783 6.35812 15.8495 5.88862 15.6039 5.5551L14.3961 6.44461ZM8.39609 5.55514C8.15047 5.88867 8.22173 6.35816 8.55526 6.60379C8.88879 6.84941 9.35829 6.77815 9.60391 6.44462L8.39609 5.55514ZM12.7499 8.99976V2.99976H11.2499V8.99976H12.7499ZM11.9999 3.74976C11.8899 3.74975 11.866 3.70909 11.9686 3.77098C12.0507 3.82045 12.1638 3.90529 12.3056 4.03056C12.5874 4.27956 12.9126 4.62587 13.2301 4.99151C13.5443 5.35342 13.8366 5.71753 14.0512 5.99251C14.1581 6.1296 14.2451 6.24362 14.305 6.32297C14.335 6.36262 14.3581 6.39356 14.3736 6.41433C14.3814 6.42472 14.3872 6.43255 14.391 6.43766C14.3929 6.44022 14.3942 6.44209 14.3951 6.44325C14.3955 6.44384 14.3958 6.44424 14.396 6.44447C14.3961 6.44458 14.3961 6.44465 14.3962 6.44467C14.3962 6.44469 14.3961 6.44467 14.3962 6.44468C14.3961 6.44465 14.3961 6.44461 15 5.99985C15.6039 5.5551 15.6039 5.55504 15.6038 5.55496C15.6038 5.55492 15.6037 5.55484 15.6036 5.55476C15.6035 5.5546 15.6034 5.55439 15.6032 5.55414C15.6028 5.55365 15.6023 5.55296 15.6017 5.5521C15.6004 5.55039 15.5986 5.54795 15.5963 5.54483C15.5917 5.53859 15.585 5.52958 15.5764 5.51799C15.5591 5.49481 15.534 5.4613 15.502 5.41892C15.438 5.3342 15.3462 5.21384 15.2337 5.06967C15.0093 4.78213 14.6997 4.39622 14.3628 4.0081C14.029 3.62372 13.6536 3.22 13.2988 2.90649C13.1223 2.75049 12.9331 2.60096 12.7431 2.48636C12.5736 2.38417 12.3076 2.24976 12 2.24976L11.9999 3.74976ZM9 5.99988C9.60391 6.44462 9.60388 6.44465 9.60386 6.44468C9.60387 6.44468 9.60385 6.44469 9.60386 6.44468C9.60388 6.44466 9.60393 6.44459 9.60401 6.44447C9.60418 6.44425 9.60448 6.44384 9.60491 6.44326C9.60577 6.44209 9.60716 6.44022 9.60905 6.43767C9.61283 6.43256 9.61865 6.42472 9.62638 6.41434C9.64186 6.39357 9.66502 6.36263 9.69497 6.32297C9.75489 6.24363 9.84186 6.1296 9.94885 5.99251C10.1634 5.71753 10.4556 5.35342 10.7699 4.9915C11.0873 4.62586 11.4125 4.27955 11.6943 4.03054C11.8361 3.90528 11.9492 3.82044 12.0313 3.77097C12.1339 3.70909 12.11 3.74976 11.9999 3.74976L12 2.24976C11.6922 2.24975 11.4263 2.38417 11.2568 2.48636C11.0667 2.60096 10.8776 2.7505 10.7011 2.9065C10.3463 3.22002 9.9709 3.62373 9.63717 4.00812C9.30022 4.39624 8.99068 4.78216 8.76629 5.0697C8.65379 5.21387 8.56198 5.33423 8.49799 5.41895C8.46598 5.46133 8.4409 5.49485 8.42363 5.51803C8.41499 5.52962 8.4083 5.53863 8.40368 5.54487C8.40136 5.548 8.39957 5.55043 8.3983 5.55215C8.39766 5.553 8.39716 5.55369 8.39679 5.55419C8.39661 5.55444 8.39646 5.55464 8.39634 5.5548C8.39628 5.55488 8.39622 5.55496 8.39619 5.555C8.39614 5.55508 8.39609 5.55514 9 5.99988Z" fill="#141B34"/>
<path d="M9 12.7498C9.41421 12.7498 9.75 12.414 9.75 11.9998C9.75 11.5856 9.41421 11.2498 9 11.2498V12.7498ZM5.55519 15.6039C5.8887 15.8495 6.3582 15.7783 6.60385 15.4448C6.8495 15.1113 6.77828 14.6418 6.44477 14.3961L5.55519 15.6039ZM6.44473 9.60392C6.77826 9.3583 6.84953 8.88881 6.60392 8.55527C6.3583 8.22174 5.88881 8.15047 5.55527 8.39608L6.44473 9.60392ZM9 11.2498H3V12.7498H9V11.2498ZM2.25 11.9998C2.25 12.3075 2.38441 12.5734 2.48659 12.7429C2.60118 12.933 2.7507 13.1221 2.90669 13.2987C3.22019 13.6535 3.62389 14.0289 4.00826 14.3626C4.39635 14.6996 4.78225 15.0092 5.06978 15.2336C5.21394 15.3461 5.33429 15.438 5.41901 15.502C5.46139 15.534 5.4949 15.5591 5.51808 15.5763C5.52967 15.585 5.53868 15.5917 5.54492 15.5963C5.54804 15.5986 5.55048 15.6004 5.55219 15.6017C5.55305 15.6023 5.55373 15.6028 5.55423 15.6032C5.55448 15.6034 5.55469 15.6035 5.55485 15.6036C5.55493 15.6037 5.55501 15.6037 5.55505 15.6038C5.55512 15.6038 5.55519 15.6039 5.99998 15C6.44477 14.3961 6.44481 14.3962 6.44483 14.3962C6.44483 14.3962 6.44484 14.3962 6.44483 14.3962C6.44481 14.3962 6.44474 14.3961 6.44463 14.396C6.4444 14.3959 6.44399 14.3956 6.44341 14.3951C6.44225 14.3943 6.44037 14.3929 6.43782 14.391C6.43271 14.3872 6.42488 14.3814 6.41449 14.3737C6.39372 14.3582 6.36279 14.335 6.32313 14.3051C6.24379 14.2451 6.12977 14.1581 5.99268 14.0511C5.71772 13.8365 5.35362 13.5443 4.99172 13.23C4.6261 12.9126 4.2798 12.5873 4.0308 12.3055C3.90555 12.1637 3.8207 12.0505 3.77123 11.9685C3.70935 11.8658 3.75 11.8897 3.75 11.9998L2.25 11.9998ZM6 9C5.55527 8.39608 5.55521 8.39613 5.55514 8.39618C5.5551 8.39621 5.55501 8.39627 5.55493 8.39633C5.55477 8.39645 5.55457 8.3966 5.55432 8.39678C5.55382 8.39715 5.55314 8.39765 5.55228 8.39829C5.55056 8.39956 5.54813 8.40136 5.54501 8.40367C5.53876 8.40829 5.52975 8.41498 5.51816 8.42362C5.49499 8.44089 5.46147 8.46597 5.41909 8.49798C5.33438 8.56196 5.21402 8.65376 5.06986 8.76626C4.78232 8.99063 4.39642 9.30014 4.00832 9.63708C3.62394 9.97078 3.22023 10.3461 2.90673 10.7009C2.75073 10.8775 2.6012 11.0666 2.4866 11.2567C2.38441 11.4262 2.25 11.6921 2.25 11.9998L3.75 11.9998C3.75 12.1098 3.70934 12.1338 3.77121 12.0311C3.82067 11.9491 3.90551 11.8359 4.03077 11.6942C4.27976 11.4124 4.62605 11.0872 4.99168 10.7698C5.35358 10.4556 5.71767 10.1634 5.99264 9.94883C6.12973 9.84185 6.24375 9.75489 6.32309 9.69497C6.36275 9.66502 6.39368 9.64187 6.41445 9.62639C6.42484 9.61865 6.43267 9.61284 6.43778 9.60905C6.44033 9.60716 6.4422 9.60578 6.44337 9.60492C6.44395 9.60449 6.44436 9.60419 6.44459 9.60402C6.4447 9.60394 6.44477 9.60389 6.44479 9.60387C6.4448 9.60386 6.44479 9.60387 6.44479 9.60387C6.44477 9.60389 6.44473 9.60392 6 9Z" fill="#141B34"/>
<path d="M15 11.2499C14.5858 11.2499 14.25 11.5857 14.25 11.9999C14.25 12.4141 14.5858 12.7499 15 12.7499V11.2499ZM18.4449 8.3961C18.1113 8.15047 17.6418 8.22172 17.3962 8.55525C17.1506 8.88877 17.2218 9.35827 17.5554 9.6039L18.4449 8.3961ZM17.5553 14.3961C17.2218 14.6418 17.1506 15.1113 17.3962 15.4448C17.6419 15.7783 18.1114 15.8495 18.4449 15.6039L17.5553 14.3961ZM21 11.2499H15V12.7499H21V11.2499ZM21.75 11.9999C21.75 11.6922 21.6156 11.4263 21.5134 11.2568C21.3988 11.0667 21.2493 10.8776 21.0933 10.701C20.7798 10.3462 20.3761 9.97087 19.9918 9.63715C19.6037 9.3002 19.2178 8.99067 18.9303 8.76629C18.7861 8.6538 18.6657 8.56199 18.581 8.498C18.5387 8.46599 18.5051 8.44091 18.482 8.42364C18.4704 8.415 18.4614 8.40831 18.4551 8.40369C18.452 8.40138 18.4496 8.39958 18.4479 8.39831C18.447 8.39767 18.4463 8.39717 18.4458 8.3968C18.4456 8.39662 18.4454 8.39647 18.4452 8.39635C18.4451 8.39629 18.445 8.39623 18.445 8.3962C18.4449 8.39615 18.4449 8.3961 18.0001 9C17.5554 9.6039 17.5553 9.60387 17.5553 9.60385C17.5553 9.60385 17.5553 9.60384 17.5553 9.60385C17.5553 9.60387 17.5554 9.60392 17.5555 9.604C17.5557 9.60417 17.5561 9.60447 17.5567 9.6049C17.5579 9.60576 17.5597 9.60714 17.5623 9.60904C17.5674 9.61282 17.5752 9.61863 17.5856 9.62637C17.6064 9.64185 17.6373 9.665 17.677 9.69495C17.7563 9.75488 17.8703 9.84185 18.0074 9.94882C18.2824 10.1634 18.6465 10.4556 19.0083 10.7698C19.374 11.0872 19.7202 11.4124 19.9692 11.6942C20.0945 11.836 20.1793 11.9492 20.2288 12.0312C20.2907 12.1339 20.25 12.1099 20.25 11.9999L21.75 11.9999ZM18.0001 15C18.4449 15.6039 18.4449 15.6038 18.445 15.6038C18.445 15.6038 18.4451 15.6037 18.4452 15.6036C18.4454 15.6035 18.4456 15.6034 18.4458 15.6032C18.4463 15.6028 18.447 15.6023 18.4479 15.6017C18.4496 15.6004 18.452 15.5986 18.4551 15.5963C18.4614 15.5917 18.4704 15.585 18.482 15.5763C18.5051 15.5591 18.5387 15.534 18.581 15.502C18.6658 15.438 18.7861 15.3462 18.9303 15.2336C19.2178 15.0092 19.6037 14.6997 19.9918 14.3627C20.3761 14.029 20.7798 13.6536 21.0933 13.2988C21.2493 13.1222 21.3988 12.9331 21.5134 12.743C21.6156 12.5735 21.75 12.3076 21.75 11.9999L20.25 11.9999C20.25 11.8898 20.2907 11.8659 20.2288 11.9686C20.1793 12.0506 20.0945 12.1638 19.9692 12.3056C19.7202 12.5874 19.3739 12.9126 19.0083 13.2301C18.6464 13.5443 18.2823 13.8366 18.0074 14.0512C17.8703 14.1581 17.7563 14.2451 17.6769 14.3051C17.6373 14.335 17.6063 14.3582 17.5856 14.3736C17.5752 14.3814 17.5674 14.3872 17.5622 14.391C17.5597 14.3929 17.5578 14.3943 17.5567 14.3951C17.5561 14.3955 17.5557 14.3958 17.5554 14.396C17.5553 14.3961 17.5553 14.3962 17.5552 14.3962C17.5552 14.3962 17.5552 14.3962 17.5552 14.3962C17.5553 14.3961 17.5553 14.3961 18.0001 15Z" fill="#141B34"/>
<path d="M12.7499 14.9998C12.7499 14.5855 12.4142 14.2498 11.9999 14.2498C11.5857 14.2498 11.2499 14.5855 11.2499 14.9998H12.7499ZM9.60389 17.5551C9.35825 17.2216 8.88875 17.1504 8.55523 17.396C8.22172 17.6416 8.15047 18.1111 8.39611 18.4447L9.60389 17.5551ZM15.6039 18.4447C15.8495 18.1111 15.7783 17.6416 15.4448 17.396C15.1113 17.1504 14.6418 17.2216 14.3961 17.5551L15.6039 18.4447ZM12.7499 20.9998V14.9998H11.2499V20.9998H12.7499ZM12 20.2498C12.11 20.2498 12.1339 20.2904 12.0313 20.2285C11.9492 20.1791 11.836 20.0942 11.6943 19.969C11.4125 19.72 11.0873 19.3737 10.7698 19.0081C10.4556 18.6462 10.1634 18.2822 9.94883 18.0072C9.84184 17.8701 9.75487 17.7561 9.69495 17.6768C9.665 17.6371 9.64184 17.6062 9.62636 17.5854C9.61863 17.575 9.61281 17.5672 9.60903 17.5621C9.60714 17.5595 9.60575 17.5577 9.60489 17.5565C9.60446 17.5559 9.60416 17.5555 9.60399 17.5553C9.60391 17.5552 9.60386 17.5551 9.60384 17.5551C9.60383 17.5551 9.60385 17.5551 9.60384 17.5551C9.60386 17.5551 9.60389 17.5551 9 17.9999C8.39611 18.4447 8.39615 18.4447 8.39621 18.4448C8.39624 18.4448 8.3963 18.4449 8.39636 18.445C8.39648 18.4452 8.39663 18.4454 8.39681 18.4456C8.39718 18.4461 8.39768 18.4468 8.39832 18.4477C8.39959 18.4494 8.40138 18.4518 8.4037 18.4549C8.40832 18.4612 8.41501 18.4702 8.42365 18.4818C8.44092 18.5049 8.466 18.5385 8.49801 18.5808C8.562 18.6655 8.65381 18.7859 8.76631 18.9301C8.9907 19.2176 9.30024 19.6035 9.6372 19.9915C9.97092 20.3759 10.3463 20.7796 10.7011 21.0931C10.8776 21.2491 11.0668 21.3986 11.2569 21.5132C11.4264 21.6154 11.6923 21.7498 11.9999 21.7498L12 20.2498ZM15 17.9999C14.3961 17.5551 14.3961 17.5551 14.3962 17.555C14.3962 17.555 14.3962 17.555 14.3962 17.555C14.3961 17.5551 14.3961 17.5551 14.396 17.5552C14.3958 17.5555 14.3955 17.5559 14.3951 17.5565C14.3943 17.5576 14.3929 17.5595 14.391 17.562C14.3872 17.5672 14.3814 17.575 14.3736 17.5854C14.3582 17.6061 14.335 17.6371 14.3051 17.6767C14.2451 17.7561 14.1582 17.8701 14.0512 18.0072C13.8366 18.2821 13.5443 18.6462 13.2301 19.0081C12.9127 19.3737 12.5874 19.72 12.3056 19.969C12.1639 20.0942 12.0507 20.1791 11.9686 20.2285C11.866 20.2904 11.8899 20.2498 12 20.2498L11.9999 21.7498C12.3076 21.7498 12.5735 21.6154 12.743 21.5132C12.9331 21.3986 13.1223 21.2491 13.2988 21.0931C13.6536 20.7796 14.029 20.3759 14.3627 19.9915C14.6997 19.6035 15.0093 19.2176 15.2337 18.93C15.3462 18.7859 15.438 18.6655 15.502 18.5808C15.534 18.5384 15.5591 18.5049 15.5763 18.4818C15.585 18.4702 15.5917 18.4612 15.5963 18.4549C15.5986 18.4518 15.6004 18.4494 15.6017 18.4476C15.6023 18.4468 15.6028 18.4461 15.6032 18.4456C15.6034 18.4454 15.6035 18.4452 15.6036 18.445C15.6037 18.4449 15.6038 18.4448 15.6038 18.4448C15.6038 18.4447 15.6039 18.4447 15 17.9999Z" fill="#141B34"/>
</svg>
