<svg width="24" height="24" viewBox="0 0 24 24" fill="none" xmlns="http://www.w3.org/2000/svg">
<path d="M21.0303 4.03045C21.3232 3.73756 21.3232 3.26269 21.0303 2.96979C20.7374 2.6769 20.2626 2.6769 19.9697 2.96979L21.0303 4.03045ZM12.9697 9.96979C12.6768 10.2627 12.6768 10.7376 12.9697 11.0305C13.2626 11.3233 13.7374 11.3233 14.0303 11.0305L12.9697 9.96979ZM14.0303 11.0305L21.0303 4.03045L19.9697 2.96979L12.9697 9.96979L14.0303 11.0305Z" fill="#141B34"/>
<path d="M2.96967 19.9698C2.67678 20.2627 2.67678 20.7376 2.96967 21.0305C3.26256 21.3233 3.73744 21.3233 4.03033 21.0305L2.96967 19.9698ZM11.0303 14.0305C11.3232 13.7376 11.3232 13.2627 11.0303 12.9698C10.7374 12.6769 10.2626 12.6769 9.96967 12.9698L11.0303 14.0305ZM4.03033 21.0305L11.0303 14.0305L9.96967 12.9698L2.96967 19.9698L4.03033 21.0305Z" fill="#141B34"/>
<path d="M16.5 3.26633C17.3444 3.25433 20.1409 2.67341 20.7338 3.26633C21.3267 3.85925 20.7458 6.65571 20.7338 7.50012" stroke="#141B34" stroke-width="1.5" stroke-linecap="round" stroke-linejoin="round"/>
<path d="M3.26621 16.5001C3.25421 17.3445 2.67328 20.141 3.26621 20.7339C3.85913 21.3268 6.65559 20.7459 7.5 20.7339" stroke="#141B34" stroke-width="1.5" stroke-linecap="round" stroke-linejoin="round"/>
</svg>
