<svg width="24" height="24" viewBox="0 0 24 24" fill="none" xmlns="http://www.w3.org/2000/svg">
<path d="M2.5 11.9999C2.5 7.52154 2.5 5.28236 3.89124 3.89112C5.28249 2.49988 7.52166 2.49988 12 2.49988C16.4783 2.49988 18.7175 2.49988 20.1088 3.89112C21.5 5.28236 21.5 7.52154 21.5 11.9999C21.5 16.4782 21.5 18.7174 20.1088 20.1086C18.7175 21.4999 16.4783 21.4999 12 21.4999C7.52166 21.4999 5.28249 21.4999 3.89124 20.1086C2.5 18.7174 2.5 16.4782 2.5 11.9999Z" stroke="#141B34" stroke-width="1.5"/>
<path d="M15.8008 15.8008L8.19915 8.19915M15.8008 15.8008C16.2444 15.3573 15.8098 13.2652 15.8008 12.6335M15.8008 15.8008C15.3573 16.2444 13.2652 15.8098 12.6335 15.8008M8.19915 8.19915C8.64273 7.75558 10.7348 8.19018 11.3665 8.19916M8.19915 8.19915C7.75558 8.64273 8.19018 10.7348 8.19915 11.3665" stroke="#141B34" stroke-width="1.5" stroke-linecap="round" stroke-linejoin="round"/>
</svg>
