<svg width="24" height="24" viewBox="0 0 24 24" fill="none" xmlns="http://www.w3.org/2000/svg">
<path d="M5 15C5 11.134 8.02208 8 11.75 8H12.25C15.9779 8 19 11.134 19 15C19 18.866 15.9779 22 12.25 22H11.75C8.02208 22 5 18.866 5 15Z" stroke="#141B34" stroke-width="1.5"/>
<path d="M10.5 13.118C10.5804 12.3327 11.1076 12.0001 11.6576 12.0001H12.3239C12.8738 12.0001 13.401 12.3327 13.4814 13.118C13.5063 13.3609 13.5063 13.6393 13.4814 13.8822C13.4325 14.3603 12.8543 14.9087 12.8543 14.9087L12 15.5001C12 15.5001 10.5 16.5001 10.5 17.5001C10.5 18.0395 10.9373 18.0001 11.4766 18.0001H13.4814" stroke="#141B34" stroke-width="1.3" stroke-linecap="round"/>
<path d="M13.5601 2L11 7.89783M18 2L15.1786 8.5" stroke="#141B34" stroke-width="1.5" stroke-linecap="round"/>
<path d="M10.4399 2L12 5.59405M6 2L8.82144 8.5" stroke="#141B34" stroke-width="1.5" stroke-linecap="round"/>
</svg>
