<svg width="24" height="24" viewBox="0 0 24 24" fill="none" xmlns="http://www.w3.org/2000/svg">
<path d="M18.5 15.0815L16.5 15.0815M13 15.0815L11 15.0815M7.5 15.0815L5.5 15.0815" stroke="#141B34" stroke-width="1.5" stroke-linecap="round" stroke-linejoin="round"/>
<path d="M16 5.93212C16 8.60654 13.0435 10.5475 12.214 11.0239C12.0802 11.1008 11.9198 11.1008 11.786 11.0239C10.9565 10.5475 8 8.60654 8 5.93212C8 3.88154 9.79086 2.08154 12 2.08154C14.2091 2.08154 16 3.88154 16 5.93212Z" stroke="#141B34" stroke-width="1.5"/>
<path d="M12 6.08154H12.009" stroke="#141B34" stroke-width="2" stroke-linecap="round" stroke-linejoin="round"/>
<path d="M19 8.08154C19.7745 8.23142 20.3588 8.48156 20.8284 8.89904C22 9.94057 22 11.6169 22 14.9695C22 18.3222 22 19.9985 20.8284 21.04C19.6569 22.0815 17.7712 22.0815 14 22.0815H10C6.22876 22.0815 4.34315 22.0815 3.17157 21.04C2 19.9985 2 18.3222 2 14.9695C2 11.6169 2 9.94057 3.17157 8.89904C3.64118 8.48156 4.2255 8.23142 5 8.08154" stroke="#141B34" stroke-width="1.5" stroke-linecap="round" stroke-linejoin="round"/>
</svg>
