<svg width="24" height="24" viewBox="0 0 24 24" fill="none" xmlns="http://www.w3.org/2000/svg">
<path d="M19 12.5V17.9808C19 20.2866 19 21.4395 18.2272 21.8522C16.7305 22.6514 13.9232 19.9852 12.59 19.1824C11.8168 18.7168 11.4302 18.484 11 18.484C10.5698 18.484 10.1832 18.7168 9.41 19.1824C8.0768 19.9852 5.26947 22.6514 3.77285 21.8522C3 21.4395 3 20.2866 3 17.9808V9.70749C3 6.07412 3 4.25744 4.17157 3.1287C5.23467 2.10447 6.8857 2.00964 10 2.00085" stroke="#141B34" stroke-width="1.5" stroke-linecap="round" stroke-linejoin="round"/>
<path d="M13.2 3.2L18.8 8.8M20 6C20 3.79086 18.2091 2 16 2C13.7909 2 12 3.79086 12 6C12 8.20914 13.7909 10 16 10C18.2091 10 20 8.20914 20 6Z" stroke="#141B34" stroke-width="1.5" stroke-linecap="round"/>
</svg>
