<svg width="24" height="24" viewBox="0 0 24 24" fill="none" xmlns="http://www.w3.org/2000/svg">
<path d="M2.5 19.6583V15.0067C2.5 14.2974 2.5 13.9428 2.6313 13.9034C2.76259 13.864 2.9637 14.1694 3.36592 14.78C4.75816 16.8938 7.10621 19.2419 9.21998 20.6341C9.83065 21.0363 10.136 21.2374 10.0966 21.3687C10.0573 21.5 9.70263 21.5 8.99336 21.5H4.34177C3.47355 21.5 3.03944 21.5 2.76972 21.2303C2.5 20.9606 2.5 20.5265 2.5 19.6583Z" stroke="#141B34" stroke-width="1.5" stroke-linejoin="round"/>
<path d="M21.5004 4.34177V8.99336C21.5004 9.70263 21.5004 10.0573 21.3691 10.0966C21.2378 10.136 21.0367 9.83065 20.6345 9.21998C19.2422 7.10621 16.8942 4.75816 14.7804 3.36592C14.1697 2.9637 13.8644 2.76259 13.9038 2.6313C13.9431 2.5 14.2978 2.5 15.007 2.5H19.6586C20.5268 2.5 20.9609 2.5 21.2307 2.76972C21.5004 3.03944 21.5004 3.47355 21.5004 4.34177Z" stroke="#141B34" stroke-width="1.5" stroke-linejoin="round"/>
<path d="M2.5 4.4V6.62599C2.5 7.40261 2.5 7.79093 2.64463 8.14009C2.78926 8.48926 3.06384 8.76384 3.61299 9.31299L14.687 20.387C15.2362 20.9362 15.5107 21.2107 15.8599 21.3554C16.2091 21.5 16.5974 21.5 17.374 21.5H19.6C20.4957 21.5 20.9435 21.5 21.2218 21.2218C21.5 20.9435 21.5 20.4957 21.5 19.6V17.374C21.5 16.5974 21.5 16.2091 21.3554 15.8599C21.2107 15.5107 20.9362 15.2362 20.387 14.687L9.31299 3.61299C8.76384 3.06384 8.48926 2.78926 8.14009 2.64463C7.79093 2.5 7.40261 2.5 6.62599 2.5H4.4C3.50433 2.5 3.0565 2.5 2.77825 2.77825C2.5 3.0565 2.5 3.50433 2.5 4.4Z" stroke="#141B34" stroke-width="1.5" stroke-linejoin="round"/>
</svg>
