<svg width="24" height="24" viewBox="0 0 24 24" fill="none" xmlns="http://www.w3.org/2000/svg">
<path d="M6.29358 4.83487L4.16511 17.6711C3.98586 18.7521 3.89623 19.2926 4.19427 19.6463C4.49231 19.9999 5.03749 19.9999 6.12785 19.9999H6.53027C7.35308 19.9999 7.76448 19.9999 8.04501 19.7553C8.32554 19.5108 8.38372 19.1014 8.50008 18.2827L8.96761 14.9932C9.00457 14.7332 9.02305 14.6031 9.05213 14.4919C9.26041 13.6947 9.93391 13.1076 10.7485 13.0131C10.8622 12.9999 10.9929 12.9999 11.2543 12.9999H12.4163C15.5113 12.9999 18.1943 10.8472 18.8803 7.81372C19.5536 4.83564 17.3016 1.99988 14.2631 1.99988H9.62312C8.5093 1.99988 7.95239 1.99988 7.51383 2.23468C7.26304 2.36895 7.04377 2.55565 6.87077 2.78222C6.56824 3.17843 6.47669 3.73058 6.29358 4.83487Z" stroke="#141B34" stroke-width="1.5"/>
<path d="M8.24315 19.5L8.01451 20.8327C7.90978 21.4431 8.38532 22 9.01128 22H11.0018C11.4961 22 11.9179 21.6466 11.9991 21.1644L12.7285 16.8356C12.8098 16.3534 13.2316 16 13.7258 16H15.5289C18.11 16 20.3448 14.2268 20.9047 11.7346C21.2967 9.99016 20.4437 8.31005 19 7.5011" stroke="#141B34" stroke-width="1.5"/>
</svg>
