<svg width="24" height="24" viewBox="0 0 24 24" fill="none" xmlns="http://www.w3.org/2000/svg">
<path d="M11 8.99988C7.41015 8.99988 4.5 11.91 4.5 15.4999C4.5 19.0897 7.41015 21.9999 11 21.9999C14.5898 21.9999 17.5 19.0897 17.5 15.4999C17.5 11.91 14.5898 8.99988 11 8.99988Z" stroke="#141B34" stroke-width="1.5" stroke-linecap="round" stroke-linejoin="round"/>
<path d="M20 8.5L15.4116 4.29397C14.7437 3.68176 14.4098 3.37565 14.0084 3.38437C13.6069 3.3931 13.2866 3.71342 12.6459 4.35406L11.6803 5.31973C11.116 5.88402 10.8338 6.16617 10.4728 6.19872C10.1118 6.23127 9.78377 6.00415 9.12764 5.5499L4 2M20 8.5H16.5M20 8.5V5.5" stroke="#141B34" stroke-width="1.5" stroke-linecap="round" stroke-linejoin="round"/>
<path d="M9.4375 18.1665L9.4375 12.8332M11 12.8332V11.4999M11 19.4999V18.1665M9.4375 15.4999H12.5625M12.5625 15.4999C13.0803 15.4999 13.5 15.9476 13.5 16.4999V17.1665C13.5 17.7188 13.0803 18.1665 12.5625 18.1665H8.5M12.5625 15.4999C13.0803 15.4999 13.5 15.0522 13.5 14.4999V13.8332C13.5 13.2809 13.0803 12.8332 12.5625 12.8332H8.5" stroke="#141B34" stroke-width="1.5" stroke-linecap="round" stroke-linejoin="round"/>
</svg>
