<svg width="24" height="24" viewBox="0 0 24 24" fill="none" xmlns="http://www.w3.org/2000/svg">
<path d="M12 8.99988C8.41015 8.99988 5.5 11.91 5.5 15.4999C5.5 19.0897 8.41015 21.9999 12 21.9999C15.5898 21.9999 18.5 19.0897 18.5 15.4999C18.5 11.91 15.5898 8.99988 12 8.99988Z" stroke="#141B34" stroke-width="1.5" stroke-linecap="round" stroke-linejoin="round"/>
<path d="M20 2L16.0237 5.6148C15.3073 6.26613 14.949 6.5918 14.527 6.56553C14.1051 6.53926 13.79 6.17167 13.1599 5.4365L12.6533 4.84557C12.1043 4.20505 11.8298 3.88479 11.4541 3.83296C11.0783 3.78112 10.7274 4.0151 10.0254 4.48305L4 8.5M20 2H16.5M20 2V5" stroke="#141B34" stroke-width="1.5" stroke-linecap="round" stroke-linejoin="round"/>
<path d="M10.4375 18.1665L10.4375 12.8332M12 12.8332V11.4999M12 19.4999V18.1665M10.4375 15.4999H13.5625M13.5625 15.4999C14.0803 15.4999 14.5 15.9476 14.5 16.4999V17.1665C14.5 17.7188 14.0803 18.1665 13.5625 18.1665H9.5M13.5625 15.4999C14.0803 15.4999 14.5 15.0522 14.5 14.4999V13.8332C14.5 13.2809 14.0803 12.8332 13.5625 12.8332H9.5" stroke="#141B34" stroke-width="1.5" stroke-linecap="round" stroke-linejoin="round"/>
</svg>
