<svg width="24" height="24" viewBox="0 0 24 24" fill="none" xmlns="http://www.w3.org/2000/svg">
<path d="M10.125 15L10.125 9M12 9V7.5M12 16.5V15M10.125 12H13.875M13.875 12C14.4963 12 15 12.5037 15 13.125V13.875C15 14.4963 14.4963 15 13.875 15H9M13.875 12C14.4963 12 15 11.4963 15 10.875V10.125C15 9.50368 14.4963 9 13.875 9H9" stroke="#141B34" stroke-width="1.5" stroke-linecap="round" stroke-linejoin="round"/>
<path d="M21.011 14.0965C21.5329 13.9557 21.7939 13.8853 21.8969 13.7507C22 13.6162 22 13.3997 22 12.9668V11.0332C22 10.6002 22 10.3838 21.8969 10.2492C21.7938 10.1146 21.5329 10.0443 21.011 9.90352C19.0606 9.37753 17.8399 7.33846 18.3433 5.40082C18.4817 4.86794 18.5509 4.6015 18.4848 4.44523C18.4187 4.28896 18.2291 4.18128 17.8497 3.9659L16.125 2.98667C15.7528 2.77533 15.5667 2.66966 15.3997 2.69216C15.2326 2.71467 15.0442 2.90267 14.6672 3.27868C13.208 4.73443 10.7936 4.73437 9.33434 3.27858C8.95743 2.90257 8.76898 2.71457 8.60193 2.69207C8.43489 2.66956 8.24877 2.77523 7.87653 2.98658L6.15184 3.96581C5.77253 4.18117 5.58287 4.28885 5.51678 4.4451C5.45068 4.60134 5.51987 4.86781 5.65825 5.40074C6.16137 7.33844 4.93972 9.37757 2.98902 9.90354C2.46712 10.0443 2.20617 10.1146 2.10308 10.2492C2 10.3837 2 10.6002 2 11.0332V12.9668C2 13.3997 2 13.6162 2.10308 13.7508C2.20615 13.8853 2.46711 13.9557 2.98902 14.0965C4.9394 14.6225 6.16008 16.6615 5.65672 18.5992C5.51829 19.132 5.44907 19.3985 5.51516 19.5547C5.58126 19.711 5.77092 19.8187 6.15025 20.0341L7.87495 21.0133C8.24721 21.2247 8.43334 21.3303 8.6004 21.3078C8.76746 21.2853 8.95588 21.0973 9.33271 20.7213C10.7927 19.2643 13.2088 19.2643 14.6689 20.7212C15.0457 21.0972 15.2341 21.2852 15.4012 21.3077C15.5682 21.3302 15.7544 21.2246 16.1266 21.0132L17.8513 20.034C18.2307 19.8186 18.4204 19.7109 18.4864 19.5546C18.5525 19.3983 18.4833 19.1319 18.3448 18.5991C17.8412 16.6615 19.0609 14.6225 21.011 14.0965Z" stroke="#141B34" stroke-width="1.5" stroke-linecap="round"/>
</svg>
