<svg width="24" height="24" viewBox="0 0 24 24" fill="none" xmlns="http://www.w3.org/2000/svg">
<path d="M11.9983 2.00012C9.14883 2.00012 7.30123 4.01911 5.11615 4.75502C4.22768 5.05425 3.78345 5.20387 3.60366 5.41477C3.42388 5.62568 3.37124 5.93387 3.26595 6.55026C2.13925 13.1461 4.6019 19.2441 10.475 21.6176C11.106 21.8726 11.4216 22.0001 12.0014 22.0001C12.5812 22.0001 12.8967 21.8726 13.5277 21.6176C19.4005 19.2441 21.8608 13.1461 20.7338 6.55025C20.6284 5.93376 20.5758 5.62552 20.3959 5.41461C20.2161 5.2037 19.7719 5.05417 18.8835 4.75511C16.6976 4.01927 14.8479 2.00012 11.9983 2.00012Z" stroke="#141B34" stroke-width="1.5" stroke-linecap="round" stroke-linejoin="round"/>
<path d="M10.125 14.5001L10.125 8.50012M12 8.50012V7.00012M12 16.0001V14.5001M10.125 11.5001H13.875M13.875 11.5001C14.4963 11.5001 15 12.0038 15 12.6251V13.3751C15 13.9964 14.4963 14.5001 13.875 14.5001H9M13.875 11.5001C14.4963 11.5001 15 10.9964 15 10.3751V9.62512C15 9.0038 14.4963 8.50012 13.875 8.50012H9" stroke="#141B34" stroke-width="1.5" stroke-linecap="round" stroke-linejoin="round"/>
</svg>
