<svg width="24" height="24" viewBox="0 0 24 24" fill="none" xmlns="http://www.w3.org/2000/svg">
<path d="M17.1652 5.23871L16.6349 5.76905H16.6349L17.1652 5.23871ZM18.761 6.83447L19.2913 6.30414L18.761 6.83447ZM14.3593 11.6853L13.829 12.2156L14.3593 11.6853ZM12.3147 9.64069L11.7844 10.171L12.3147 9.64069ZM20.9373 17.6024L20.2861 17.9745C20.4444 18.2514 20.7604 18.3979 21.074 18.3398C21.3876 18.2817 21.6301 18.0316 21.6786 17.7164L20.9373 17.6024ZM16.2723 11.6931L15.742 11.1628H15.742L16.2723 11.6931ZM6.39769 3.06278L6.28357 2.32152C5.96839 2.37004 5.71836 2.61256 5.66025 2.92611C5.60214 3.23966 5.74865 3.55567 6.02551 3.71392L6.39769 3.06278ZM12.3068 7.72799L12.8371 8.25832L12.3068 7.72799ZM11.8302 9.07762L11.1513 9.3964V9.3964L11.8302 9.07762ZM11.8302 8.28309L11.1513 7.9643V7.9643L11.8302 8.28309ZM14.9227 12.17L14.6041 12.849H14.6041L14.9227 12.17ZM15.7168 12.17L15.3982 11.4911L15.3982 11.4911L15.7168 12.17ZM19.5465 7.8682L20.2866 7.74682V7.74682L19.5465 7.8682ZM19.5465 8.17072L20.2866 8.2921V8.2921L19.5465 8.17072ZM16.1323 4.45365L16.2541 3.7136L16.2541 3.7136L16.1323 4.45365ZM15.8289 4.45365L15.9507 5.19371L15.9507 5.19371L15.8289 4.45365ZM5.43682 20.6078L5.95032 21.1544C5.95601 21.1491 5.96162 21.1436 5.96715 21.1381L5.43682 20.6078ZM3.39221 18.5632L2.86188 18.0329C2.85636 18.0384 2.85092 18.044 2.84558 18.0497L3.39221 18.5632ZM3.42366 20.5763L3.95399 20.046L3.42366 20.5763ZM13.0526 14.0526C13.3455 13.7598 13.3455 13.2849 13.0526 12.992C12.7598 12.6991 12.2849 12.6991 11.992 12.992L13.0526 14.0526ZM11.008 12.008C11.3009 11.7151 11.3009 11.2403 11.008 10.9474C10.7151 10.6545 10.2403 10.6545 9.94738 10.9474L11.008 12.008ZM16.6349 5.76905L18.2307 7.3648L19.2913 6.30414L17.6956 4.70838L16.6349 5.76905ZM14.8897 11.155L12.8451 9.11036L11.7844 10.171L13.829 12.2156L14.8897 11.155ZM18.1367 9.62005C19.4666 11.6179 19.98 13.5993 20.1612 15.0815C20.2517 15.8224 20.2588 16.4356 20.2439 16.859C20.2365 17.0705 20.2236 17.234 20.213 17.3417C20.2077 17.3955 20.203 17.4353 20.1998 17.4601C20.1982 17.4724 20.1971 17.4811 20.1964 17.4858C20.1961 17.4882 20.1958 17.4896 20.1958 17.49C20.1958 17.4902 20.1958 17.4902 20.1958 17.4899C20.1958 17.4898 20.1959 17.4896 20.1959 17.4893C20.1959 17.4892 20.196 17.4889 20.196 17.4889C20.196 17.4886 20.196 17.4883 20.9373 17.6024C21.6786 17.7164 21.6786 17.7161 21.6787 17.7158C21.6787 17.7157 21.6788 17.7153 21.6788 17.7151C21.6789 17.7145 21.679 17.7139 21.6791 17.7133C21.6793 17.712 21.6795 17.7104 21.6798 17.7086C21.6803 17.705 21.681 17.7004 21.6818 17.6947C21.6834 17.6835 21.6854 17.6682 21.6879 17.6491C21.6927 17.6108 21.699 17.5569 21.7058 17.4886C21.7192 17.3519 21.7344 17.1569 21.743 16.9117C21.7602 16.4218 21.7515 15.7291 21.6501 14.8995C21.4474 13.2408 20.8727 11.0233 19.3853 8.78886L18.1367 9.62005ZM18.2307 8.67413L15.742 11.1628L16.8027 12.2234L19.2913 9.73479L18.2307 8.67413ZM15.7212 12.2017C17.3931 14.0135 18.5411 15.4685 19.2676 16.4646C19.6309 16.9626 19.8889 17.346 20.0544 17.6019C20.1371 17.7298 20.1968 17.8259 20.2348 17.8885C20.2539 17.9199 20.2675 17.9428 20.276 17.9572C20.2803 17.9644 20.2832 17.9694 20.2849 17.9723C20.2857 17.9738 20.2863 17.9747 20.2865 17.975C20.2866 17.9752 20.2866 17.9753 20.2865 17.9752C20.2865 17.9751 20.2865 17.975 20.2864 17.9749C20.2864 17.9749 20.2863 17.9748 20.2863 17.9747C20.2862 17.9746 20.2861 17.9745 20.9373 17.6024C21.5885 17.2303 21.5884 17.2301 21.5883 17.23C21.5883 17.2299 21.5882 17.2297 21.5881 17.2296C21.588 17.2294 21.5878 17.2291 21.5876 17.2288C21.5873 17.2281 21.5868 17.2273 21.5863 17.2264C21.5853 17.2246 21.5839 17.2222 21.5822 17.2193C21.5788 17.2135 21.5741 17.2055 21.5682 17.1954C21.5562 17.1751 21.5391 17.1463 21.5164 17.1091C21.4712 17.0348 21.4043 16.927 21.314 16.7874C21.1334 16.5081 20.8595 16.1016 20.4795 15.5806C19.7194 14.5386 18.5349 13.039 16.8235 11.1845L15.7212 12.2017ZM6.39769 3.06278C6.02551 3.71392 6.02538 3.71385 6.02526 3.71378C6.02523 3.71376 6.02512 3.7137 6.02506 3.71367C6.02495 3.7136 6.02487 3.71355 6.02482 3.71353C6.02473 3.71347 6.02477 3.7135 6.02495 3.7136C6.02531 3.71381 6.02621 3.71433 6.02765 3.71517C6.03054 3.71684 6.03559 3.71979 6.04279 3.72403C6.05718 3.73252 6.08013 3.74619 6.11144 3.76523C6.17407 3.80333 6.27015 3.86296 6.3981 3.94571C6.65398 4.11121 7.03732 4.36923 7.53535 4.73257C8.53136 5.45921 9.98637 6.60726 11.7981 8.27916L12.8154 7.17681C10.9609 5.46547 9.46136 4.28093 8.41941 3.52077C7.89845 3.14071 7.49195 2.86679 7.21273 2.6862C7.07313 2.5959 6.96535 2.52894 6.891 2.48372C6.85383 2.4611 6.82502 2.44393 6.80476 2.43198C6.79463 2.42601 6.78665 2.42134 6.78082 2.41796C6.77791 2.41627 6.77554 2.4149 6.77372 2.41385C6.7728 2.41333 6.77203 2.41288 6.77139 2.41251C6.77107 2.41233 6.77078 2.41216 6.77053 2.41202C6.7704 2.41195 6.77024 2.41185 6.77018 2.41182C6.77002 2.41173 6.76987 2.41165 6.39769 3.06278ZM12.8371 8.25832L15.3264 5.76905L14.2657 4.70838L11.7764 7.19766L12.8371 8.25832ZM6.39769 3.06278C6.51182 3.80405 6.51154 3.80409 6.51127 3.80413C6.51121 3.80414 6.51096 3.80418 6.51083 3.8042C6.51056 3.80424 6.51035 3.80427 6.51021 3.8043C6.50993 3.80434 6.50989 3.80434 6.5101 3.80431C6.51052 3.80425 6.51192 3.80404 6.5143 3.80371C6.51906 3.80304 6.52769 3.80186 6.54009 3.80028C6.56488 3.79713 6.60468 3.79242 6.65849 3.78711C6.76616 3.77651 6.92969 3.76358 7.14121 3.75612C7.56459 3.74119 8.17791 3.74823 8.91883 3.83872C10.4011 4.01975 12.3826 4.53312 14.3804 5.86304L15.2116 4.61439C12.9772 3.12698 10.7595 2.55238 9.10067 2.34978C8.27104 2.24846 7.57834 2.23977 7.08833 2.25705C6.84314 2.2657 6.64814 2.28087 6.51144 2.29434C6.44308 2.30107 6.38924 2.30739 6.35094 2.31226C6.33179 2.31469 6.31651 2.31676 6.30524 2.31835C6.29961 2.31914 6.29497 2.31981 6.29136 2.32035C6.28955 2.32061 6.28799 2.32085 6.28669 2.32104C6.28605 2.32114 6.28546 2.32123 6.28494 2.32131C6.28468 2.32135 6.28433 2.3214 6.2842 2.32142C6.28388 2.32147 6.28357 2.32152 6.39769 3.06278ZM12.8451 9.11036C12.7033 8.96855 12.6178 8.88266 12.5573 8.81458C12.4987 8.74871 12.4994 8.73821 12.509 8.75883L11.1513 9.3964C11.2305 9.56503 11.3377 9.70036 11.4362 9.81118C11.5328 9.91979 11.6548 10.0414 11.7844 10.171L12.8451 9.11036ZM11.7764 7.19766C11.5508 7.4233 11.2906 7.66759 11.1513 7.9643L12.509 8.60187C12.5005 8.62002 12.4997 8.61054 12.554 8.54929C12.6121 8.48377 12.695 8.4004 12.8371 8.25832L11.7764 7.19766ZM12.509 8.75883C12.4857 8.70912 12.4857 8.65159 12.509 8.60187L11.1513 7.9643C10.9383 8.41791 10.9383 8.94279 11.1513 9.3964L12.509 8.75883ZM13.829 12.2156C13.9587 12.3453 14.0804 12.4674 14.1891 12.564C14.3 12.6626 14.4354 12.7698 14.6041 12.849L15.2413 11.4911C15.2619 11.5007 15.2514 11.5014 15.1856 11.4429C15.1175 11.3824 15.0316 11.2969 14.8897 11.155L13.829 12.2156ZM15.742 11.1628C15.5998 11.305 15.5164 11.3879 15.4508 11.4461C15.3895 11.5004 15.38 11.4996 15.3982 11.4911L16.0354 12.849C16.3324 12.7096 16.5768 12.4493 16.8027 12.2234L15.742 11.1628ZM14.6041 12.849C15.0575 13.0617 15.582 13.0617 16.0354 12.849L15.3982 11.4911C15.3485 11.5144 15.291 11.5144 15.2413 11.4911L14.6041 12.849ZM18.2307 7.3648C18.488 7.62212 18.638 7.77359 18.7358 7.89486C18.8248 8.00531 18.8116 8.0215 18.8064 7.98958L20.2866 7.74682C20.2327 7.41801 20.0724 7.16295 19.9036 6.95356C19.7436 6.75499 19.5252 6.53805 19.2913 6.30414L18.2307 7.3648ZM19.2913 9.73479C19.5252 9.50088 19.7436 9.28394 19.9036 9.08537C20.0724 8.87598 20.2327 8.62091 20.2866 8.2921L18.8064 8.04934C18.8116 8.01742 18.8248 8.03361 18.7358 8.14406C18.638 8.26533 18.488 8.41681 18.2307 8.67413L19.2913 9.73479ZM18.8064 7.98958C18.8097 8.00937 18.8097 8.02955 18.8064 8.04935L20.2866 8.2921C20.3162 8.11155 20.3162 7.92738 20.2866 7.74682L18.8064 7.98958ZM17.6956 4.70838C17.4618 4.47466 17.2451 4.25645 17.0466 4.09651C16.8374 3.92786 16.5826 3.76764 16.2541 3.7136L16.0106 5.19371C15.9787 5.18846 15.9949 5.17535 16.1052 5.26432C16.2264 5.362 16.3778 5.51193 16.6349 5.76905L17.6956 4.70838ZM15.3264 5.76905C15.5835 5.51193 15.7348 5.362 15.856 5.26432C15.9664 5.17535 15.9826 5.18846 15.9507 5.19371L15.7072 3.7136C15.3787 3.76764 15.1238 3.92786 14.9146 4.09651C14.7162 4.25645 14.4994 4.47466 14.2657 4.70838L15.3264 5.76905ZM16.2541 3.7136C16.073 3.68381 15.8883 3.68381 15.7072 3.7136L15.9507 5.19371C15.9705 5.19044 15.9908 5.19044 16.0106 5.19371L16.2541 3.7136ZM2.89333 21.1067C3.73221 21.9456 5.08565 21.9667 5.95032 21.1544L4.92331 20.0612C4.64914 20.3187 4.21998 20.312 3.95399 20.046L2.89333 21.1067ZM3.95399 20.046C3.68799 19.78 3.68129 19.3509 3.93885 19.0767L2.84558 18.0497C2.0333 18.9144 2.05445 20.2678 2.89333 21.1067L3.95399 20.046ZM5.96715 21.1381L13.0526 14.0526L11.992 12.992L4.90649 20.0775L5.96715 21.1381ZM9.94738 10.9474L2.86188 18.0329L3.92254 19.0935L11.008 12.008L9.94738 10.9474Z" fill="#141B34"/>
</svg>
