<svg width="24" height="24" viewBox="0 0 24 24" fill="none" xmlns="http://www.w3.org/2000/svg">
<path d="M17.1652 4.23871L16.6349 4.76905H16.6349L17.1652 4.23871ZM18.761 5.83447L19.2913 5.30414L18.761 5.83447ZM14.3593 10.6853L13.829 11.2156L14.3593 10.6853ZM12.3147 8.64069L11.7844 9.17102L12.3147 8.64069ZM16.2723 10.6931L15.742 10.1628H15.742L16.2723 10.6931ZM6.39769 2.06278L6.28357 1.32152C5.96839 1.37004 5.71836 1.61256 5.66025 1.92611C5.60214 2.23966 5.74865 2.55567 6.02551 2.71392L6.39769 2.06278ZM12.3068 6.72799L12.8371 7.25832L12.3068 6.72799ZM11.8302 8.07762L11.1513 8.3964V8.3964L11.8302 8.07762ZM11.8302 7.28309L11.1513 6.9643V6.9643L11.8302 7.28309ZM14.9227 11.17L14.6041 11.849H14.6041L14.9227 11.17ZM15.7168 11.17L15.3982 10.4911L15.3982 10.4911L15.7168 11.17ZM19.5465 6.8682L20.2866 6.74682V6.74682L19.5465 6.8682ZM19.5465 7.17072L20.2866 7.2921V7.2921L19.5465 7.17072ZM16.1323 3.45365L16.2541 2.7136L16.2541 2.7136L16.1323 3.45365ZM15.8289 3.45365L15.9507 4.19371L15.9507 4.19371L15.8289 3.45365ZM5.43682 19.6078L5.95032 20.1544C5.95601 20.1491 5.96162 20.1436 5.96715 20.1381L5.43682 19.6078ZM3.39221 17.5632L2.86188 17.0329C2.85636 17.0384 2.85092 17.044 2.84558 17.0497L3.39221 17.5632ZM3.42366 19.5763L3.95399 19.046L3.42366 19.5763ZM13.0526 13.0526C13.3455 12.7598 13.3455 12.2849 13.0526 11.992C12.7598 11.6991 12.2849 11.6991 11.992 11.992L13.0526 13.0526ZM11.008 11.008C11.3009 10.7151 11.3009 10.2403 11.008 9.94738C10.7151 9.65449 10.2403 9.65449 9.94738 9.94738L11.008 11.008ZM19.5365 11.4195C19.6742 11.8101 20.1026 12.0151 20.4932 11.8773C20.8839 11.7396 21.0888 11.3112 20.9511 10.9206L19.5365 11.4195ZM16.5007 12.0624C16.7757 12.3721 17.2498 12.4002 17.5595 12.1251C17.8692 11.85 17.8972 11.376 17.6221 11.0663L16.5007 12.0624ZM16.6349 4.76905L18.2307 6.3648L19.2913 5.30414L17.6956 3.70838L16.6349 4.76905ZM14.8897 10.155L12.8451 8.11036L11.7844 9.17102L13.829 11.2156L14.8897 10.155ZM18.2307 7.67413L15.742 10.1628L16.8027 11.2234L19.2913 8.73479L18.2307 7.67413ZM6.39769 2.06278C6.02551 2.71392 6.02538 2.71385 6.02526 2.71378C6.02523 2.71376 6.02512 2.7137 6.02506 2.71367C6.02495 2.7136 6.02487 2.71355 6.02482 2.71353C6.02473 2.71347 6.02477 2.7135 6.02495 2.7136C6.02531 2.71381 6.02621 2.71433 6.02765 2.71517C6.03054 2.71684 6.03559 2.71979 6.04279 2.72403C6.05718 2.73252 6.08013 2.74619 6.11144 2.76523C6.17407 2.80333 6.27015 2.86296 6.3981 2.94571C6.65398 3.11121 7.03732 3.36923 7.53535 3.73257C8.53136 4.45921 9.98637 5.60726 11.7981 7.27916L12.8154 6.17681C10.9609 4.46547 9.46136 3.28093 8.41941 2.52077C7.89845 2.14071 7.49195 1.86679 7.21273 1.6862C7.07313 1.5959 6.96535 1.52894 6.891 1.48372C6.85383 1.4611 6.82502 1.44393 6.80476 1.43198C6.79463 1.42601 6.78665 1.42134 6.78082 1.41796C6.77791 1.41627 6.77554 1.4149 6.77372 1.41385C6.7728 1.41333 6.77203 1.41288 6.77139 1.41251C6.77107 1.41233 6.77078 1.41216 6.77053 1.41202C6.7704 1.41195 6.77024 1.41185 6.77018 1.41182C6.77002 1.41173 6.76987 1.41165 6.39769 2.06278ZM12.8371 7.25832L15.3264 4.76905L14.2657 3.70838L11.7764 6.19766L12.8371 7.25832ZM6.39769 2.06278C6.51182 2.80405 6.51154 2.80409 6.51127 2.80413C6.51121 2.80414 6.51096 2.80418 6.51083 2.8042C6.51056 2.80424 6.51035 2.80427 6.51021 2.8043C6.50993 2.80434 6.50989 2.80434 6.5101 2.80431C6.51052 2.80425 6.51192 2.80404 6.5143 2.80371C6.51906 2.80304 6.52769 2.80186 6.54009 2.80028C6.56488 2.79713 6.60468 2.79242 6.65849 2.78711C6.76616 2.77651 6.92969 2.76358 7.14121 2.75612C7.56459 2.74119 8.17791 2.74823 8.91883 2.83872C10.4011 3.01975 12.3826 3.53312 14.3804 4.86304L15.2116 3.61439C12.9772 2.12698 10.7595 1.55238 9.10067 1.34978C8.27104 1.24846 7.57834 1.23977 7.08833 1.25705C6.84314 1.2657 6.64814 1.28087 6.51144 1.29434C6.44308 1.30107 6.38924 1.30739 6.35094 1.31226C6.33179 1.31469 6.31651 1.31676 6.30524 1.31835C6.29961 1.31914 6.29497 1.31981 6.29136 1.32035C6.28955 1.32061 6.28799 1.32085 6.28669 1.32104C6.28605 1.32114 6.28546 1.32123 6.28494 1.32131C6.28468 1.32135 6.28433 1.3214 6.2842 1.32142C6.28388 1.32147 6.28357 1.32152 6.39769 2.06278ZM12.8451 8.11036C12.7033 7.96855 12.6178 7.88266 12.5573 7.81458C12.4987 7.74871 12.4994 7.73821 12.509 7.75883L11.1513 8.3964C11.2305 8.56503 11.3377 8.70036 11.4362 8.81118C11.5328 8.91979 11.6548 9.04143 11.7844 9.17102L12.8451 8.11036ZM11.7764 6.19766C11.5508 6.4233 11.2906 6.66759 11.1513 6.9643L12.509 7.60187C12.5005 7.62002 12.4997 7.61054 12.554 7.54929C12.6121 7.48377 12.695 7.4004 12.8371 7.25832L11.7764 6.19766ZM12.509 7.75883C12.4857 7.70912 12.4857 7.65159 12.509 7.60187L11.1513 6.9643C10.9383 7.41791 10.9383 7.94279 11.1513 8.3964L12.509 7.75883ZM13.829 11.2156C13.9587 11.3453 14.0804 11.4674 14.1891 11.564C14.3 11.6626 14.4354 11.7698 14.6041 11.849L15.2413 10.4911C15.2619 10.5007 15.2514 10.5014 15.1856 10.4429C15.1175 10.3824 15.0316 10.2969 14.8897 10.155L13.829 11.2156ZM15.742 10.1628C15.5998 10.305 15.5164 10.3879 15.4508 10.4461C15.3895 10.5004 15.38 10.4996 15.3982 10.4911L16.0354 11.849C16.3324 11.7096 16.5768 11.4493 16.8027 11.2234L15.742 10.1628ZM14.6041 11.849C15.0575 12.0617 15.582 12.0617 16.0354 11.849L15.3982 10.4911C15.3485 10.5144 15.291 10.5144 15.2413 10.4911L14.6041 11.849ZM18.2307 6.3648C18.488 6.62212 18.638 6.77359 18.7358 6.89486C18.8248 7.00531 18.8116 7.0215 18.8064 6.98958L20.2866 6.74682C20.2327 6.41801 20.0724 6.16295 19.9036 5.95356C19.7436 5.75499 19.5252 5.53805 19.2913 5.30414L18.2307 6.3648ZM19.2913 8.73479C19.5252 8.50088 19.7436 8.28394 19.9036 8.08537C20.0724 7.87598 20.2327 7.62091 20.2866 7.2921L18.8064 7.04934C18.8116 7.01742 18.8248 7.03361 18.7358 7.14406C18.638 7.26533 18.488 7.41681 18.2307 7.67413L19.2913 8.73479ZM18.8064 6.98958C18.8097 7.00937 18.8097 7.02955 18.8064 7.04935L20.2866 7.2921C20.3162 7.11155 20.3162 6.92738 20.2866 6.74682L18.8064 6.98958ZM17.6956 3.70838C17.4618 3.47466 17.2451 3.25645 17.0466 3.09651C16.8374 2.92786 16.5826 2.76764 16.2541 2.7136L16.0106 4.19371C15.9787 4.18846 15.9949 4.17535 16.1052 4.26432C16.2264 4.362 16.3778 4.51193 16.6349 4.76905L17.6956 3.70838ZM15.3264 4.76905C15.5835 4.51193 15.7348 4.362 15.856 4.26432C15.9664 4.17535 15.9826 4.18846 15.9507 4.19371L15.7072 2.7136C15.3787 2.76764 15.1238 2.92786 14.9146 3.09651C14.7162 3.25645 14.4994 3.47466 14.2657 3.70838L15.3264 4.76905ZM16.2541 2.7136C16.073 2.68381 15.8883 2.68381 15.7072 2.7136L15.9507 4.19371C15.9705 4.19044 15.9908 4.19044 16.0106 4.19371L16.2541 2.7136ZM2.89333 20.1067C3.73221 20.9456 5.08565 20.9667 5.95032 20.1544L4.92331 19.0612C4.64914 19.3187 4.21998 19.312 3.95399 19.046L2.89333 20.1067ZM3.95399 19.046C3.68799 18.78 3.68129 18.3509 3.93885 18.0767L2.84558 17.0497C2.0333 17.9144 2.05445 19.2678 2.89333 20.1067L3.95399 19.046ZM5.96715 20.1381L13.0526 13.0526L11.992 11.992L4.90649 19.0775L5.96715 20.1381ZM9.94738 9.94738L2.86188 17.0329L3.92254 18.0935L11.008 11.008L9.94738 9.94738ZM18.1367 8.62005C18.7723 9.57501 19.2212 10.5256 19.5365 11.4195L20.9511 10.9206C20.598 9.91953 20.0955 8.8558 19.3853 7.78886L18.1367 8.62005ZM15.7212 11.2017C15.9949 11.4983 16.2546 11.7854 16.5007 12.0624L17.6221 11.0663C17.3697 10.7822 17.1037 10.4881 16.8235 10.1845L15.7212 11.2017Z" fill="#141B34"/>
<path d="M16.9375 20.6667L16.9375 15.3333M18.5 15.3333V14M18.5 22V20.6667M16.9375 18H20.0625M20.0625 18C20.5803 18 21 18.4477 21 19V19.6667C21 20.219 20.5803 20.6667 20.0625 20.6667H16M20.0625 18C20.5803 18 21 17.5523 21 17V16.3333C21 15.781 20.5803 15.3333 20.0625 15.3333H16" stroke="#141B34" stroke-width="1.5" stroke-linecap="round" stroke-linejoin="round"/>
</svg>
