<svg width="24" height="24" viewBox="0 0 24 24" fill="none" xmlns="http://www.w3.org/2000/svg">
<path d="M5.5 3C4.67157 3 4 3.67157 4 4.5C4 5.32843 4.67157 6 5.5 6C6.32843 6 7 5.32843 7 4.5C7 3.67157 6.32843 3 5.5 3Z" stroke="#141B34" stroke-width="1.5" stroke-linecap="round" stroke-linejoin="round"/>
<path d="M18.5 12.5C17.6716 12.5 17 13.1716 17 14C17 14.8284 17.6716 15.5 18.5 15.5C19.3284 15.5 20 14.8284 20 14C20 13.1716 19.3284 12.5 18.5 12.5Z" stroke="#141B34" stroke-width="1.5" stroke-linecap="round" stroke-linejoin="round"/>
<path d="M3.39128 9.05559L3.01783 8.40518V8.40518L3.39128 9.05559ZM7.60872 9.05559L7.98217 8.40518L7.98217 8.40518L7.60872 9.05559ZM2.27715 10.8237L1.76975 11.376H1.76975L2.27715 10.8237ZM8.72285 10.8237L8.21546 10.2714V10.2714L8.72285 10.8237ZM3.76473 9.70601C4.82365 9.098 6.17635 9.098 7.23527 9.70601L7.98217 8.40518C6.46073 7.53161 4.53927 7.53161 3.01783 8.40518L3.76473 9.70601ZM3.78534 12.25H7.21466V10.75H3.78534V12.25ZM2.78454 10.2714C2.67906 10.1745 2.76341 10.2036 2.74842 10.3358C2.73918 10.4173 2.70286 10.405 2.81321 10.3008C2.91205 10.2076 3.05979 10.1056 3.24305 9.99734C3.33146 9.9451 3.42068 9.89565 3.50937 9.84713C3.59319 9.80127 3.68711 9.75057 3.76473 9.70601L3.01783 8.40518C2.82421 8.51635 2.18867 8.82769 1.78361 9.21001C1.57437 9.4075 1.30777 9.72751 1.25797 10.1669C1.20241 10.657 1.43592 11.0693 1.76975 11.376L2.78454 10.2714ZM7.23527 9.706C7.31289 9.75057 7.40681 9.80127 7.49063 9.84713C7.57932 9.89565 7.66854 9.9451 7.75695 9.99734C7.94021 10.1056 8.08795 10.2076 8.18679 10.3008C8.29714 10.405 8.26082 10.4173 8.25158 10.3358C8.23659 10.2036 8.32094 10.1745 8.21546 10.2714L9.23025 11.376C9.56408 11.0693 9.79759 10.657 9.74203 10.1669C9.69223 9.72751 9.42563 9.4075 9.21639 9.21001C8.81133 8.82769 8.17579 8.51635 7.98217 8.40518L7.23527 9.706ZM8.21546 10.2714C7.8569 10.6008 7.55246 10.75 7.21466 10.75V12.25C8.07882 12.25 8.73042 11.8352 9.23025 11.376L8.21546 10.2714ZM1.76975 11.376C2.26958 11.8352 2.92118 12.25 3.78534 12.25V10.75C3.44754 10.75 3.1431 10.6008 2.78454 10.2714L1.76975 11.376Z" fill="#141B34"/>
<path d="M16.3913 18.5556L16.0178 17.9052V17.9052L16.3913 18.5556ZM20.6087 18.5556L20.9822 17.9052L20.9822 17.9052L20.6087 18.5556ZM15.2771 20.3237L14.7697 20.876H14.7697L15.2771 20.3237ZM21.7229 20.3237L21.2155 19.7714V19.7714L21.7229 20.3237ZM16.7647 19.206C17.8237 18.598 19.1763 18.598 20.2353 19.206L20.9822 17.9052C19.4607 17.0316 17.5393 17.0316 16.0178 17.9052L16.7647 19.206ZM16.7853 21.75H20.2147V20.25H16.7853V21.75ZM15.7845 19.7714C15.6791 19.6745 15.7634 19.7036 15.7484 19.8358C15.7392 19.9173 15.7029 19.905 15.8132 19.8008C15.912 19.7076 16.0598 19.6056 16.243 19.4973C16.3315 19.4451 16.4207 19.3957 16.5094 19.3471C16.5932 19.3013 16.6871 19.2506 16.7647 19.206L16.0178 17.9052C15.8242 18.0164 15.1887 18.3277 14.7836 18.71C14.5744 18.9075 14.3078 19.2275 14.258 19.6669C14.2024 20.157 14.4359 20.5693 14.7697 20.876L15.7845 19.7714ZM20.2353 19.206C20.3129 19.2506 20.4068 19.3013 20.4906 19.3471C20.5793 19.3957 20.6685 19.4451 20.757 19.4973C20.9402 19.6056 21.088 19.7076 21.1868 19.8008C21.2971 19.905 21.2608 19.9173 21.2516 19.8358C21.2366 19.7036 21.3209 19.6745 21.2155 19.7714L22.2303 20.876C22.5641 20.5693 22.7976 20.157 22.742 19.6669C22.6922 19.2275 22.4256 18.9075 22.2164 18.71C21.8113 18.3277 21.1758 18.0164 20.9822 17.9052L20.2353 19.206ZM21.2155 19.7714C20.8569 20.1008 20.5525 20.25 20.2147 20.25V21.75C21.0788 21.75 21.7304 21.3352 22.2303 20.876L21.2155 19.7714ZM14.7697 20.876C15.2696 21.3352 15.9212 21.75 16.7853 21.75V20.25C16.4475 20.25 16.1431 20.1008 15.7845 19.7714L14.7697 20.876Z" fill="#141B34"/>
<path d="M11.5 4C14.3284 4 16.7426 4 17.6213 4.87868C18.5 5.75736 18.5 6.67157 18.5 9.5L16.5 8.5" stroke="#141B34" stroke-width="1.5" stroke-linecap="round" stroke-linejoin="round"/>
<path d="M12 20C9.17157 20 6.75736 20 5.87868 19.1213C5 18.2426 5 17.3284 5 14.5L7 15.5" stroke="#141B34" stroke-width="1.5" stroke-linecap="round" stroke-linejoin="round"/>
</svg>
