<svg width="24" height="24" viewBox="0 0 24 24" fill="none" xmlns="http://www.w3.org/2000/svg">
<path d="M5.5 3C4.67157 3 4 3.67157 4 4.5C4 5.32843 4.67157 6 5.5 6C6.32843 6 7 5.32843 7 4.5C7 3.67157 6.32843 3 5.5 3Z" stroke="#141B34" stroke-width="1.5" stroke-linecap="round" stroke-linejoin="round"/>
<path d="M18.5 3C17.6716 3 17 3.67157 17 4.5C17 5.32843 17.6716 6 18.5 6C19.3284 6 20 5.32843 20 4.5C20 3.67157 19.3284 3 18.5 3Z" stroke="#141B34" stroke-width="1.5" stroke-linecap="round" stroke-linejoin="round"/>
<path d="M10 6H10.5" stroke="#141B34" stroke-width="1.5" stroke-linecap="round"/>
<path d="M13.5 6H14" stroke="#141B34" stroke-width="1.5" stroke-linecap="round"/>
<path d="M20.5 14V17C20.5 17.4647 20.5 17.697 20.4616 17.8902C20.3038 18.6836 19.6836 19.3038 18.8902 19.4616C18.697 19.5 18.4647 19.5 18 19.5M3.5 14V17C3.5 17.4647 3.5 17.697 3.53843 17.8902C3.69624 18.6836 4.31644 19.3038 5.10982 19.4616C5.30302 19.5 5.53534 19.5 6 19.5" stroke="#141B34" stroke-width="1.5" stroke-linecap="round" stroke-linejoin="round"/>
<path d="M3.39128 9.05559L3.01783 8.40518V8.40518L3.39128 9.05559ZM7.60872 9.05559L7.98217 8.40518L7.98217 8.40518L7.60872 9.05559ZM2.27715 10.8237L1.76975 11.376H1.76975L2.27715 10.8237ZM8.72285 10.8237L8.21546 10.2714V10.2714L8.72285 10.8237ZM3.76473 9.70601C4.82365 9.098 6.17635 9.098 7.23527 9.70601L7.98217 8.40518C6.46073 7.53161 4.53927 7.53161 3.01783 8.40518L3.76473 9.70601ZM3.78534 12.25H7.21466V10.75H3.78534V12.25ZM2.78454 10.2714C2.67906 10.1745 2.76341 10.2036 2.74842 10.3358C2.73918 10.4173 2.70286 10.405 2.81321 10.3008C2.91205 10.2076 3.05979 10.1056 3.24305 9.99734C3.33146 9.9451 3.42068 9.89565 3.50937 9.84713C3.59319 9.80127 3.68711 9.75057 3.76473 9.70601L3.01783 8.40518C2.82421 8.51635 2.18867 8.82769 1.78361 9.21001C1.57437 9.4075 1.30777 9.72751 1.25797 10.1669C1.20241 10.657 1.43592 11.0693 1.76975 11.376L2.78454 10.2714ZM7.23527 9.706C7.31289 9.75057 7.40681 9.80127 7.49063 9.84713C7.57932 9.89565 7.66854 9.9451 7.75695 9.99734C7.94021 10.1056 8.08795 10.2076 8.18679 10.3008C8.29714 10.405 8.26082 10.4173 8.25158 10.3358C8.23659 10.2036 8.32094 10.1745 8.21546 10.2714L9.23025 11.376C9.56408 11.0693 9.79759 10.657 9.74203 10.1669C9.69223 9.72751 9.42563 9.4075 9.21639 9.21001C8.81133 8.82769 8.17579 8.51635 7.98217 8.40518L7.23527 9.706ZM8.21546 10.2714C7.8569 10.6008 7.55246 10.75 7.21466 10.75V12.25C8.07882 12.25 8.73042 11.8352 9.23025 11.376L8.21546 10.2714ZM1.76975 11.376C2.26958 11.8352 2.92118 12.25 3.78534 12.25V10.75C3.44754 10.75 3.1431 10.6008 2.78454 10.2714L1.76975 11.376Z" fill="#141B34"/>
<path d="M16.3913 9.05559L16.0178 8.40518V8.40518L16.3913 9.05559ZM20.6087 9.05559L20.9822 8.40518L20.9822 8.40518L20.6087 9.05559ZM15.2771 10.8237L14.7697 11.376H14.7697L15.2771 10.8237ZM21.7229 10.8237L21.2155 10.2714V10.2714L21.7229 10.8237ZM16.7647 9.70601C17.8237 9.098 19.1763 9.098 20.2353 9.70601L20.9822 8.40518C19.4607 7.53161 17.5393 7.53161 16.0178 8.40518L16.7647 9.70601ZM16.7853 12.25H20.2147V10.75H16.7853V12.25ZM15.7845 10.2714C15.6791 10.1745 15.7634 10.2036 15.7484 10.3358C15.7392 10.4173 15.7029 10.405 15.8132 10.3008C15.912 10.2076 16.0598 10.1056 16.243 9.99734C16.3315 9.9451 16.4207 9.89565 16.5094 9.84713C16.5932 9.80127 16.6871 9.75057 16.7647 9.70601L16.0178 8.40518C15.8242 8.51635 15.1887 8.82769 14.7836 9.21001C14.5744 9.4075 14.3078 9.72751 14.258 10.1669C14.2024 10.657 14.4359 11.0693 14.7697 11.376L15.7845 10.2714ZM20.2353 9.706C20.3129 9.75057 20.4068 9.80127 20.4906 9.84713C20.5793 9.89565 20.6685 9.9451 20.757 9.99734C20.9402 10.1056 21.088 10.2076 21.1868 10.3008C21.2971 10.405 21.2608 10.4173 21.2516 10.3358C21.2366 10.2036 21.3209 10.1745 21.2155 10.2714L22.2303 11.376C22.5641 11.0693 22.7976 10.657 22.742 10.1669C22.6922 9.72751 22.4256 9.4075 22.2164 9.21001C21.8113 8.82769 21.1758 8.51635 20.9822 8.40518L20.2353 9.706ZM21.2155 10.2714C20.8569 10.6008 20.5525 10.75 20.2147 10.75V12.25C21.0788 12.25 21.7304 11.8352 22.2303 11.376L21.2155 10.2714ZM14.7697 11.376C15.2696 11.8352 15.9212 12.25 16.7853 12.25V10.75C16.4475 10.75 16.1431 10.6008 15.7845 10.2714L14.7697 11.376Z" fill="#141B34"/>
<path d="M10.5 17.0022C10.6502 17 10.8161 17 11 17H13C13.1839 17 13.3498 17 13.5 17.0022M10.5 17.0022C9.88011 17.0111 9.52866 17.0571 9.29289 17.2929C9 17.5858 9 18.0572 9 19C9 19.9428 9 20.4142 9.29289 20.7071C9.58579 21 10.0572 21 11 21H13C13.9428 21 14.4142 21 14.7071 20.7071C15 20.4142 15 19.9428 15 19C15 18.0572 15 17.5858 14.7071 17.2929C14.4713 17.0571 14.1199 17.0111 13.5 17.0022M10.5 17.0022V15.5C10.5 14.6716 11.1716 14 12 14C12.8284 14 13.5 14.6716 13.5 15.5V17.0022" stroke="#141B34" stroke-width="1.5" stroke-linecap="round"/>
</svg>
