<svg width="24" height="24" viewBox="0 0 24 24" fill="none" xmlns="http://www.w3.org/2000/svg">
<path d="M11.9983 2.00012C9.14883 2.00012 7.30123 4.01911 5.11615 4.75502C4.22768 5.05425 3.78345 5.20387 3.60366 5.41477C3.42388 5.62568 3.37124 5.93387 3.26595 6.55026C2.13925 13.1461 4.6019 19.2441 10.475 21.6176C11.106 21.8726 11.4216 22.0001 12.0014 22.0001C12.5812 22.0001 12.8967 21.8726 13.5277 21.6176C19.4005 19.2441 21.8608 13.1461 20.7338 6.55025C20.6284 5.93376 20.5758 5.62552 20.3959 5.41461C20.2161 5.2037 19.7719 5.05417 18.8835 4.75511C16.6976 4.01927 14.8479 2.00012 11.9983 2.00012Z" stroke="#141B34" stroke-width="1.5" stroke-linecap="round" stroke-linejoin="round"/>
<path d="M8.12901 11.1313L12.128 6.1907C12.4408 5.80431 13.027 6.0448 13.027 6.55951V10.3836C13.027 10.6919 13.2569 10.9419 13.5405 10.9419H15.4855C15.9274 10.9419 16.1629 11.5083 15.871 11.8689L11.872 16.8095C11.5592 17.1959 10.973 16.9554 10.973 16.4407V12.6167C10.973 12.3083 10.7431 12.0584 10.4595 12.0584H8.51449C8.07264 12.0584 7.83711 11.4919 8.12901 11.1313Z" stroke="#141B34" stroke-width="1.5" stroke-linecap="round" stroke-linejoin="round"/>
</svg>
