<svg width="24" height="24" viewBox="0 0 24 24" fill="none" xmlns="http://www.w3.org/2000/svg">
<path d="M11.9983 2.00012C9.14883 2.00012 7.30123 4.01911 5.11615 4.75502C4.22768 5.05425 3.78345 5.20387 3.60366 5.41477C3.42388 5.62568 3.37124 5.93387 3.26595 6.55026C2.13925 13.1461 4.6019 19.2441 10.475 21.6176C11.106 21.8726 11.4216 22.0001 12.0014 22.0001C12.5812 22.0001 12.8967 21.8726 13.5277 21.6176C19.4005 19.2441 21.8608 13.1461 20.7338 6.55025C20.6284 5.93376 20.5758 5.62552 20.3959 5.41461C20.2161 5.2037 19.7719 5.05417 18.8835 4.75511C16.6976 4.01927 14.8479 2.00012 11.9983 2.00012Z" stroke="#141B34" stroke-width="1.5" stroke-linecap="round" stroke-linejoin="round"/>
<path d="M12 16.0001C12.1396 16.0001 12.2694 15.9365 12.5289 15.8093L14.6152 14.7869C15.5384 14.3345 16 14.1083 16 13.7501V9.25012M12 16.0001C11.8604 16.0001 11.7306 15.9365 11.4711 15.8093L9.38478 14.7869C8.4616 14.3345 8 14.1083 8 13.7501V9.25012M12 16.0001V11.5001M16 9.25012C16 8.89191 15.5384 8.6657 14.6152 8.2133L12.5289 7.19092C12.2694 7.06372 12.1396 7.00012 12 7.00012C11.8604 7.00012 11.7306 7.06372 11.4711 7.19092L9.38478 8.2133C8.46159 8.6657 8 8.89191 8 9.25012M16 9.25012C16 9.60834 15.5384 9.83454 14.6152 10.2869L12.5289 11.3093C12.2694 11.4365 12.1396 11.5001 12 11.5001M8 9.25012C8 9.60834 8.46159 9.83454 9.38478 10.2869L11.4711 11.3093C11.7306 11.4365 11.8604 11.5001 12 11.5001" stroke="#141B34" stroke-width="1.5" stroke-linejoin="round"/>
</svg>
