<svg width="24" height="24" viewBox="0 0 24 24" fill="none" xmlns="http://www.w3.org/2000/svg">
<ellipse cx="8" cy="4" rx="6" ry="2" stroke="#141B34" stroke-width="1.5"/>
<path d="M15.5 9C11.9102 9 9 11.9101 9 15.5C9 19.0898 11.9102 22 15.5 22C19.0898 22 22 19.0899 22 15.5C22 11.9101 19.0898 9 15.5 9Z" stroke="#141B34" stroke-width="1.5" stroke-linecap="round" stroke-linejoin="round"/>
<path d="M13.25 6.11775C13.25 6.53196 13.5858 6.86775 14 6.86775C14.4142 6.86775 14.75 6.53196 14.75 6.11775H13.25ZM6.05267 14.647C6.46445 14.6918 6.83464 14.3944 6.87951 13.9826C6.92439 13.5709 6.62695 13.2007 6.21518 13.1558L6.05267 14.647ZM7.7442 10.7483C8.15838 10.7538 8.49864 10.4226 8.5042 10.0084C8.50976 9.59425 8.17852 9.25398 7.76434 9.24842L7.7442 10.7483ZM2.75 12V4H1.25V12H2.75ZM14.75 6.11775V4H13.25V6.11775H14.75ZM6.21518 13.1558C5.06218 13.0301 4.11306 12.7901 3.47599 12.502C3.15576 12.3572 2.95145 12.2167 2.83791 12.1035C2.72683 11.9928 2.75 11.9593 2.75 12H1.25C1.25 12.4844 1.4899 12.8777 1.77892 13.1659C2.06547 13.4515 2.44464 13.6819 2.85787 13.8687C3.68775 14.2441 4.80559 14.5111 6.05267 14.647L6.21518 13.1558ZM7.76434 9.24842C6.22086 9.2277 4.8659 9.00485 3.92259 8.67826C3.44723 8.51369 3.11736 8.33671 2.9212 8.17782C2.71854 8.01366 2.75 7.94913 2.75 8H1.25C1.25 8.58944 1.60077 9.03861 1.97707 9.34341C2.35987 9.65348 2.86861 9.90072 3.43185 10.0957C4.56574 10.4883 6.08791 10.726 7.7442 10.7483L7.76434 9.24842Z" fill="#141B34"/>
<path d="M15.5 19C15.6047 19 15.702 18.9505 15.8967 18.8516L17.4614 18.0564C18.1538 17.7045 18.5 17.5286 18.5 17.25V13.75M15.5 19C15.3953 19 15.298 18.9505 15.1033 18.8516L13.5386 18.0564C12.8462 17.7045 12.5 17.5286 12.5 17.25V13.75M15.5 19V15.5M18.5 13.75C18.5 13.4714 18.1538 13.2955 17.4614 12.9436L15.8967 12.1484C15.702 12.0495 15.6047 12 15.5 12C15.3953 12 15.298 12.0495 15.1033 12.1484L13.5386 12.9436C12.8462 13.2955 12.5 13.4714 12.5 13.75M18.5 13.75C18.5 14.0286 18.1538 14.2045 17.4614 14.5564L15.8967 15.3516C15.702 15.4505 15.6047 15.5 15.5 15.5M12.5 13.75C12.5 14.0286 12.8462 14.2045 13.5386 14.5564L15.1033 15.3516C15.298 15.4505 15.3953 15.5 15.5 15.5" stroke="#141B34" stroke-width="1.5" stroke-linejoin="round"/>
</svg>
