<svg width="24" height="24" viewBox="0 0 24 24" fill="none" xmlns="http://www.w3.org/2000/svg">
<path d="M18 21.9999C19.4001 21.9999 20.1002 21.9999 20.635 21.7274C21.1054 21.4877 21.4878 21.1053 21.7275 20.6349C22 20.1001 22 19.4 22 17.9999C22 16.5997 22 15.8997 21.7275 15.3649C21.4878 14.8945 21.1054 14.512 20.635 14.2724C20.1002 13.9999 19.4001 13.9999 18 13.9999L6 13.9999C4.59987 13.9999 3.8998 13.9999 3.36502 14.2724C2.89462 14.512 2.51217 14.8945 2.27248 15.3649C2 15.8997 2 16.5997 2 17.9999C2 19.4 2 20.1001 2.27248 20.6349C2.51217 21.1053 2.89462 21.4877 3.36502 21.7274C3.8998 21.9999 4.59987 21.9999 6 21.9999L18 21.9999Z" stroke="#141B34" stroke-width="1.5"/>
<path d="M12 5.99988L12 13.9999M12 5.99988C11.2998 5.99988 9.99153 7.99418 9.5 8.49988M12 5.99988C12.7002 5.99988 14.0085 7.99418 14.5 8.49988" stroke="#141B34" stroke-width="1.5" stroke-linecap="round" stroke-linejoin="round"/>
<path d="M2 7.99988C2 5.66099 2 4.49154 2.53646 3.63776C2.81621 3.19255 3.19267 2.81609 3.63789 2.53634C4.49167 1.99988 5.66111 1.99988 8 1.99988L16 1.99988C18.3389 1.99988 19.5083 1.99988 20.3621 2.53634C20.8073 2.81609 21.1838 3.19255 21.4635 3.63777C22 4.49155 22 5.66099 22 7.99988" stroke="#141B34" stroke-width="1.5" stroke-linecap="round"/>
</svg>
