<svg width="24" height="24" viewBox="0 0 24 24" fill="none" xmlns="http://www.w3.org/2000/svg">
<path d="M17 15V17M17.009 19H17M22 17C22 19.7614 19.7614 22 17 22C14.2386 22 12 19.7614 12 17C12 14.2386 14.2386 12 17 12C19.7614 12 22 14.2386 22 17Z" stroke="#141B34" stroke-width="1.5" stroke-linecap="round"/>
<path d="M15.0287 9.24471C14.4228 8.20147 13.2933 7.5 12 7.5C10.067 7.5 8.5 9.067 8.5 11C8.5 12.0657 8.97625 13.0201 9.72753 13.662" stroke="#141B34" stroke-width="1.5" stroke-linecap="round"/>
<path d="M13.9373 2V2.75V2ZM18.8669 4.83622L18.2182 5.21258L18.8669 4.83622ZM5.13311 4.83621L5.78184 5.21258L5.13311 4.83621ZM10.0627 2V1.25V2ZM3.20942 13.848L2.56069 14.2244L3.20942 13.848ZM3.20942 8.152L2.56069 7.77564L3.20942 8.152ZM2 11H2.75H2ZM5.13311 17.1638L4.48438 17.5401L5.13311 17.1638ZM6.99807 19.6201L7.37209 18.97L6.99807 19.6201ZM20.7906 8.15201L20.1419 8.52837L20.7906 8.15201ZM21.2399 10.832C21.2894 11.2432 21.663 11.5364 22.0742 11.4868C22.4855 11.4373 22.7787 11.0637 22.7291 10.6525L21.2399 10.832ZM9.57913 20.7495C9.99335 20.7508 10.3301 20.416 10.3313 20.0018C10.3325 19.5875 9.99775 19.2508 9.58354 19.2496L9.57913 20.7495ZM5.78183 16.7874L3.85815 13.4716L2.56069 14.2244L4.48438 17.5401L5.78183 16.7874ZM3.85815 8.52837L5.78184 5.21258L4.48438 4.45985L2.56069 7.77564L3.85815 8.52837ZM10.0627 2.75L13.9373 2.75V1.25L10.0627 1.25V2.75ZM18.2182 5.21258L20.1419 8.52837L21.4393 7.77564L19.5156 4.45985L18.2182 5.21258ZM13.9373 2.75C14.7533 2.75 15.3115 2.75083 15.7497 2.79389C16.1716 2.83535 16.4222 2.91163 16.6279 3.03L17.376 1.72984C16.9214 1.46829 16.4411 1.35461 15.8964 1.30109C15.3681 1.24917 14.7242 1.25 13.9373 1.25V2.75ZM19.5156 4.45985C19.1214 3.78033 18.7994 3.22368 18.4896 2.79326C18.1701 2.34942 17.8306 1.99144 17.376 1.72984L16.6279 3.03C16.8336 3.14832 17.0251 3.32636 17.2722 3.66963C17.529 4.02632 17.8093 4.50785 18.2182 5.21258L19.5156 4.45985ZM5.78184 5.21258C6.1907 4.50784 6.47103 4.02631 6.7278 3.66963C6.97492 3.32636 7.16644 3.14832 7.37209 3.03L6.62404 1.72984C6.16937 1.99144 5.82995 2.34942 5.51044 2.79326C5.20059 3.22368 4.87861 3.78033 4.48438 4.45985L5.78184 5.21258ZM10.0627 1.25C9.27579 1.25 8.6319 1.24917 8.10357 1.30109C7.55891 1.35461 7.07864 1.46829 6.62404 1.72984L7.37209 3.03C7.57783 2.91163 7.82843 2.83535 8.25028 2.79389C8.68846 2.75083 9.24671 2.75 10.0627 2.75V1.25ZM3.85815 13.4716C3.44766 12.7641 3.16766 12.2798 2.98497 11.8784C2.80914 11.4921 2.75 11.2371 2.75 11H1.25C1.25 11.5263 1.39243 12.0004 1.61974 12.4998C1.84019 12.9841 2.1649 13.5421 2.56069 14.2244L3.85815 13.4716ZM2.56069 7.77564C2.1649 8.45785 1.84019 9.01586 1.61974 9.5002C1.39243 9.9996 1.25 10.4737 1.25 11H2.75C2.75 10.7629 2.80914 10.5079 2.98497 10.1216C3.16766 9.72022 3.44766 9.23591 3.85815 8.52837L2.56069 7.77564ZM4.48438 17.5401C4.8786 18.2197 5.20059 18.7763 5.51044 19.2067C5.82995 19.6506 6.16937 20.0086 6.62404 20.2702L7.37209 18.97C7.16644 18.8517 6.97492 18.6736 6.7278 18.3304C6.47103 17.9737 6.19069 17.4922 5.78183 16.7874L4.48438 17.5401ZM20.1419 8.52837C20.5045 9.15348 20.7665 9.60596 20.9507 9.9851C21.1322 10.3586 21.2135 10.6128 21.2399 10.832L22.7291 10.6525C22.6746 10.1998 22.5164 9.77513 22.2999 9.32955C22.0861 8.88964 21.7916 8.38293 21.4393 7.77564L20.1419 8.52837ZM9.58354 19.2496C8.24748 19.2456 7.75886 19.1925 7.37209 18.97L6.62404 20.2702C7.4186 20.7273 8.33709 20.7459 9.57913 20.7495L9.58354 19.2496Z" fill="#141B34"/>
</svg>
