<svg width="24" height="24" viewBox="0 0 24 24" fill="none" xmlns="http://www.w3.org/2000/svg">
<path d="M16 6.5C15.9377 4.78752 15.7251 3.75009 14.9988 3.02513C13.9718 2 12.3188 2 9.01289 2C5.70698 2 4.05403 2 3.02701 3.02513C2 4.05025 2 5.70017 2 9V15C2 18.2998 2 19.9497 3.02701 20.9749C4.05403 22 5.70698 22 9.01289 22C12.3188 22 13.9718 22 14.9988 20.9749C15.7251 20.2499 15.9377 19.2125 16 17.5" stroke="#141B34" stroke-width="1.5" stroke-linecap="round"/>
<path d="M8 19H10" stroke="#141B34" stroke-width="1.5" stroke-linecap="round" stroke-linejoin="round"/>
<path d="M16 11.9911L16 12.0001M20.0483 16.4915C21.2541 15.3398 22 13.7488 22 11.9915C22 10.2341 21.2541 8.64311 20.0483 7.49145M18 9.74145C18.6029 10.3173 18.9759 11.1128 18.9759 11.9915C18.9759 12.8701 18.6029 13.6656 18 14.2415" stroke="#141B34" stroke-width="1.5" stroke-linecap="round"/>
<path d="M6 2L6.089 2.53402C6.28188 3.69129 6.37832 4.26993 6.77519 4.62204C7.18918 4.98934 7.77614 5 9 5C10.2239 5 10.8108 4.98934 11.2248 4.62204C11.6217 4.26993 11.7181 3.69129 11.911 2.53402L12 2" stroke="#141B34" stroke-width="1.5" stroke-linejoin="round"/>
</svg>
