<svg width="24" height="24" viewBox="0 0 24 24" fill="none" xmlns="http://www.w3.org/2000/svg">
<path d="M12 4.5C12 3.11929 10.8807 2 9.5 2C8.11929 2 7 3.11929 7 4.5C5.34315 4.5 4 5.84315 4 7.5C4 8.06866 4.15822 8.60037 4.43304 9.0535C3.04727 9.31855 2 10.537 2 12C2 13.463 3.04727 14.6814 4.43304 14.9465C4.15822 15.3996 4 15.9313 4 16.5C4 18.1569 5.34315 19.5 7 19.5C7 20.8807 8.11929 22 9.5 22C10.8807 22 12 20.8807 12 19.5" stroke="#141B34" stroke-width="1.5" stroke-linecap="round" stroke-linejoin="round"/>
<path d="M12 19.4999C12 20.8806 13.1193 21.9999 14.5 21.9999C15.8807 21.9999 17 20.8806 17 19.4999C18.6569 19.4999 20 18.1567 20 16.4999C20 15.9312 19.8418 15.3995 19.567 14.9464C20.9527 14.6813 22 13.4629 22 11.9999C22 10.5369 20.9527 9.31843 19.567 9.05338C19.8418 8.60024 20 8.06854 20 7.49988C20 5.84302 18.6569 4.49988 17 4.49988C17 3.11917 15.8807 1.99988 14.5 1.99988C13.1193 1.99988 12 3.11917 12 4.49988" stroke="#141B34" stroke-width="1.5" stroke-linecap="round" stroke-linejoin="round"/>
<path d="M9.29289 14.707L9.82322 14.1767L9.82322 14.1767L9.29289 14.707ZM14.7071 14.707L14.1768 14.1767L14.1768 14.1767L14.7071 14.707ZM14.7071 9.29277L14.1768 9.8231L14.1768 9.8231L14.7071 9.29277ZM11.25 14.9999C11.25 14.5857 10.9142 14.2499 10.5 14.2499C10.0858 14.2499 9.75 14.5857 9.75 14.9999H11.25ZM9.75 16.9999C9.75 17.4141 10.0858 17.7499 10.5 17.7499C10.9142 17.7499 11.25 17.4141 11.25 16.9999H9.75ZM14.25 14.9999C14.25 14.5857 13.9142 14.2499 13.5 14.2499C13.0858 14.2499 12.75 14.5857 12.75 14.9999H14.25ZM12.75 16.9999C12.75 17.4141 13.0858 17.7499 13.5 17.7499C13.9142 17.7499 14.25 17.4141 14.25 16.9999H12.75ZM11.25 6.99988C11.25 6.58566 10.9142 6.24988 10.5 6.24988C10.0858 6.24988 9.75 6.58566 9.75 6.99988H11.25ZM9.75 8.99988C9.75 9.41409 10.0858 9.74988 10.5 9.74988C10.9142 9.74988 11.25 9.41409 11.25 8.99988H9.75ZM14.25 6.99988C14.25 6.58566 13.9142 6.24988 13.5 6.24988C13.0858 6.24988 12.75 6.58566 12.75 6.99988H14.25ZM12.75 8.99988C12.75 9.41409 13.0858 9.74988 13.5 9.74988C13.9142 9.74988 14.25 9.41409 14.25 8.99988H12.75ZM9 11.2499C9.41421 11.2499 9.75 10.9141 9.75 10.4999C9.75 10.0857 9.41421 9.74988 9 9.74988V11.2499ZM7 9.74988C6.58579 9.74988 6.25 10.0857 6.25 10.4999C6.25 10.9141 6.58579 11.2499 7 11.2499V9.74988ZM9 14.2499C9.41421 14.2499 9.75 13.9141 9.75 13.4999C9.75 13.0857 9.41421 12.7499 9 12.7499V14.2499ZM7 12.7499C6.58579 12.7499 6.25 13.0857 6.25 13.4999C6.25 13.9141 6.58579 14.2499 7 14.2499V12.7499ZM17 11.2499C17.4142 11.2499 17.75 10.9141 17.75 10.4999C17.75 10.0857 17.4142 9.74988 17 9.74988V11.2499ZM15 9.74988C14.5858 9.74988 14.25 10.0857 14.25 10.4999C14.25 10.9141 14.5858 11.2499 15 11.2499V9.74988ZM17 14.2499C17.4142 14.2499 17.75 13.9141 17.75 13.4999C17.75 13.0857 17.4142 12.7499 17 12.7499V14.2499ZM15 12.7499C14.5858 12.7499 14.25 13.0857 14.25 13.4999C14.25 13.9141 14.5858 14.2499 15 14.2499V12.7499ZM11 9.74988H13V8.24988H11V9.74988ZM14.25 10.9999V12.9999H15.75V10.9999H14.25ZM13 14.2499H11V15.7499H13V14.2499ZM9.75 12.9999V10.9999H8.25V12.9999H9.75ZM11 14.2499C10.5074 14.2499 10.2134 14.2483 10.0027 14.22C9.90611 14.207 9.85774 14.1917 9.83596 14.1827C9.83092 14.1806 9.8276 14.179 9.82567 14.178C9.82376 14.177 9.82292 14.1765 9.82283 14.1764C9.82277 14.1764 9.823 14.1765 9.82335 14.1768C9.8237 14.1771 9.82368 14.1771 9.82322 14.1767L8.76256 15.2373C9.07159 15.5463 9.44731 15.6588 9.80279 15.7066C10.1367 15.7515 10.5498 15.7499 11 15.7499V14.2499ZM8.25 12.9999C8.25 13.4501 8.24841 13.8632 8.2933 14.1971C8.34109 14.5526 8.45354 14.9283 8.76256 15.2373L9.82322 14.1767C9.82277 14.1762 9.82279 14.1762 9.82307 14.1765C9.82335 14.1769 9.82351 14.1771 9.82347 14.177C9.82341 14.177 9.82286 14.1761 9.82186 14.1742C9.82085 14.1723 9.81923 14.169 9.81716 14.1639C9.8082 14.1421 9.79291 14.0938 9.77992 13.9972C9.75159 13.7865 9.75 13.4925 9.75 12.9999H8.25ZM14.25 12.9999C14.25 13.4925 14.2484 13.7865 14.2201 13.9972C14.2071 14.0938 14.1918 14.1421 14.1828 14.1639C14.1808 14.169 14.1791 14.1723 14.1781 14.1742C14.1771 14.1761 14.1766 14.177 14.1765 14.177C14.1765 14.1771 14.1766 14.1769 14.1769 14.1765C14.1772 14.1762 14.1772 14.1762 14.1768 14.1767L15.2374 15.2373C15.5465 14.9283 15.6589 14.5526 15.7067 14.1971C15.7516 13.8632 15.75 13.4501 15.75 12.9999H14.25ZM13 15.7499C13.4502 15.7499 13.8633 15.7515 14.1972 15.7066C14.5527 15.6588 14.9284 15.5463 15.2374 15.2373L14.1768 14.1767C14.1763 14.1771 14.1763 14.1771 14.1766 14.1768C14.177 14.1765 14.1772 14.1764 14.1772 14.1764C14.1771 14.1765 14.1762 14.177 14.1743 14.178C14.1724 14.179 14.1691 14.1806 14.164 14.1827C14.1423 14.1917 14.0939 14.207 13.9973 14.22C13.7866 14.2483 13.4926 14.2499 13 14.2499V15.7499ZM13 9.74988C13.4926 9.74988 13.7866 9.75147 13.9973 9.7798C14.0939 9.79278 14.1423 9.80808 14.164 9.81704C14.1691 9.81911 14.1724 9.82073 14.1743 9.82174C14.1762 9.82274 14.1771 9.82329 14.1772 9.82334C14.1772 9.82339 14.177 9.82323 14.1766 9.82295C14.1763 9.82267 14.1763 9.82264 14.1768 9.8231L15.2374 8.76244C14.9284 8.45342 14.5527 8.34097 14.1972 8.29318C13.8633 8.24829 13.4502 8.24988 13 8.24988V9.74988ZM15.75 10.9999C15.75 10.5497 15.7516 10.1366 15.7067 9.80267C15.6589 9.44719 15.5465 9.07146 15.2374 8.76244L14.1768 9.8231C14.1772 9.82356 14.1772 9.82357 14.1769 9.82323C14.1766 9.82288 14.1765 9.82264 14.1765 9.82271C14.1766 9.82279 14.1771 9.82364 14.1781 9.82555C14.1791 9.82748 14.1808 9.8308 14.1828 9.83584C14.1918 9.85762 14.2071 9.90598 14.2201 10.0025C14.2484 10.2133 14.25 10.5073 14.25 10.9999H15.75ZM11 8.24988C10.5498 8.24988 10.1367 8.24829 9.80279 8.29318C9.44731 8.34097 9.07159 8.45342 8.76256 8.76244L9.82322 9.8231C9.82368 9.82264 9.8237 9.82267 9.82335 9.82295C9.823 9.82323 9.82277 9.82339 9.82283 9.82334C9.82292 9.82329 9.82376 9.82274 9.82567 9.82174C9.8276 9.82073 9.83092 9.81911 9.83596 9.81704C9.85774 9.80808 9.90611 9.79278 10.0027 9.7798C10.2134 9.75147 10.5074 9.74988 11 9.74988V8.24988ZM9.75 10.9999C9.75 10.5073 9.75159 10.2133 9.77992 10.0025C9.79291 9.90598 9.8082 9.85762 9.81716 9.83584C9.81923 9.8308 9.82085 9.82748 9.82186 9.82555C9.82286 9.82364 9.82341 9.82279 9.82347 9.82271C9.82351 9.82264 9.82335 9.82288 9.82307 9.82323C9.82279 9.82357 9.82277 9.82356 9.82322 9.8231L8.76256 8.76244C8.45354 9.07146 8.34109 9.44719 8.2933 9.80267C8.24841 10.1366 8.25 10.5497 8.25 10.9999H9.75ZM9.75 14.9999V16.9999H11.25V14.9999H9.75ZM12.75 14.9999V16.9999H14.25V14.9999H12.75ZM9.75 6.99988V8.99988H11.25V6.99988H9.75ZM12.75 6.99988V8.99988H14.25V6.99988H12.75ZM9 9.74988H7V11.2499H9V9.74988ZM9 12.7499H7V14.2499H9V12.7499ZM17 9.74988H15V11.2499H17V9.74988ZM17 12.7499H15V14.2499H17V12.7499Z" fill="#141B34"/>
</svg>
