<svg width="24" height="24" viewBox="0 0 24 24" fill="none" xmlns="http://www.w3.org/2000/svg">
<path d="M14.1706 20.8905C18.3536 20.6125 21.6856 17.2332 21.9598 12.9909C22.0134 12.1607 22.0134 11.3009 21.9598 10.4707C21.6856 6.22838 18.3536 2.84913 14.1706 2.57107C12.7435 2.47621 11.2536 2.47641 9.8294 2.57107C5.64639 2.84913 2.31441 6.22838 2.04024 10.4707C1.98659 11.3009 1.98659 12.1607 2.04024 12.9909C2.1401 14.536 2.82343 15.9666 3.62791 17.1746C4.09501 18.0203 3.78674 19.0758 3.30021 19.9978C2.94941 20.6626 2.77401 20.995 2.91484 21.2351C3.05568 21.4752 3.37026 21.4829 3.99943 21.4982C5.24367 21.5285 6.08268 21.1757 6.74868 20.6846C7.1264 20.4061 7.31527 20.2668 7.44544 20.2508C7.5756 20.2348 7.83177 20.3403 8.34401 20.5513C8.8044 20.7409 9.33896 20.8579 9.8294 20.8905C11.2536 20.9852 12.7435 20.9854 14.1706 20.8905Z" stroke="#141B34" stroke-width="1.5" stroke-linejoin="round"/>
<path d="M9.29289 14.7071L9.82322 14.1768L9.82322 14.1768L9.29289 14.7071ZM14.7071 14.7071L14.1768 14.1768L14.1768 14.1768L14.7071 14.7071ZM14.7071 9.29289L14.1768 9.82322L14.1768 9.82322L14.7071 9.29289ZM11.25 15C11.25 14.5858 10.9142 14.25 10.5 14.25C10.0858 14.25 9.75 14.5858 9.75 15H11.25ZM9.75 17C9.75 17.4142 10.0858 17.75 10.5 17.75C10.9142 17.75 11.25 17.4142 11.25 17H9.75ZM14.25 15C14.25 14.5858 13.9142 14.25 13.5 14.25C13.0858 14.25 12.75 14.5858 12.75 15H14.25ZM12.75 17C12.75 17.4142 13.0858 17.75 13.5 17.75C13.9142 17.75 14.25 17.4142 14.25 17H12.75ZM11.25 7C11.25 6.58579 10.9142 6.25 10.5 6.25C10.0858 6.25 9.75 6.58579 9.75 7H11.25ZM9.75 9C9.75 9.41421 10.0858 9.75 10.5 9.75C10.9142 9.75 11.25 9.41421 11.25 9H9.75ZM14.25 7C14.25 6.58579 13.9142 6.25 13.5 6.25C13.0858 6.25 12.75 6.58579 12.75 7H14.25ZM12.75 9C12.75 9.41421 13.0858 9.75 13.5 9.75C13.9142 9.75 14.25 9.41421 14.25 9H12.75ZM9 11.25C9.41421 11.25 9.75 10.9142 9.75 10.5C9.75 10.0858 9.41421 9.75 9 9.75V11.25ZM7 9.75C6.58579 9.75 6.25 10.0858 6.25 10.5C6.25 10.9142 6.58579 11.25 7 11.25V9.75ZM9 14.25C9.41421 14.25 9.75 13.9142 9.75 13.5C9.75 13.0858 9.41421 12.75 9 12.75V14.25ZM7 12.75C6.58579 12.75 6.25 13.0858 6.25 13.5C6.25 13.9142 6.58579 14.25 7 14.25V12.75ZM17 11.25C17.4142 11.25 17.75 10.9142 17.75 10.5C17.75 10.0858 17.4142 9.75 17 9.75V11.25ZM15 9.75C14.5858 9.75 14.25 10.0858 14.25 10.5C14.25 10.9142 14.5858 11.25 15 11.25V9.75ZM17 14.25C17.4142 14.25 17.75 13.9142 17.75 13.5C17.75 13.0858 17.4142 12.75 17 12.75V14.25ZM15 12.75C14.5858 12.75 14.25 13.0858 14.25 13.5C14.25 13.9142 14.5858 14.25 15 14.25V12.75ZM11 9.75H13V8.25H11V9.75ZM14.25 11V13H15.75V11H14.25ZM13 14.25H11V15.75H13V14.25ZM9.75 13V11H8.25V13H9.75ZM11 14.25C10.5074 14.25 10.2134 14.2484 10.0027 14.2201C9.90611 14.2071 9.85774 14.1918 9.83596 14.1828C9.83092 14.1808 9.8276 14.1791 9.82567 14.1781C9.82376 14.1771 9.82292 14.1766 9.82283 14.1765C9.82277 14.1765 9.823 14.1766 9.82335 14.1769C9.8237 14.1772 9.82368 14.1772 9.82322 14.1768L8.76256 15.2374C9.07159 15.5465 9.44731 15.6589 9.80279 15.7067C10.1367 15.7516 10.5498 15.75 11 15.75V14.25ZM8.25 13C8.25 13.4502 8.24841 13.8633 8.2933 14.1972C8.34109 14.5527 8.45354 14.9284 8.76256 15.2374L9.82322 14.1768C9.82277 14.1763 9.82279 14.1763 9.82307 14.1766C9.82335 14.177 9.82351 14.1772 9.82347 14.1772C9.82341 14.1771 9.82286 14.1762 9.82186 14.1743C9.82085 14.1724 9.81923 14.1691 9.81716 14.164C9.8082 14.1423 9.79291 14.0939 9.77992 13.9973C9.75159 13.7866 9.75 13.4926 9.75 13H8.25ZM14.25 13C14.25 13.4926 14.2484 13.7866 14.2201 13.9973C14.2071 14.0939 14.1918 14.1423 14.1828 14.164C14.1808 14.1691 14.1791 14.1724 14.1781 14.1743C14.1771 14.1762 14.1766 14.1771 14.1765 14.1772C14.1765 14.1772 14.1766 14.177 14.1769 14.1766C14.1772 14.1763 14.1772 14.1763 14.1768 14.1768L15.2374 15.2374C15.5465 14.9284 15.6589 14.5527 15.7067 14.1972C15.7516 13.8633 15.75 13.4502 15.75 13H14.25ZM13 15.75C13.4502 15.75 13.8633 15.7516 14.1972 15.7067C14.5527 15.6589 14.9284 15.5465 15.2374 15.2374L14.1768 14.1768C14.1763 14.1772 14.1763 14.1772 14.1766 14.1769C14.177 14.1766 14.1772 14.1765 14.1772 14.1765C14.1771 14.1766 14.1762 14.1771 14.1743 14.1781C14.1724 14.1791 14.1691 14.1808 14.164 14.1828C14.1423 14.1918 14.0939 14.2071 13.9973 14.2201C13.7866 14.2484 13.4926 14.25 13 14.25V15.75ZM13 9.75C13.4926 9.75 13.7866 9.75159 13.9973 9.77992C14.0939 9.79291 14.1423 9.8082 14.164 9.81716C14.1691 9.81923 14.1724 9.82085 14.1743 9.82186C14.1762 9.82286 14.1771 9.82341 14.1772 9.82347C14.1772 9.82351 14.177 9.82335 14.1766 9.82307C14.1763 9.82279 14.1763 9.82277 14.1768 9.82322L15.2374 8.76256C14.9284 8.45354 14.5527 8.34109 14.1972 8.2933C13.8633 8.24841 13.4502 8.25 13 8.25V9.75ZM15.75 11C15.75 10.5498 15.7516 10.1367 15.7067 9.80279C15.6589 9.44731 15.5465 9.07159 15.2374 8.76256L14.1768 9.82322C14.1772 9.82368 14.1772 9.8237 14.1769 9.82335C14.1766 9.823 14.1765 9.82277 14.1765 9.82283C14.1766 9.82292 14.1771 9.82376 14.1781 9.82567C14.1791 9.8276 14.1808 9.83092 14.1828 9.83596C14.1918 9.85774 14.2071 9.90611 14.2201 10.0027C14.2484 10.2134 14.25 10.5074 14.25 11H15.75ZM11 8.25C10.5498 8.25 10.1367 8.24841 9.80279 8.2933C9.44731 8.34109 9.07159 8.45354 8.76256 8.76256L9.82322 9.82322C9.82368 9.82277 9.8237 9.82279 9.82335 9.82307C9.823 9.82335 9.82277 9.82351 9.82283 9.82347C9.82292 9.82341 9.82376 9.82286 9.82567 9.82186C9.8276 9.82085 9.83092 9.81923 9.83596 9.81716C9.85774 9.8082 9.90611 9.79291 10.0027 9.77992C10.2134 9.75159 10.5074 9.75 11 9.75V8.25ZM9.75 11C9.75 10.5074 9.75159 10.2134 9.77992 10.0027C9.79291 9.90611 9.8082 9.85774 9.81716 9.83596C9.81923 9.83092 9.82085 9.8276 9.82186 9.82567C9.82286 9.82376 9.82341 9.82292 9.82347 9.82283C9.82351 9.82277 9.82335 9.823 9.82307 9.82335C9.82279 9.8237 9.82277 9.82368 9.82322 9.82322L8.76256 8.76256C8.45354 9.07159 8.34109 9.44731 8.2933 9.80279C8.24841 10.1367 8.25 10.5498 8.25 11H9.75ZM9.75 15V17H11.25V15H9.75ZM12.75 15V17H14.25V15H12.75ZM9.75 7V9H11.25V7H9.75ZM12.75 7V9H14.25V7H12.75ZM9 9.75H7V11.25H9V9.75ZM9 12.75H7V14.25H9V12.75ZM17 9.75H15V11.25H17V9.75ZM17 12.75H15V14.25H17V12.75Z" fill="#141B34"/>
</svg>
