<svg width="24" height="24" viewBox="0 0 24 24" fill="none" xmlns="http://www.w3.org/2000/svg">
<path d="M7.50044 14C3.00088 11.6 3.00088 10.4 3.00088 10C3.00088 9.6 3.00088 8.4 7.50044 6M7.50044 14C3.00088 16.4 3 17.2 3 18M7.50044 14C11.9991 11.6005 11.9991 10.4005 11.9991 10.0002C11.9991 9.6 11.9991 8.39953 7.50044 6M12 2C12 2.8 12 3.6 7.50044 6M7.50044 6L5.31262 4.7443C3.00057 3.28149 3 2.64075 3 2" stroke="#141B34" stroke-width="1.5" stroke-linecap="round"/>
<path d="M13.2929 19.7071L13.8232 19.1768L13.8232 19.1768L13.2929 19.7071ZM18.7071 19.7071L18.1768 19.1768L18.1768 19.1768L18.7071 19.7071ZM18.7071 14.2929L18.1768 14.8232L18.1768 14.8232L18.7071 14.2929ZM15.25 20C15.25 19.5858 14.9142 19.25 14.5 19.25C14.0858 19.25 13.75 19.5858 13.75 20H15.25ZM13.75 22C13.75 22.4142 14.0858 22.75 14.5 22.75C14.9142 22.75 15.25 22.4142 15.25 22H13.75ZM18.25 20C18.25 19.5858 17.9142 19.25 17.5 19.25C17.0858 19.25 16.75 19.5858 16.75 20H18.25ZM16.75 22C16.75 22.4142 17.0858 22.75 17.5 22.75C17.9142 22.75 18.25 22.4142 18.25 22H16.75ZM15.25 12C15.25 11.5858 14.9142 11.25 14.5 11.25C14.0858 11.25 13.75 11.5858 13.75 12H15.25ZM13.75 14C13.75 14.4142 14.0858 14.75 14.5 14.75C14.9142 14.75 15.25 14.4142 15.25 14H13.75ZM18.25 12C18.25 11.5858 17.9142 11.25 17.5 11.25C17.0858 11.25 16.75 11.5858 16.75 12H18.25ZM16.75 14C16.75 14.4142 17.0858 14.75 17.5 14.75C17.9142 14.75 18.25 14.4142 18.25 14H16.75ZM13 16.25C13.4142 16.25 13.75 15.9142 13.75 15.5C13.75 15.0858 13.4142 14.75 13 14.75V16.25ZM11 14.75C10.5858 14.75 10.25 15.0858 10.25 15.5C10.25 15.9142 10.5858 16.25 11 16.25V14.75ZM13 19.25C13.4142 19.25 13.75 18.9142 13.75 18.5C13.75 18.0858 13.4142 17.75 13 17.75V19.25ZM11 17.75C10.5858 17.75 10.25 18.0858 10.25 18.5C10.25 18.9142 10.5858 19.25 11 19.25V17.75ZM21 16.25C21.4142 16.25 21.75 15.9142 21.75 15.5C21.75 15.0858 21.4142 14.75 21 14.75V16.25ZM19 14.75C18.5858 14.75 18.25 15.0858 18.25 15.5C18.25 15.9142 18.5858 16.25 19 16.25V14.75ZM21 19.25C21.4142 19.25 21.75 18.9142 21.75 18.5C21.75 18.0858 21.4142 17.75 21 17.75V19.25ZM19 17.75C18.5858 17.75 18.25 18.0858 18.25 18.5C18.25 18.9142 18.5858 19.25 19 19.25V17.75ZM15 14.75H17V13.25H15V14.75ZM18.25 16V18H19.75V16H18.25ZM17 19.25H15V20.75H17V19.25ZM13.75 18V16H12.25V18H13.75ZM15 19.25C14.5074 19.25 14.2134 19.2484 14.0027 19.2201C13.9061 19.2071 13.8577 19.1918 13.836 19.1828C13.8309 19.1808 13.8276 19.1791 13.8257 19.1781C13.8238 19.1771 13.8229 19.1766 13.8228 19.1765C13.8228 19.1765 13.823 19.1766 13.8234 19.1769C13.8237 19.1772 13.8237 19.1772 13.8232 19.1768L12.7626 20.2374C13.0716 20.5465 13.4473 20.6589 13.8028 20.7067C14.1367 20.7516 14.5498 20.75 15 20.75V19.25ZM12.25 18C12.25 18.4502 12.2484 18.8633 12.2933 19.1972C12.3411 19.5527 12.4535 19.9284 12.7626 20.2374L13.8232 19.1768C13.8228 19.1763 13.8228 19.1763 13.8231 19.1766C13.8234 19.177 13.8235 19.1772 13.8235 19.1772C13.8234 19.1771 13.8229 19.1762 13.8219 19.1743C13.8209 19.1724 13.8192 19.1691 13.8172 19.164C13.8082 19.1423 13.7929 19.0939 13.7799 18.9973C13.7516 18.7866 13.75 18.4926 13.75 18H12.25ZM18.25 18C18.25 18.4926 18.2484 18.7866 18.2201 18.9973C18.2071 19.0939 18.1918 19.1423 18.1828 19.164C18.1808 19.1691 18.1791 19.1724 18.1781 19.1743C18.1771 19.1762 18.1766 19.1771 18.1765 19.1772C18.1765 19.1772 18.1766 19.177 18.1769 19.1766C18.1772 19.1763 18.1772 19.1763 18.1768 19.1768L19.2374 20.2374C19.5465 19.9284 19.6589 19.5527 19.7067 19.1972C19.7516 18.8633 19.75 18.4502 19.75 18H18.25ZM17 20.75C17.4502 20.75 17.8633 20.7516 18.1972 20.7067C18.5527 20.6589 18.9284 20.5465 19.2374 20.2374L18.1768 19.1768C18.1763 19.1772 18.1763 19.1772 18.1766 19.1769C18.177 19.1766 18.1772 19.1765 18.1772 19.1765C18.1771 19.1766 18.1762 19.1771 18.1743 19.1781C18.1724 19.1791 18.1691 19.1808 18.164 19.1828C18.1423 19.1918 18.0939 19.2071 17.9973 19.2201C17.7866 19.2484 17.4926 19.25 17 19.25V20.75ZM17 14.75C17.4926 14.75 17.7866 14.7516 17.9973 14.7799C18.0939 14.7929 18.1423 14.8082 18.164 14.8172C18.1691 14.8192 18.1724 14.8209 18.1743 14.8219C18.1762 14.8229 18.1771 14.8234 18.1772 14.8235C18.1772 14.8235 18.177 14.8234 18.1766 14.8231C18.1763 14.8228 18.1763 14.8228 18.1768 14.8232L19.2374 13.7626C18.9284 13.4535 18.5527 13.3411 18.1972 13.2933C17.8633 13.2484 17.4502 13.25 17 13.25V14.75ZM19.75 16C19.75 15.5498 19.7516 15.1367 19.7067 14.8028C19.6589 14.4473 19.5465 14.0716 19.2374 13.7626L18.1768 14.8232C18.1772 14.8237 18.1772 14.8237 18.1769 14.8234C18.1766 14.823 18.1765 14.8228 18.1765 14.8228C18.1766 14.8229 18.1771 14.8238 18.1781 14.8257C18.1791 14.8276 18.1808 14.8309 18.1828 14.836C18.1918 14.8577 18.2071 14.9061 18.2201 15.0027C18.2484 15.2134 18.25 15.5074 18.25 16H19.75ZM15 13.25C14.5498 13.25 14.1367 13.2484 13.8028 13.2933C13.4473 13.3411 13.0716 13.4535 12.7626 13.7626L13.8232 14.8232C13.8237 14.8228 13.8237 14.8228 13.8234 14.8231C13.823 14.8234 13.8228 14.8235 13.8228 14.8235C13.8229 14.8234 13.8238 14.8229 13.8257 14.8219C13.8276 14.8209 13.8309 14.8192 13.836 14.8172C13.8577 14.8082 13.9061 14.7929 14.0027 14.7799C14.2134 14.7516 14.5074 14.75 15 14.75V13.25ZM13.75 16C13.75 15.5074 13.7516 15.2134 13.7799 15.0027C13.7929 14.9061 13.8082 14.8577 13.8172 14.836C13.8192 14.8309 13.8209 14.8276 13.8219 14.8257C13.8229 14.8238 13.8234 14.8229 13.8235 14.8228C13.8235 14.8228 13.8234 14.823 13.8231 14.8234C13.8228 14.8237 13.8228 14.8237 13.8232 14.8232L12.7626 13.7626C12.4535 14.0716 12.3411 14.4473 12.2933 14.8028C12.2484 15.1367 12.25 15.5498 12.25 16H13.75ZM13.75 20V22H15.25V20H13.75ZM16.75 20V22H18.25V20H16.75ZM13.75 12V14H15.25V12H13.75ZM16.75 12V14H18.25V12H16.75ZM13 14.75H11V16.25H13V14.75ZM13 17.75H11V19.25H13V17.75ZM21 14.75H19V16.25H21V14.75ZM21 17.75H19V19.25H21V17.75Z" fill="#141B34"/>
</svg>
