<svg width="24" height="24" viewBox="0 0 24 24" fill="none" xmlns="http://www.w3.org/2000/svg">
<path d="M7 6H16.75C18.8567 6 19.91 6 20.6667 6.50559C20.9943 6.72447 21.2755 7.00572 21.4944 7.33329C22 8.08996 22 9.14331 22 11.25C22 14.7612 22 16.5167 21.1573 17.7779C20.975 18.0508 20.7666 18.3045 20.5355 18.5355M3.46447 18.5355C2 17.0711 2 14.714 2 10V6.94427C2 5.1278 2 4.21956 2.38032 3.53806C2.65142 3.05227 3.05227 2.65142 3.53806 2.38032C4.21956 2 5.1278 2 6.94427 2C8.10802 2 8.6899 2 9.19926 2.19101C10.3622 2.62712 10.8418 3.68358 11.3666 4.73313L12 6" stroke="#141B34" stroke-width="1.5" stroke-linecap="round"/>
<path d="M9.29289 19.7071L9.82322 19.1768L9.82322 19.1768L9.29289 19.7071ZM14.7071 19.7071L14.1768 19.1768L14.1768 19.1768L14.7071 19.7071ZM14.7071 14.2929L14.1768 14.8232L14.1768 14.8232L14.7071 14.2929ZM11.25 20C11.25 19.5858 10.9142 19.25 10.5 19.25C10.0858 19.25 9.75 19.5858 9.75 20H11.25ZM9.75 22C9.75 22.4142 10.0858 22.75 10.5 22.75C10.9142 22.75 11.25 22.4142 11.25 22H9.75ZM14.25 20C14.25 19.5858 13.9142 19.25 13.5 19.25C13.0858 19.25 12.75 19.5858 12.75 20H14.25ZM12.75 22C12.75 22.4142 13.0858 22.75 13.5 22.75C13.9142 22.75 14.25 22.4142 14.25 22H12.75ZM11.25 12C11.25 11.5858 10.9142 11.25 10.5 11.25C10.0858 11.25 9.75 11.5858 9.75 12H11.25ZM9.75 14C9.75 14.4142 10.0858 14.75 10.5 14.75C10.9142 14.75 11.25 14.4142 11.25 14H9.75ZM14.25 12C14.25 11.5858 13.9142 11.25 13.5 11.25C13.0858 11.25 12.75 11.5858 12.75 12H14.25ZM12.75 14C12.75 14.4142 13.0858 14.75 13.5 14.75C13.9142 14.75 14.25 14.4142 14.25 14H12.75ZM9 16.25C9.41421 16.25 9.75 15.9142 9.75 15.5C9.75 15.0858 9.41421 14.75 9 14.75V16.25ZM7 14.75C6.58579 14.75 6.25 15.0858 6.25 15.5C6.25 15.9142 6.58579 16.25 7 16.25V14.75ZM9 19.25C9.41421 19.25 9.75 18.9142 9.75 18.5C9.75 18.0858 9.41421 17.75 9 17.75V19.25ZM7 17.75C6.58579 17.75 6.25 18.0858 6.25 18.5C6.25 18.9142 6.58579 19.25 7 19.25V17.75ZM17 16.25C17.4142 16.25 17.75 15.9142 17.75 15.5C17.75 15.0858 17.4142 14.75 17 14.75V16.25ZM15 14.75C14.5858 14.75 14.25 15.0858 14.25 15.5C14.25 15.9142 14.5858 16.25 15 16.25V14.75ZM17 19.25C17.4142 19.25 17.75 18.9142 17.75 18.5C17.75 18.0858 17.4142 17.75 17 17.75V19.25ZM15 17.75C14.5858 17.75 14.25 18.0858 14.25 18.5C14.25 18.9142 14.5858 19.25 15 19.25V17.75ZM11 14.75H13V13.25H11V14.75ZM14.25 16V18H15.75V16H14.25ZM13 19.25H11V20.75H13V19.25ZM9.75 18V16H8.25V18H9.75ZM11 19.25C10.5074 19.25 10.2134 19.2484 10.0027 19.2201C9.90611 19.2071 9.85774 19.1918 9.83596 19.1828C9.83092 19.1808 9.8276 19.1791 9.82567 19.1781C9.82376 19.1771 9.82292 19.1766 9.82283 19.1765C9.82277 19.1765 9.823 19.1766 9.82335 19.1769C9.8237 19.1772 9.82368 19.1772 9.82322 19.1768L8.76256 20.2374C9.07159 20.5465 9.44731 20.6589 9.80279 20.7067C10.1367 20.7516 10.5498 20.75 11 20.75V19.25ZM8.25 18C8.25 18.4502 8.24841 18.8633 8.2933 19.1972C8.34109 19.5527 8.45354 19.9284 8.76256 20.2374L9.82322 19.1768C9.82277 19.1763 9.82279 19.1763 9.82307 19.1766C9.82335 19.177 9.82351 19.1772 9.82347 19.1772C9.82341 19.1771 9.82286 19.1762 9.82186 19.1743C9.82085 19.1724 9.81923 19.1691 9.81716 19.164C9.8082 19.1423 9.79291 19.0939 9.77992 18.9973C9.75159 18.7866 9.75 18.4926 9.75 18H8.25ZM14.25 18C14.25 18.4926 14.2484 18.7866 14.2201 18.9973C14.2071 19.0939 14.1918 19.1423 14.1828 19.164C14.1808 19.1691 14.1791 19.1724 14.1781 19.1743C14.1771 19.1762 14.1766 19.1771 14.1765 19.1772C14.1765 19.1772 14.1766 19.177 14.1769 19.1766C14.1772 19.1763 14.1772 19.1763 14.1768 19.1768L15.2374 20.2374C15.5465 19.9284 15.6589 19.5527 15.7067 19.1972C15.7516 18.8633 15.75 18.4502 15.75 18H14.25ZM13 20.75C13.4502 20.75 13.8633 20.7516 14.1972 20.7067C14.5527 20.6589 14.9284 20.5465 15.2374 20.2374L14.1768 19.1768C14.1763 19.1772 14.1763 19.1772 14.1766 19.1769C14.177 19.1766 14.1772 19.1765 14.1772 19.1765C14.1771 19.1766 14.1762 19.1771 14.1743 19.1781C14.1724 19.1791 14.1691 19.1808 14.164 19.1828C14.1423 19.1918 14.0939 19.2071 13.9973 19.2201C13.7866 19.2484 13.4926 19.25 13 19.25V20.75ZM13 14.75C13.4926 14.75 13.7866 14.7516 13.9973 14.7799C14.0939 14.7929 14.1423 14.8082 14.164 14.8172C14.1691 14.8192 14.1724 14.8209 14.1743 14.8219C14.1762 14.8229 14.1771 14.8234 14.1772 14.8235C14.1772 14.8235 14.177 14.8234 14.1766 14.8231C14.1763 14.8228 14.1763 14.8228 14.1768 14.8232L15.2374 13.7626C14.9284 13.4535 14.5527 13.3411 14.1972 13.2933C13.8633 13.2484 13.4502 13.25 13 13.25V14.75ZM15.75 16C15.75 15.5498 15.7516 15.1367 15.7067 14.8028C15.6589 14.4473 15.5465 14.0716 15.2374 13.7626L14.1768 14.8232C14.1772 14.8237 14.1772 14.8237 14.1769 14.8234C14.1766 14.823 14.1765 14.8228 14.1765 14.8228C14.1766 14.8229 14.1771 14.8238 14.1781 14.8257C14.1791 14.8276 14.1808 14.8309 14.1828 14.836C14.1918 14.8577 14.2071 14.9061 14.2201 15.0027C14.2484 15.2134 14.25 15.5074 14.25 16H15.75ZM11 13.25C10.5498 13.25 10.1367 13.2484 9.80279 13.2933C9.44731 13.3411 9.07159 13.4535 8.76256 13.7626L9.82322 14.8232C9.82368 14.8228 9.8237 14.8228 9.82335 14.8231C9.823 14.8234 9.82277 14.8235 9.82283 14.8235C9.82292 14.8234 9.82376 14.8229 9.82567 14.8219C9.8276 14.8209 9.83092 14.8192 9.83596 14.8172C9.85774 14.8082 9.90611 14.7929 10.0027 14.7799C10.2134 14.7516 10.5074 14.75 11 14.75V13.25ZM9.75 16C9.75 15.5074 9.75159 15.2134 9.77992 15.0027C9.79291 14.9061 9.8082 14.8577 9.81716 14.836C9.81923 14.8309 9.82085 14.8276 9.82186 14.8257C9.82286 14.8238 9.82341 14.8229 9.82347 14.8228C9.82351 14.8228 9.82335 14.823 9.82307 14.8234C9.82279 14.8237 9.82277 14.8237 9.82322 14.8232L8.76256 13.7626C8.45354 14.0716 8.34109 14.4473 8.2933 14.8028C8.24841 15.1367 8.25 15.5498 8.25 16H9.75ZM9.75 20V22H11.25V20H9.75ZM12.75 20V22H14.25V20H12.75ZM9.75 12V14H11.25V12H9.75ZM12.75 12V14H14.25V12H12.75ZM9 14.75H7V16.25H9V14.75ZM9 17.75H7V19.25H9V17.75ZM17 14.75H15V16.25H17V14.75ZM17 17.75H15V19.25H17V17.75Z" fill="#141B34"/>
</svg>
