<svg width="24" height="24" viewBox="0 0 24 24" fill="none" xmlns="http://www.w3.org/2000/svg">
<path d="M4 15V6.96603C4 5.0724 4 4.12559 4.58579 3.53731C4.91238 3.20933 5.34994 3.06421 6 3H11" stroke="#141B34" stroke-width="1.5" stroke-linecap="round" stroke-linejoin="round"/>
<path d="M14.2929 9.70711L14.8232 9.17678L14.8232 9.17678L14.2929 9.70711ZM19.7071 9.70711L19.1768 9.17678L19.1768 9.17678L19.7071 9.70711ZM19.7071 4.29289L19.1768 4.82322L19.1768 4.82322L19.7071 4.29289ZM16.25 10C16.25 9.58579 15.9142 9.25 15.5 9.25C15.0858 9.25 14.75 9.58579 14.75 10H16.25ZM14.75 12C14.75 12.4142 15.0858 12.75 15.5 12.75C15.9142 12.75 16.25 12.4142 16.25 12H14.75ZM19.25 10C19.25 9.58579 18.9142 9.25 18.5 9.25C18.0858 9.25 17.75 9.58579 17.75 10H19.25ZM17.75 12C17.75 12.4142 18.0858 12.75 18.5 12.75C18.9142 12.75 19.25 12.4142 19.25 12H17.75ZM16.25 2C16.25 1.58579 15.9142 1.25 15.5 1.25C15.0858 1.25 14.75 1.58579 14.75 2H16.25ZM14.75 4C14.75 4.41421 15.0858 4.75 15.5 4.75C15.9142 4.75 16.25 4.41421 16.25 4H14.75ZM19.25 2C19.25 1.58579 18.9142 1.25 18.5 1.25C18.0858 1.25 17.75 1.58579 17.75 2H19.25ZM17.75 4C17.75 4.41421 18.0858 4.75 18.5 4.75C18.9142 4.75 19.25 4.41421 19.25 4H17.75ZM14 6.25C14.4142 6.25 14.75 5.91421 14.75 5.5C14.75 5.08579 14.4142 4.75 14 4.75V6.25ZM12 4.75C11.5858 4.75 11.25 5.08579 11.25 5.5C11.25 5.91421 11.5858 6.25 12 6.25V4.75ZM14 9.25C14.4142 9.25 14.75 8.91421 14.75 8.5C14.75 8.08579 14.4142 7.75 14 7.75V9.25ZM12 7.75C11.5858 7.75 11.25 8.08579 11.25 8.5C11.25 8.91421 11.5858 9.25 12 9.25V7.75ZM22 6.25C22.4142 6.25 22.75 5.91421 22.75 5.5C22.75 5.08579 22.4142 4.75 22 4.75V6.25ZM20 4.75C19.5858 4.75 19.25 5.08579 19.25 5.5C19.25 5.91421 19.5858 6.25 20 6.25V4.75ZM22 9.25C22.4142 9.25 22.75 8.91421 22.75 8.5C22.75 8.08579 22.4142 7.75 22 7.75V9.25ZM20 7.75C19.5858 7.75 19.25 8.08579 19.25 8.5C19.25 8.91421 19.5858 9.25 20 9.25V7.75ZM16 4.75H18V3.25H16V4.75ZM19.25 6V8H20.75V6H19.25ZM18 9.25H16V10.75H18V9.25ZM14.75 8V6H13.25V8H14.75ZM16 9.25C15.5074 9.25 15.2134 9.24841 15.0027 9.22008C14.9061 9.20709 14.8577 9.1918 14.836 9.18284C14.8309 9.18077 14.8276 9.17915 14.8257 9.17814C14.8238 9.17714 14.8229 9.17659 14.8228 9.17653C14.8228 9.17649 14.823 9.17665 14.8234 9.17693C14.8237 9.17721 14.8237 9.17723 14.8232 9.17678L13.7626 10.2374C14.0716 10.5465 14.4473 10.6589 14.8028 10.7067C15.1367 10.7516 15.5498 10.75 16 10.75V9.25ZM13.25 8C13.25 8.4502 13.2484 8.8633 13.2933 9.19721C13.3411 9.55269 13.4535 9.92841 13.7626 10.2374L14.8232 9.17678C14.8228 9.17632 14.8228 9.1763 14.8231 9.17665C14.8234 9.177 14.8235 9.17723 14.8235 9.17717C14.8234 9.17708 14.8229 9.17624 14.8219 9.17433C14.8209 9.1724 14.8192 9.16908 14.8172 9.16404C14.8082 9.14226 14.7929 9.09389 14.7799 8.99734C14.7516 8.78661 14.75 8.49261 14.75 8H13.25ZM19.25 8C19.25 8.49261 19.2484 8.78661 19.2201 8.99734C19.2071 9.09389 19.1918 9.14226 19.1828 9.16404C19.1808 9.16908 19.1791 9.1724 19.1781 9.17433C19.1771 9.17624 19.1766 9.17708 19.1765 9.17717C19.1765 9.17723 19.1766 9.177 19.1769 9.17665C19.1772 9.1763 19.1772 9.17632 19.1768 9.17678L20.2374 10.2374C20.5465 9.92841 20.6589 9.55269 20.7067 9.19721C20.7516 8.8633 20.75 8.4502 20.75 8H19.25ZM18 10.75C18.4502 10.75 18.8633 10.7516 19.1972 10.7067C19.5527 10.6589 19.9284 10.5465 20.2374 10.2374L19.1768 9.17678C19.1763 9.17723 19.1763 9.17721 19.1766 9.17693C19.177 9.17665 19.1772 9.17649 19.1772 9.17653C19.1771 9.17659 19.1762 9.17714 19.1743 9.17814C19.1724 9.17915 19.1691 9.18077 19.164 9.18284C19.1423 9.1918 19.0939 9.20709 18.9973 9.22008C18.7866 9.24841 18.4926 9.25 18 9.25V10.75ZM18 4.75C18.4926 4.75 18.7866 4.75159 18.9973 4.77992C19.0939 4.79291 19.1423 4.8082 19.164 4.81716C19.1691 4.81923 19.1724 4.82085 19.1743 4.82186C19.1762 4.82286 19.1771 4.82341 19.1772 4.82347C19.1772 4.82351 19.177 4.82335 19.1766 4.82307C19.1763 4.82279 19.1763 4.82277 19.1768 4.82322L20.2374 3.76256C19.9284 3.45354 19.5527 3.34109 19.1972 3.2933C18.8633 3.24841 18.4502 3.25 18 3.25V4.75ZM20.75 6C20.75 5.5498 20.7516 5.1367 20.7067 4.80279C20.6589 4.44731 20.5465 4.07159 20.2374 3.76256L19.1768 4.82322C19.1772 4.82368 19.1772 4.8237 19.1769 4.82335C19.1766 4.823 19.1765 4.82277 19.1765 4.82283C19.1766 4.82292 19.1771 4.82376 19.1781 4.82567C19.1791 4.8276 19.1808 4.83092 19.1828 4.83596C19.1918 4.85774 19.2071 4.90611 19.2201 5.00266C19.2484 5.21339 19.25 5.50739 19.25 6H20.75ZM16 3.25C15.5498 3.25 15.1367 3.24841 14.8028 3.2933C14.4473 3.34109 14.0716 3.45354 13.7626 3.76256L14.8232 4.82322C14.8237 4.82277 14.8237 4.82279 14.8234 4.82307C14.823 4.82335 14.8228 4.82351 14.8228 4.82347C14.8229 4.82341 14.8238 4.82286 14.8257 4.82186C14.8276 4.82085 14.8309 4.81923 14.836 4.81716C14.8577 4.8082 14.9061 4.79291 15.0027 4.77992C15.2134 4.75159 15.5074 4.75 16 4.75V3.25ZM14.75 6C14.75 5.50739 14.7516 5.21339 14.7799 5.00266C14.7929 4.90611 14.8082 4.85774 14.8172 4.83596C14.8192 4.83092 14.8209 4.8276 14.8219 4.82567C14.8229 4.82376 14.8234 4.82292 14.8235 4.82283C14.8235 4.82277 14.8234 4.823 14.8231 4.82335C14.8228 4.8237 14.8228 4.82368 14.8232 4.82322L13.7626 3.76256C13.4535 4.07159 13.3411 4.44731 13.2933 4.80279C13.2484 5.1367 13.25 5.5498 13.25 6H14.75ZM14.75 10V12H16.25V10H14.75ZM17.75 10V12H19.25V10H17.75ZM14.75 2V4H16.25V2H14.75ZM17.75 2V4H19.25V2H17.75ZM14 4.75H12V6.25H14V4.75ZM14 7.75H12V9.25H14V7.75ZM22 4.75H20V6.25H22V4.75ZM22 7.75H20V9.25H22V7.75Z" fill="#141B34"/>
<path d="M3.49762 16.0154L4.01953 15H19.9518L20.5023 16.0154C21.9452 18.677 22.3046 20.0077 21.7561 21.0039C21.2077 22 19.7536 22 16.8454 22L7.15462 22C4.24642 22 2.79231 22 2.24387 21.0039C1.69543 20.0077 2.05474 18.677 3.49762 16.0154Z" stroke="#141B34" stroke-width="1.5" stroke-linecap="round" stroke-linejoin="round"/>
</svg>
