<svg width="24" height="24" viewBox="0 0 24 24" fill="none" xmlns="http://www.w3.org/2000/svg">
<path d="M11.9983 2C9.14883 2 7.30123 4.01899 5.11615 4.7549C4.22768 5.05413 3.78345 5.20374 3.60366 5.41465C3.42388 5.62556 3.37124 5.93375 3.26595 6.55013C2.13925 13.146 4.6019 19.244 10.475 21.6175C11.106 21.8725 11.4216 22 12.0014 22C12.5812 22 12.8967 21.8725 13.5277 21.6175C19.4005 19.2439 21.8608 13.146 20.7338 6.55013C20.6284 5.93364 20.5758 5.6254 20.3959 5.41449C20.2161 5.20358 19.7719 5.05405 18.8835 4.75499C16.6976 4.01915 14.8479 2 11.9983 2Z" stroke="#141B34" stroke-width="1.5" stroke-linecap="round" stroke-linejoin="round"/>
<path d="M9.29289 14.2071L9.82322 13.6768L9.82322 13.6768L9.29289 14.2071ZM14.7071 14.2071L14.1768 13.6768L14.1768 13.6768L14.7071 14.2071ZM14.7071 8.79289L14.1768 9.32322L14.1768 9.32322L14.7071 8.79289ZM11.25 14.5C11.25 14.0858 10.9142 13.75 10.5 13.75C10.0858 13.75 9.75 14.0858 9.75 14.5H11.25ZM9.75 16.5C9.75 16.9142 10.0858 17.25 10.5 17.25C10.9142 17.25 11.25 16.9142 11.25 16.5H9.75ZM14.25 14.5C14.25 14.0858 13.9142 13.75 13.5 13.75C13.0858 13.75 12.75 14.0858 12.75 14.5H14.25ZM12.75 16.5C12.75 16.9142 13.0858 17.25 13.5 17.25C13.9142 17.25 14.25 16.9142 14.25 16.5H12.75ZM11.25 6.5C11.25 6.08579 10.9142 5.75 10.5 5.75C10.0858 5.75 9.75 6.08579 9.75 6.5H11.25ZM9.75 8.5C9.75 8.91421 10.0858 9.25 10.5 9.25C10.9142 9.25 11.25 8.91421 11.25 8.5H9.75ZM14.25 6.5C14.25 6.08579 13.9142 5.75 13.5 5.75C13.0858 5.75 12.75 6.08579 12.75 6.5H14.25ZM12.75 8.5C12.75 8.91421 13.0858 9.25 13.5 9.25C13.9142 9.25 14.25 8.91421 14.25 8.5H12.75ZM9 10.75C9.41421 10.75 9.75 10.4142 9.75 10C9.75 9.58579 9.41421 9.25 9 9.25V10.75ZM7 9.25C6.58579 9.25 6.25 9.58579 6.25 10C6.25 10.4142 6.58579 10.75 7 10.75V9.25ZM9 13.75C9.41421 13.75 9.75 13.4142 9.75 13C9.75 12.5858 9.41421 12.25 9 12.25V13.75ZM7 12.25C6.58579 12.25 6.25 12.5858 6.25 13C6.25 13.4142 6.58579 13.75 7 13.75V12.25ZM17 10.75C17.4142 10.75 17.75 10.4142 17.75 10C17.75 9.58579 17.4142 9.25 17 9.25V10.75ZM15 9.25C14.5858 9.25 14.25 9.58579 14.25 10C14.25 10.4142 14.5858 10.75 15 10.75V9.25ZM17 13.75C17.4142 13.75 17.75 13.4142 17.75 13C17.75 12.5858 17.4142 12.25 17 12.25V13.75ZM15 12.25C14.5858 12.25 14.25 12.5858 14.25 13C14.25 13.4142 14.5858 13.75 15 13.75V12.25ZM11 9.25H13V7.75H11V9.25ZM14.25 10.5V12.5H15.75V10.5H14.25ZM13 13.75H11V15.25H13V13.75ZM9.75 12.5V10.5H8.25V12.5H9.75ZM11 13.75C10.5074 13.75 10.2134 13.7484 10.0027 13.7201C9.90611 13.7071 9.85774 13.6918 9.83596 13.6828C9.83092 13.6808 9.8276 13.6791 9.82567 13.6781C9.82376 13.6771 9.82292 13.6766 9.82283 13.6765C9.82277 13.6765 9.823 13.6766 9.82335 13.6769C9.8237 13.6772 9.82368 13.6772 9.82322 13.6768L8.76256 14.7374C9.07159 15.0465 9.44731 15.1589 9.80279 15.2067C10.1367 15.2516 10.5498 15.25 11 15.25V13.75ZM8.25 12.5C8.25 12.9502 8.24841 13.3633 8.2933 13.6972C8.34109 14.0527 8.45354 14.4284 8.76256 14.7374L9.82322 13.6768C9.82277 13.6763 9.82279 13.6763 9.82307 13.6766C9.82335 13.677 9.82351 13.6772 9.82347 13.6772C9.82341 13.6771 9.82286 13.6762 9.82186 13.6743C9.82085 13.6724 9.81923 13.6691 9.81716 13.664C9.8082 13.6423 9.79291 13.5939 9.77992 13.4973C9.75159 13.2866 9.75 12.9926 9.75 12.5H8.25ZM14.25 12.5C14.25 12.9926 14.2484 13.2866 14.2201 13.4973C14.2071 13.5939 14.1918 13.6423 14.1828 13.664C14.1808 13.6691 14.1791 13.6724 14.1781 13.6743C14.1771 13.6762 14.1766 13.6771 14.1765 13.6772C14.1765 13.6772 14.1766 13.677 14.1769 13.6766C14.1772 13.6763 14.1772 13.6763 14.1768 13.6768L15.2374 14.7374C15.5465 14.4284 15.6589 14.0527 15.7067 13.6972C15.7516 13.3633 15.75 12.9502 15.75 12.5H14.25ZM13 15.25C13.4502 15.25 13.8633 15.2516 14.1972 15.2067C14.5527 15.1589 14.9284 15.0465 15.2374 14.7374L14.1768 13.6768C14.1763 13.6772 14.1763 13.6772 14.1766 13.6769C14.177 13.6766 14.1772 13.6765 14.1772 13.6765C14.1771 13.6766 14.1762 13.6771 14.1743 13.6781C14.1724 13.6791 14.1691 13.6808 14.164 13.6828C14.1423 13.6918 14.0939 13.7071 13.9973 13.7201C13.7866 13.7484 13.4926 13.75 13 13.75V15.25ZM13 9.25C13.4926 9.25 13.7866 9.25159 13.9973 9.27992C14.0939 9.29291 14.1423 9.3082 14.164 9.31716C14.1691 9.31923 14.1724 9.32085 14.1743 9.32186C14.1762 9.32286 14.1771 9.32341 14.1772 9.32347C14.1772 9.32351 14.177 9.32335 14.1766 9.32307C14.1763 9.32279 14.1763 9.32277 14.1768 9.32322L15.2374 8.26256C14.9284 7.95354 14.5527 7.84109 14.1972 7.7933C13.8633 7.74841 13.4502 7.75 13 7.75V9.25ZM15.75 10.5C15.75 10.0498 15.7516 9.6367 15.7067 9.30279C15.6589 8.94731 15.5465 8.57159 15.2374 8.26256L14.1768 9.32322C14.1772 9.32368 14.1772 9.3237 14.1769 9.32335C14.1766 9.323 14.1765 9.32277 14.1765 9.32283C14.1766 9.32292 14.1771 9.32376 14.1781 9.32567C14.1791 9.3276 14.1808 9.33092 14.1828 9.33596C14.1918 9.35774 14.2071 9.40611 14.2201 9.50266C14.2484 9.71339 14.25 10.0074 14.25 10.5H15.75ZM11 7.75C10.5498 7.75 10.1367 7.74841 9.80279 7.7933C9.44731 7.84109 9.07159 7.95354 8.76256 8.26256L9.82322 9.32322C9.82368 9.32277 9.8237 9.32279 9.82335 9.32307C9.823 9.32335 9.82277 9.32351 9.82283 9.32347C9.82292 9.32341 9.82376 9.32286 9.82567 9.32186C9.8276 9.32085 9.83092 9.31923 9.83596 9.31716C9.85774 9.3082 9.90611 9.29291 10.0027 9.27992C10.2134 9.25159 10.5074 9.25 11 9.25V7.75ZM9.75 10.5C9.75 10.0074 9.75159 9.71339 9.77992 9.50266C9.79291 9.40611 9.8082 9.35774 9.81716 9.33596C9.81923 9.33092 9.82085 9.3276 9.82186 9.32567C9.82286 9.32376 9.82341 9.32292 9.82347 9.32283C9.82351 9.32277 9.82335 9.323 9.82307 9.32335C9.82279 9.3237 9.82277 9.32368 9.82322 9.32322L8.76256 8.26256C8.45354 8.57159 8.34109 8.94731 8.2933 9.30279C8.24841 9.6367 8.25 10.0498 8.25 10.5H9.75ZM9.75 14.5V16.5H11.25V14.5H9.75ZM12.75 14.5V16.5H14.25V14.5H12.75ZM9.75 6.5V8.5H11.25V6.5H9.75ZM12.75 6.5V8.5H14.25V6.5H12.75ZM9 9.25H7V10.75H9V9.25ZM9 12.25H7V13.75H9V12.25ZM17 9.25H15V10.75H17V9.25ZM17 12.25H15V13.75H17V12.25Z" fill="#141B34"/>
</svg>
