<svg width="24" height="24" viewBox="0 0 24 24" fill="none" xmlns="http://www.w3.org/2000/svg">
<path d="M16 22.0001V21.5001C16 20.3955 16.9321 19.5006 17.9223 19.0111C18.8846 18.5354 19.6943 17.7512 19.7965 16.8314L20 15.0001L22 14.0001L19.5 10.2501C19.5 5.94653 16.2049 2.41261 12 2.03369M6.5 16.9963V22.0001M6.5 16.9963C5.46656 16.2673 4.60808 15.3068 4 14.1903M6.5 16.9963C7.25065 17.5258 8.09362 17.9332 9 18.1895" stroke="#141B34" stroke-width="1.5" stroke-linecap="round" stroke-linejoin="round"/>
<path d="M8 4H6C5.05719 4 4.58579 4 4.29289 4.29289C4 4.58579 4 5.05719 4 6V8C4 8.94281 4 9.41421 4.29289 9.70711C4.58579 10 5.05719 10 6 10H8C8.94281 10 9.41421 10 9.70711 9.70711C10 9.41421 10 8.94281 10 8V6C10 5.05719 10 4.58579 9.70711 4.29289C9.41421 4 8.94281 4 8 4Z" stroke="#141B34" stroke-width="1.5" stroke-linecap="round" stroke-linejoin="round"/>
<path d="M5.5 10V12M8.5 10V12M5.5 2V4M8.5 2V4M4 5.5H2M4 8.5H2M12 5.5H10M12 8.5H10" stroke="#141B34" stroke-width="1.5" stroke-linecap="round" stroke-linejoin="round"/>
</svg>
