<svg width="24" height="24" viewBox="0 0 24 24" fill="none" xmlns="http://www.w3.org/2000/svg">
<path d="M12.9474 18.9999C12.8695 20.0215 12.6757 20.6899 12.1945 21.1798C11.3891 21.9999 10.0927 21.9999 7.5 21.9999C4.90728 21.9999 3.61091 21.9999 2.80546 21.1798C2 20.3597 2 19.0398 2 16.3999V11.5999C2 8.96005 2 7.64011 2.80546 6.82001C3.29517 6.3214 3.96634 6.12594 5 6.04932" stroke="#141B34" stroke-width="1.5" stroke-linecap="round"/>
<path d="M7.49199 19.0005H7.50098" stroke="#141B34" stroke-width="2" stroke-linecap="round" stroke-linejoin="round"/>
<path d="M16.0785 2.00049H13.9215C11.0208 2.00049 9.57048 2.00049 8.70959 2.90374C7.8487 3.80699 7.93917 5.23377 8.12011 8.08732L8.24595 10.0721C8.28754 10.7278 8.30833 11.0557 8.38194 11.3292C8.66622 12.3854 9.53533 13.1902 10.6225 13.404C10.904 13.4594 11.2373 13.4594 11.904 13.4594C12.8328 13.4594 12.8202 14.2265 12.8202 14.9859C12.8202 15.575 12.8202 15.8695 13.0121 15.9707C13.204 16.0719 13.4526 15.9085 13.9499 15.5818L16.9093 13.6371C17.1029 13.5099 17.2769 13.4594 17.5048 13.4594C18.727 13.4594 19.3381 13.4594 19.8333 13.2755C21.5492 12.6385 21.6918 11.0531 21.7909 9.49044L21.8799 8.08732C22.0608 5.23377 22.1513 3.80699 21.2904 2.90374C20.4295 2.00049 18.9792 2.00049 16.0785 2.00049Z" stroke="#141B34" stroke-width="1.5" stroke-linejoin="round"/>
<path d="M13.8342 8.42906C11.4258 6.71477 14.9993 5.00049 14.9993 5.00049C14.9993 5.00049 18.5746 6.71477 16.1663 8.42906M13.8342 8.42906H16.1663M13.8342 8.42906L13.2507 11.0005M16.1663 8.42906L16.9821 11.0005" stroke="#141B34" stroke-width="1.5" stroke-linecap="round" stroke-linejoin="round"/>
</svg>
